ply
format ascii 1.0
comment Created by Blender 2.80 (sub 75) - www.blender.org, source file: 'apple_tree_mature_ripe.blend'
element vertex 657
property float x
property float y
property float z
property float nx
property float ny
property float nz
property uchar red
property uchar green
property uchar blue
property uchar alpha
element face 219
property list uchar uint vertex_indices
end_header
0.068959 0.298905 -0.207265 -0.384035 0.171110 -0.907325 135 106 52 255
-0.135460 0.298929 -0.120738 -0.384035 0.171110 -0.907325 135 106 52 255
-0.139344 0.648893 -0.053095 -0.384035 0.171110 -0.907325 135 106 52 255
0.068959 0.298905 -0.207265 -0.682951 -0.086993 -0.725266 135 106 52 255
-0.139344 0.648893 -0.053095 -0.682951 -0.086993 -0.725266 135 106 52 255
0.007818 0.646320 -0.191362 -0.682951 -0.086993 -0.725266 135 106 52 255
-0.186744 0.015151 -0.157143 -0.383030 0.185316 -0.904956 135 106 52 255
-0.135460 0.298929 -0.120738 -0.383030 0.185316 -0.904956 135 106 52 255
0.068959 0.298905 -0.207265 -0.383030 0.185316 -0.904956 135 106 52 255
-0.186744 0.015151 -0.157143 -0.426121 0.229422 -0.875093 135 106 52 255
0.068959 0.298905 -0.207265 -0.426121 0.229422 -0.875093 135 106 52 255
0.059714 0.015128 -0.277161 -0.426121 0.229422 -0.875093 136 108 56 255
0.218845 0.015128 -0.064667 0.827627 -0.014286 0.561096 135 106 52 255
0.209600 0.298905 -0.043806 0.827627 -0.014286 0.561096 135 106 52 255
0.095973 0.298905 0.123797 0.827627 -0.014286 0.561096 135 106 52 255
0.218845 0.015128 -0.064667 0.934624 0.218141 0.280879 135 106 52 255
0.095973 0.298905 0.123797 0.934624 0.218141 0.280879 135 106 52 255
0.155676 0.015126 0.145527 0.934624 0.218141 0.280879 135 106 52 255
0.059714 0.015128 -0.277161 0.751124 0.134710 -0.646271 136 108 56 255
0.068959 0.298905 -0.207265 0.751124 0.134710 -0.646271 135 106 52 255
0.209600 0.298905 -0.043806 0.751124 0.134710 -0.646271 135 106 52 255
0.059714 0.015128 -0.277161 0.798471 0.069970 -0.597953 136 108 56 255
0.209600 0.298905 -0.043806 0.798471 0.069970 -0.597953 135 106 52 255
0.218845 0.015128 -0.064667 0.798471 0.069970 -0.597953 135 106 52 255
-0.092210 0.015153 0.156584 -0.972249 0.069978 0.223238 136 107 55 255
-0.080744 0.298929 0.117564 -0.972249 0.069978 0.223238 135 106 52 255
-0.135460 0.298929 -0.120738 -0.972249 0.069978 0.223238 135 106 52 255
-0.092210 0.015153 0.156584 -0.948740 0.134778 0.285879 136 107 55 255
-0.135460 0.298929 -0.120738 -0.948740 0.134778 0.285879 135 106 52 255
-0.186744 0.015151 -0.157143 -0.948740 0.134778 0.285879 135 106 52 255
0.155676 0.015126 0.145527 -0.035152 0.068951 0.997001 135 106 52 255
0.095973 0.298905 0.123797 -0.035152 0.068951 0.997001 135 106 52 255
-0.080744 0.298929 0.117564 -0.035152 0.068951 0.997001 135 106 52 255
0.155676 0.015126 0.145527 0.044169 0.134335 0.989951 135 106 52 255
-0.080744 0.298929 0.117564 0.044169 0.134335 0.989951 135 106 52 255
-0.092210 0.015153 0.156584 0.044169 0.134335 0.989951 136 107 55 255
0.132305 0.601861 0.080373 0.968217 0.032071 0.248047 135 106 52 255
0.177456 0.615838 -0.097673 0.968217 0.032071 0.248047 135 106 52 255
0.163635 0.967984 -0.089256 0.968217 0.032071 0.248047 135 106 52 255
0.132305 0.601861 0.080373 0.976065 -0.154457 -0.153099 135 106 52 255
0.163635 0.967984 -0.089256 0.976065 -0.154457 -0.153099 135 106 52 255
0.183178 0.942681 0.060866 0.976065 -0.154457 -0.153099 171 117 63 255
0.209600 0.298905 -0.043806 0.748129 0.161127 -0.643693 135 106 52 255
0.068959 0.298905 -0.207265 0.748129 0.161127 -0.643693 135 106 52 255
0.007818 0.646320 -0.191362 0.748129 0.161127 -0.643693 135 106 52 255
0.209600 0.298905 -0.043806 0.466837 -0.101956 -0.878447 135 106 52 255
0.007818 0.646320 -0.191362 0.466837 -0.101956 -0.878447 135 106 52 255
0.177456 0.615838 -0.097673 0.466837 -0.101956 -0.878447 135 106 52 255
0.095973 0.298905 0.123797 0.814716 0.176509 0.552343 135 106 52 255
0.209600 0.298905 -0.043806 0.814716 0.176509 0.552343 135 106 52 255
0.177456 0.615838 -0.097673 0.814716 0.176509 0.552343 135 106 52 255
0.095973 0.298905 0.123797 0.967582 -0.081790 0.238948 135 106 52 255
0.177456 0.615838 -0.097673 0.967582 -0.081790 0.238948 135 106 52 255
0.132305 0.601861 0.080373 0.967582 -0.081790 0.238948 135 106 52 255
-0.135460 0.298929 -0.120738 -0.959459 0.175803 0.220301 135 106 52 255
-0.080744 0.298929 0.117564 -0.959459 0.175803 0.220301 135 106 52 255
-0.019765 0.614527 0.131288 -0.959459 0.175803 0.220301 135 106 52 255
-0.135460 0.298929 -0.120738 -0.843138 -0.111045 0.526106 135 106 52 255
-0.019765 0.614527 0.131288 -0.843138 -0.111045 0.526106 135 106 52 255
-0.139344 0.648893 -0.053095 -0.843138 -0.111045 0.526106 135 106 52 255
-0.080744 0.298929 0.117564 -0.034849 0.145889 0.988687 135 106 52 255
0.095973 0.298905 0.123797 -0.034849 0.145889 0.988687 135 106 52 255
0.132305 0.601861 0.080373 -0.034849 0.145889 0.988687 135 106 52 255
-0.080744 0.298929 0.117564 0.308322 -0.100708 0.945936 135 106 52 255
0.132305 0.601861 0.080373 0.308322 -0.100708 0.945936 135 106 52 255
-0.019765 0.614527 0.131288 0.308322 -0.100708 0.945936 135 106 52 255
0.080515 0.942406 0.147041 0.641996 -0.056086 0.764654 173 119 65 255
0.183178 0.942681 0.060866 0.641996 -0.056086 0.764654 171 117 63 255
0.194085 1.204566 0.070917 0.641996 -0.056086 0.764654 173 119 65 255
0.080515 0.942406 0.147041 0.760565 -0.145771 0.632687 173 119 65 255
0.194085 1.204566 0.070917 0.760565 -0.145771 0.632687 173 119 65 255
0.129209 1.208947 0.149916 0.760565 -0.145771 0.632687 173 119 65 255
0.007818 0.646320 -0.191362 -0.640919 0.339468 -0.688466 135 106 52 255
-0.139344 0.648893 -0.053095 -0.640919 0.339468 -0.688466 135 106 52 255
-0.069117 0.976906 0.043264 -0.640919 0.339468 -0.688466 135 106 52 255
0.007818 0.646320 -0.191362 -0.902644 0.088819 -0.421124 135 106 52 255
-0.069117 0.976906 0.043264 -0.902644 0.088819 -0.421124 135 106 52 255
0.002908 0.990946 -0.108155 -0.902644 0.088819 -0.421124 135 106 52 255
-0.019765 0.614527 0.131288 0.317991 0.006799 0.948069 135 106 52 255
0.132305 0.601861 0.080373 0.317991 0.006799 0.948069 135 106 52 255
0.183178 0.942681 0.060866 0.317991 0.006799 0.948069 171 117 63 255
-0.019765 0.614527 0.131288 0.626432 -0.227411 0.745565 135 106 52 255
0.183178 0.942681 0.060866 0.626432 -0.227411 0.745565 171 117 63 255
0.080515 0.942406 0.147041 0.626432 -0.227411 0.745565 173 119 65 255
-0.139344 0.648893 -0.053095 -0.799844 0.217758 0.559313 135 106 52 255
-0.019765 0.614527 0.131288 -0.799844 0.217758 0.559313 135 106 52 255
0.080515 0.942406 0.147041 -0.799844 0.217758 0.559313 173 119 65 255
-0.139344 0.648893 -0.053095 -0.583565 -0.111362 0.804395 135 106 52 255
0.080515 0.942406 0.147041 -0.583565 -0.111362 0.804395 173 119 65 255
-0.069117 0.976906 0.043264 -0.583565 -0.111362 0.804395 135 106 52 255
0.177456 0.615838 -0.097673 0.501317 0.209818 -0.839439 135 106 52 255
0.007818 0.646320 -0.191362 0.501317 0.209818 -0.839439 135 106 52 255
0.002908 0.990946 -0.108155 0.501317 0.209818 -0.839439 135 106 52 255
0.177456 0.615838 -0.097673 0.120736 0.028454 -0.992277 135 106 52 255
0.002908 0.990946 -0.108155 0.120736 0.028454 -0.992277 135 106 52 255
0.163635 0.967984 -0.089256 0.120736 0.028454 -0.992277 135 106 52 255
0.156935 1.203260 -0.040197 -0.046209 0.243904 -0.968698 135 106 52 255
0.032461 1.208123 -0.033034 -0.046209 0.243904 -0.968698 158 114 60 255
0.105456 1.470683 0.029592 -0.046209 0.243904 -0.968698 173 119 65 255
-0.069117 0.976906 0.043264 -0.553052 0.092102 0.828041 135 106 52 255
0.080515 0.942406 0.147041 -0.553052 0.092102 0.828041 173 119 65 255
0.129209 1.208947 0.149916 -0.553052 0.092102 0.828041 173 119 65 255
-0.069117 0.976906 0.043264 -0.415031 -0.062461 0.907661 135 106 52 255
0.129209 1.208947 0.149916 -0.415031 -0.062461 0.907661 173 119 65 255
0.000492 1.212369 0.091296 -0.415031 -0.062461 0.907661 173 119 65 255
0.163635 0.967984 -0.089256 0.153994 0.304211 -0.940075 135 106 52 255
0.002908 0.990946 -0.108155 0.153994 0.304211 -0.940075 135 106 52 255
0.032461 1.208123 -0.033034 0.153994 0.304211 -0.940075 158 114 60 255
0.163635 0.967984 -0.089256 -0.048363 0.202571 -0.978073 135 106 52 255
0.032461 1.208123 -0.033034 -0.048363 0.202571 -0.978073 158 114 60 255
0.156935 1.203260 -0.040197 -0.048363 0.202571 -0.978073 135 106 52 255
0.183178 0.942681 0.060866 0.991334 0.053270 -0.120075 171 117 63 255
0.163635 0.967984 -0.089256 0.991334 0.053270 -0.120075 135 106 52 255
0.156935 1.203260 -0.040197 0.991334 0.053270 -0.120075 135 106 52 255
0.183178 0.942681 0.060866 0.948136 -0.027334 -0.316686 171 117 63 255
0.156935 1.203260 -0.040197 0.948136 -0.027334 -0.316686 135 106 52 255
0.194085 1.204566 0.070917 0.948136 -0.027334 -0.316686 173 119 65 255
0.002908 0.990946 -0.108155 -0.863208 0.332651 -0.379758 135 106 52 255
-0.069117 0.976906 0.043264 -0.863208 0.332651 -0.379758 135 106 52 255
0.000492 1.212369 0.091296 -0.863208 0.332651 -0.379758 173 119 65 255
0.002908 0.990946 -0.108155 -0.944059 0.214965 -0.250086 135 106 52 255
0.000492 1.212369 0.091296 -0.944059 0.214965 -0.250086 173 119 65 255
0.032461 1.208123 -0.033034 -0.944059 0.214965 -0.250086 158 114 60 255
0.156238 1.444871 0.124087 0.887633 0.139367 -0.438958 173 119 65 255
0.105456 1.470683 0.029592 0.887633 0.139367 -0.438958 173 119 65 255
0.107346 1.723127 0.113564 0.887633 0.139367 -0.438958 138 106 52 255
0.194085 1.204566 0.070917 0.915641 0.256943 -0.309164 173 119 65 255
0.156935 1.203260 -0.040197 0.915641 0.256943 -0.309164 135 106 52 255
0.105456 1.470683 0.029592 0.915641 0.256943 -0.309164 173 119 65 255
0.194085 1.204566 0.070917 0.882061 0.229909 -0.411230 173 119 65 255
0.105456 1.470683 0.029592 0.882061 0.229909 -0.411230 173 119 65 255
0.156238 1.444871 0.124087 0.882061 0.229909 -0.411230 173 119 65 255
0.032461 1.208123 -0.033034 -0.945525 0.208246 -0.250234 158 114 60 255
0.000492 1.212369 0.091296 -0.945525 0.208246 -0.250234 173 119 65 255
0.045601 1.448638 0.117472 -0.945525 0.208246 -0.250234 173 119 65 255
0.032461 1.208123 -0.033034 -0.815011 0.338721 -0.470133 158 114 60 255
0.045601 1.448638 0.117472 -0.815011 0.338721 -0.470133 173 119 65 255
0.105456 1.470683 0.029592 -0.815011 0.338721 -0.470133 173 119 65 255
0.129209 1.208947 0.149916 0.772146 -0.018924 0.635163 173 119 65 255
0.194085 1.204566 0.070917 0.772146 -0.018924 0.635163 173 119 65 255
0.156238 1.444871 0.124087 0.772146 -0.018924 0.635163 173 119 65 255
0.000492 1.212369 0.091296 -0.406861 0.145353 0.901852 173 119 65 255
0.129209 1.208947 0.149916 -0.406861 0.145353 0.901852 173 119 65 255
0.156238 1.444871 0.124087 -0.406861 0.145353 0.901852 173 119 65 255
0.000492 1.212369 0.091296 -0.062723 -0.098059 0.993202 173 119 65 255
0.156238 1.444871 0.124087 -0.062723 -0.098059 0.993202 173 119 65 255
0.045601 1.448638 0.117472 -0.062723 -0.098059 0.993202 173 119 65 255
0.126497 1.043318 0.070863 -0.868003 -0.130618 -0.479071 136 107 54 255
0.095716 1.087038 0.114713 -0.868003 -0.130618 -0.479071 173 119 65 255
0.105064 1.173182 0.074288 -0.868003 -0.130618 -0.479071 168 118 64 255
0.105064 1.173182 0.074288 -0.867990 -0.130682 -0.479078 168 118 64 255
0.148159 1.151401 0.002150 -0.867990 -0.130682 -0.479078 135 106 52 255
0.160002 1.067921 0.003466 -0.867990 -0.130682 -0.479078 135 106 52 255
0.105064 1.173182 0.074288 -0.867956 -0.130608 -0.479160 168 118 64 255
0.160002 1.067921 0.003466 -0.867956 -0.130608 -0.479160 135 106 52 255
0.126497 1.043318 0.070863 -0.867956 -0.130608 -0.479160 136 107 54 255
0.045601 1.448638 0.117472 -0.058731 0.027416 0.997897 173 119 65 255
0.156238 1.444871 0.124087 -0.058731 0.027416 0.997897 173 119 65 255
0.107346 1.723127 0.113564 -0.058731 0.027416 0.997897 138 106 52 255
0.105456 1.470683 0.029592 -0.833426 0.180036 -0.522482 173 119 65 255
0.045601 1.448638 0.117472 -0.833426 0.180036 -0.522482 173 119 65 255
0.107346 1.723127 0.113564 -0.833426 0.180036 -0.522482 138 106 52 255
0.262852 1.219759 0.134088 -0.265754 0.870405 -0.414452 142 108 54 255
0.223993 1.237188 0.195609 -0.265754 0.870405 -0.414452 173 119 65 255
0.363361 1.314046 0.267656 -0.265754 0.870405 -0.414452 173 119 65 255
0.262852 1.219759 0.134088 -0.350695 0.868853 -0.349439 142 108 54 255
0.363361 1.314046 0.267656 -0.350695 0.868853 -0.349439 173 119 65 255
0.397726 1.305772 0.212594 -0.350695 0.868853 -0.349439 172 119 65 255
0.148159 1.151401 0.002150 -0.132196 0.924297 -0.358049 135 106 52 255
0.105064 1.173182 0.074288 -0.132196 0.924297 -0.358049 168 118 64 255
0.223993 1.237188 0.195609 -0.132196 0.924297 -0.358049 173 119 65 255
0.148159 1.151401 0.002150 -0.144595 0.924308 -0.353194 135 106 52 255
0.223993 1.237188 0.195609 -0.144595 0.924308 -0.353194 173 119 65 255
0.262852 1.219759 0.134088 -0.144595 0.924308 -0.353194 142 108 54 255
0.105064 1.173182 0.074288 -0.735539 0.351586 0.579111 168 118 64 255
0.095716 1.087038 0.114713 -0.735539 0.351586 0.579111 173 119 65 255
0.229441 1.165932 0.236662 -0.735539 0.351586 0.579111 173 119 65 255
0.105064 1.173182 0.074288 -0.755310 0.282853 0.591187 168 118 64 255
0.229441 1.165932 0.236662 -0.755310 0.282853 0.591187 173 119 65 255
0.223993 1.237188 0.195609 -0.755310 0.282853 0.591187 173 119 65 255
0.126497 1.043318 0.070863 0.566609 -0.823767 -0.019032 136 107 54 255
0.160002 1.067921 0.003466 0.566609 -0.823767 -0.019032 135 106 52 255
0.285366 1.150976 0.140820 0.566609 -0.823767 -0.019032 136 106 52 255
0.126497 1.043318 0.070863 0.575968 -0.815779 -0.052580 136 107 54 255
0.285366 1.150976 0.140820 0.575968 -0.815779 -0.052580 136 106 52 255
0.261497 1.130226 0.201304 0.575968 -0.815779 -0.052580 173 119 65 255
0.095716 1.087038 0.114713 -0.142678 -0.749181 0.646816 173 119 65 255
0.126497 1.043318 0.070863 -0.142678 -0.749181 0.646816 136 107 54 255
0.261497 1.130226 0.201304 -0.142678 -0.749181 0.646816 173 119 65 255
0.095716 1.087038 0.114713 -0.137034 -0.756391 0.639605 173 119 65 255
0.261497 1.130226 0.201304 -0.137034 -0.756391 0.639605 173 119 65 255
0.229441 1.165932 0.236662 -0.137034 -0.756391 0.639605 173 119 65 255
0.160002 1.067921 0.003466 0.727264 0.092449 -0.680103 135 106 52 255
0.148159 1.151401 0.002150 0.727264 0.092449 -0.680103 135 106 52 255
0.262852 1.219759 0.134088 0.727264 0.092449 -0.680103 142 108 54 255
0.160002 1.067921 0.003466 0.681993 0.153241 -0.715124 135 106 52 255
0.262852 1.219759 0.134088 0.681993 0.153241 -0.715124 142 108 54 255
0.285366 1.150976 0.140820 0.681993 0.153241 -0.715124 136 106 52 255
0.406818 1.277840 0.264731 0.866519 -0.361131 -0.344572 135 106 52 255
0.397726 1.305772 0.212594 0.866519 -0.361131 -0.344572 172 119 65 255
0.463796 1.388141 0.292418 0.866519 -0.361131 -0.344572 146 111 57 255
0.261497 1.130226 0.201304 0.783115 -0.614047 0.098374 173 119 65 255
0.285366 1.150976 0.140820 0.783115 -0.614047 0.098374 136 106 52 255
0.397726 1.305772 0.212594 0.783115 -0.614047 0.098374 172 119 65 255
0.261497 1.130226 0.201304 0.730870 -0.540361 -0.416939 173 119 65 255
0.397726 1.305772 0.212594 0.730870 -0.540361 -0.416939 172 119 65 255
0.406818 1.277840 0.264731 0.730870 -0.540361 -0.416939 135 106 52 255
0.285366 1.150976 0.140820 0.469413 0.067487 -0.880396 136 106 52 255
0.262852 1.219759 0.134088 0.469413 0.067487 -0.880396 142 108 54 255
0.397726 1.305772 0.212594 0.469413 0.067487 -0.880396 172 119 65 255
0.223993 1.237188 0.195609 -0.580036 0.372901 0.724226 173 119 65 255
0.229441 1.165932 0.236662 -0.580036 0.372901 0.724226 173 119 65 255
0.363361 1.314046 0.267656 -0.580036 0.372901 0.724226 173 119 65 255
0.229441 1.165932 0.236662 0.234620 -0.569482 0.787809 173 119 65 255
0.261497 1.130226 0.201304 0.234620 -0.569482 0.787809 173 119 65 255
0.406818 1.277840 0.264731 0.234620 -0.569482 0.787809 135 106 52 255
0.229441 1.165932 0.236662 -0.060237 -0.151977 0.986547 173 119 65 255
0.406818 1.277840 0.264731 -0.060237 -0.151977 0.986547 135 106 52 255
0.363361 1.314046 0.267656 -0.060237 -0.151977 0.986547 173 119 65 255
0.038814 0.772585 0.022722 0.334142 -0.130619 -0.933428 156 113 59 255
-0.027160 0.832419 -0.009268 0.334142 -0.130619 -0.933428 135 106 52 255
0.029499 0.950312 -0.005483 0.334142 -0.130619 -0.933428 135 106 52 255
0.029499 0.950312 -0.005483 0.310730 -0.206622 -0.927769 135 106 52 255
0.136383 0.920504 0.036954 0.310730 -0.206622 -0.927769 172 118 64 255
0.109040 0.806255 0.053240 0.310730 -0.206622 -0.927769 167 116 62 255
0.029499 0.950312 -0.005483 0.442773 -0.117851 -0.888855 135 106 52 255
0.109040 0.806255 0.053240 0.442773 -0.117851 -0.888855 167 116 62 255
0.038814 0.772585 0.022722 0.442773 -0.117851 -0.888855 156 113 59 255
0.397726 1.305772 0.212594 -0.472902 0.778766 -0.412175 172 119 65 255
0.363361 1.314046 0.267656 -0.472902 0.778766 -0.412175 173 119 65 255
0.463796 1.388141 0.292418 -0.472902 0.778766 -0.412175 146 111 57 255
0.363361 1.314046 0.267656 -0.096785 -0.194994 0.976018 173 119 65 255
0.406818 1.277840 0.264731 -0.096785 -0.194994 0.976018 135 106 52 255
0.463796 1.388141 0.292418 -0.096785 -0.194994 0.976018 146 111 57 255
-0.016767 1.014056 0.220767 0.366635 0.870405 -0.328594 173 119 65 255
-0.108382 1.037909 0.181730 0.366635 0.870405 -0.328594 172 119 65 255
-0.175221 1.143094 0.385774 0.366635 0.870405 -0.328594 173 119 65 255
-0.016767 1.014056 0.220767 0.288877 0.868853 -0.402051 173 119 65 255
-0.175221 1.143094 0.385774 0.288877 0.868853 -0.402051 173 119 65 255
-0.093317 1.131771 0.420154 0.288877 0.868853 -0.402051 173 119 65 255
0.136383 0.920504 0.036954 0.332310 0.924297 -0.187737 172 118 64 255
0.029499 0.950312 -0.005483 0.332310 0.924297 -0.187737 135 106 52 255
-0.108382 1.037909 0.181730 0.332310 0.924297 -0.187737 172 119 65 255
0.136383 0.920504 0.036954 0.325535 0.924309 -0.199200 172 118 64 255
-0.108382 1.037909 0.181730 0.325535 0.924309 -0.199200 172 119 65 255
-0.016767 1.014056 0.220767 0.325535 0.924309 -0.199200 173 119 65 255
0.029499 0.950312 -0.005483 -0.689253 0.351586 -0.633496 135 106 52 255
-0.027160 0.832419 -0.009268 -0.689253 0.351586 -0.633496 135 106 52 255
-0.162651 0.940390 0.198071 -0.689253 0.351586 -0.633496 171 118 64 255
0.029499 0.950312 -0.005483 -0.704334 0.282853 -0.651082 135 106 52 255
-0.162651 0.940390 0.198071 -0.704334 0.282853 -0.651082 171 118 64 255
-0.108382 1.037909 0.181730 -0.704334 0.282853 -0.651082 172 119 65 255
0.038814 0.772585 0.022722 0.126492 -0.797951 0.589299 156 113 59 255
0.109040 0.806255 0.053240 0.126492 -0.797951 0.589299 167 116 62 255
-0.036755 0.927379 0.248544 0.126492 -0.797951 0.589299 173 119 65 255
0.038814 0.772585 0.022722 0.254643 -0.755785 0.603280 156 113 59 255
-0.036755 0.927379 0.248544 0.254643 -0.755785 0.603280 173 119 65 255
-0.107870 0.891524 0.233643 0.254643 -0.755785 0.603280 173 119 65 255
-0.027160 0.832419 -0.009268 -0.661307 -0.749181 -0.037438 135 106 52 255
0.038814 0.772585 0.022722 -0.661307 -0.749181 -0.037438 156 113 59 255
-0.107870 0.891524 0.233643 -0.661307 -0.749181 -0.037438 173 119 65 255
-0.027160 0.832419 -0.009268 -0.653286 -0.756391 -0.033018 135 106 52 255
-0.107870 0.891524 0.233643 -0.653286 -0.756391 -0.033018 173 119 65 255
-0.162651 0.940390 0.198071 -0.653286 -0.756391 -0.033018 171 118 64 255
0.109040 0.806255 0.053240 0.744235 -0.083652 0.662659 167 116 62 255
0.136383 0.920504 0.036954 0.744235 -0.083652 0.662659 172 118 64 255
-0.016767 1.014056 0.220767 0.744235 -0.083652 0.662659 173 119 65 255
0.109040 0.806255 0.053240 0.803044 0.005778 0.595892 167 116 62 255
-0.016767 1.014056 0.220767 0.803044 0.005778 0.595892 173 119 65 255
-0.036755 0.927379 0.248544 0.803044 0.005778 0.595892 173 119 65 255
-0.161763 1.093544 0.443843 0.478671 -0.361130 0.800287 135 106 52 255
-0.093317 1.131771 0.420154 0.478671 -0.361130 0.800287 173 119 65 255
-0.186700 1.244498 0.526877 0.478671 -0.361130 0.800287 173 119 65 255
-0.107870 0.891524 0.233643 0.145798 -0.612170 0.777168 173 119 65 255
-0.036755 0.927379 0.248544 0.145798 -0.612170 0.777168 173 119 65 255
-0.093317 1.131771 0.420154 0.145798 -0.612170 0.777168 173 119 65 255
-0.107870 0.891524 0.233643 0.528422 -0.540361 0.654813 173 119 65 255
-0.093317 1.131771 0.420154 0.528422 -0.540361 0.654813 173 119 65 255
-0.161763 1.093544 0.443843 0.528422 -0.540361 0.654813 135 106 52 255
-0.036755 0.927379 0.248544 0.913085 -0.082593 0.399318 173 119 65 255
-0.016767 1.014056 0.220767 0.913085 -0.082593 0.399318 173 119 65 255
-0.093317 1.131771 0.420154 0.913085 -0.082593 0.399318 173 119 65 255
-0.108382 1.037909 0.181730 -0.807642 0.372900 -0.456793 172 119 65 255
-0.162651 0.940390 0.198071 -0.807642 0.372900 -0.456793 171 118 64 255
-0.175221 1.143094 0.385774 -0.807642 0.372900 -0.456793 173 119 65 255
-0.162651 0.940390 0.198071 -0.740168 -0.569482 0.357549 171 118 64 255
-0.107870 0.891524 0.233643 -0.740168 -0.569482 0.357549 173 119 65 255
-0.161763 1.093544 0.443843 -0.740168 -0.569482 0.357549 135 106 52 255
-0.162651 0.940390 0.198071 -0.983488 -0.151977 0.098257 171 118 64 255
-0.161763 1.093544 0.443843 -0.983488 -0.151977 0.098257 135 106 52 255
-0.175221 1.143094 0.385774 -0.983488 -0.151977 0.098257 173 119 65 255
-0.093317 1.131771 0.420154 0.331269 0.778766 -0.532714 173 119 65 255
-0.175221 1.143094 0.385774 0.331269 0.778766 -0.532714 173 119 65 255
-0.186700 1.244498 0.526877 0.331269 0.778766 -0.532714 173 119 65 255
-0.175221 1.143094 0.385774 -0.978937 -0.194994 0.060496 173 119 65 255
-0.161763 1.093544 0.443843 -0.978937 -0.194994 0.060496 135 106 52 255
-0.186700 1.244498 0.526877 -0.978937 -0.194994 0.060496 173 119 65 255
-0.282388 1.078429 0.237039 -0.488619 -0.871702 -0.037253 94 153 47 255
-0.082966 0.969314 0.174631 -0.488619 -0.871702 -0.037253 94 153 47 255
-0.185544 1.012328 0.513560 -0.488619 -0.871702 -0.037253 94 153 47 255
-0.185544 1.012328 0.513560 0.357186 -0.834380 0.419796 94 153 47 255
0.049941 1.045271 0.378674 0.357186 -0.834380 0.419796 94 153 47 255
0.051219 1.150740 0.587214 0.357186 -0.834380 0.419796 94 153 47 255
-0.185544 1.012328 0.513560 0.074442 -0.564714 0.821922 94 153 47 255
0.051219 1.150740 0.587214 0.074442 -0.564714 0.821922 94 153 47 255
-0.058230 1.301967 0.701030 0.074442 -0.564714 0.821922 94 153 47 255
-0.185544 1.012328 0.513560 0.376289 -0.614312 0.693561 94 153 47 255
-0.058230 1.301967 0.701030 0.376289 -0.614312 0.693561 94 153 47 255
-0.249287 1.198883 0.713382 0.376289 -0.614312 0.693561 94 153 47 255
-0.345713 1.181899 0.354959 -0.808308 -0.536331 0.242872 94 153 47 255
-0.185544 1.012328 0.513560 -0.808308 -0.536331 0.242872 94 153 47 255
-0.249287 1.198883 0.713382 -0.808308 -0.536331 0.242872 94 153 47 255
-0.345713 1.181899 0.354959 -0.935711 -0.235243 0.262880 94 153 47 255
-0.249287 1.198883 0.713382 -0.935711 -0.235243 0.262880 94 153 47 255
-0.328421 1.323177 0.542934 -0.935711 -0.235243 0.262880 94 153 47 255
-0.249287 1.198883 0.713382 -0.798374 0.245634 0.549785 94 153 47 255
-0.214922 1.392289 0.676875 -0.798374 0.245634 0.549785 94 153 47 255
-0.328421 1.323177 0.542934 -0.798374 0.245634 0.549785 94 153 47 255
-0.249287 1.198883 0.713382 -0.040338 0.192249 0.980517 94 153 47 255
-0.058230 1.301967 0.701030 -0.040338 0.192249 0.980517 94 153 47 255
-0.214922 1.392289 0.676875 -0.040338 0.192249 0.980517 94 153 47 255
-0.282388 1.078429 0.237039 -0.011061 0.481137 -0.876576 94 153 47 255
-0.083992 1.279773 0.345049 -0.011061 0.481137 -0.876576 94 153 47 255
-0.082966 0.969314 0.174631 -0.011061 0.481137 -0.876576 94 153 47 255
-0.083992 1.279773 0.345049 0.729630 0.330912 -0.598445 94 153 47 255
0.049941 1.045271 0.378674 0.729630 0.330912 -0.598445 94 153 47 255
-0.082966 0.969314 0.174631 0.729630 0.330912 -0.598445 94 153 47 255
-0.083992 1.279773 0.345049 0.851461 0.515962 -0.093789 94 153 47 255
-0.139703 1.400749 0.504807 0.851461 0.515962 -0.093789 94 153 47 255
-0.058230 1.301967 0.701030 0.851461 0.515962 -0.093789 94 153 47 255
-0.083992 1.279773 0.345049 0.771081 0.629601 -0.095057 94 153 47 255
-0.058230 1.301967 0.701030 0.771081 0.629601 -0.095057 94 153 47 255
0.051219 1.150740 0.587214 0.771081 0.629601 -0.095057 94 153 47 255
-0.345713 1.181899 0.354959 -0.412307 0.746097 -0.522822 94 153 47 255
-0.328421 1.323177 0.542934 -0.412307 0.746097 -0.522822 94 153 47 255
-0.139703 1.400749 0.504807 -0.412307 0.746097 -0.522822 94 153 47 255
-0.345713 1.181899 0.354959 -0.290288 0.711452 -0.639975 94 153 47 255
-0.139703 1.400749 0.504807 -0.290288 0.711452 -0.639975 94 153 47 255
-0.083992 1.279773 0.345049 -0.290288 0.711452 -0.639975 94 153 47 255
-0.139703 1.400749 0.504807 -0.399303 0.907565 -0.129932 94 153 47 255
-0.328421 1.323177 0.542934 -0.399303 0.907565 -0.129932 94 153 47 255
-0.214922 1.392289 0.676875 -0.399303 0.907565 -0.129932 94 153 47 255
-0.139703 1.400749 0.504807 0.456380 0.856354 0.241611 94 153 47 255
-0.214922 1.392289 0.676875 0.456380 0.856354 0.241611 94 153 47 255
-0.058230 1.301967 0.701030 0.456380 0.856354 0.241611 94 153 47 255
-0.185544 1.012328 0.513560 0.244314 -0.949988 0.194507 94 153 47 255
-0.082966 0.969314 0.174631 0.244314 -0.949988 0.194507 94 153 47 255
0.049941 1.045271 0.378674 0.244314 -0.949988 0.194507 94 153 47 255
-0.282388 1.078429 0.237039 -0.269180 0.647632 -0.712822 94 153 47 255
-0.345713 1.181899 0.354959 -0.269180 0.647632 -0.712822 94 153 47 255
-0.083992 1.279773 0.345049 -0.269180 0.647632 -0.712822 94 153 47 255
-0.083992 1.279773 0.345049 0.858012 0.456210 -0.235983 94 153 47 255
0.051219 1.150740 0.587214 0.858012 0.456210 -0.235983 94 153 47 255
0.049941 1.045271 0.378674 0.858012 0.456210 -0.235983 94 153 47 255
-0.345713 1.181899 0.354959 -0.776813 -0.617304 0.124492 94 153 47 255
-0.282388 1.078429 0.237039 -0.776813 -0.617304 0.124492 94 153 47 255
-0.185544 1.012328 0.513560 -0.776813 -0.617304 0.124492 94 153 47 255
0.167012 1.242977 0.323359 -0.026765 -0.888851 0.457413 94 153 47 255
0.169839 1.147127 0.137266 -0.026765 -0.888851 0.457413 94 153 47 255
0.414254 1.225867 0.304577 -0.026765 -0.888851 0.457413 94 153 47 255
0.414254 1.225867 0.304577 0.479867 -0.876575 -0.036651 94 153 47 255
0.378549 1.215631 0.081918 0.479867 -0.876575 -0.036651 94 153 47 255
0.554559 1.309596 0.139041 0.479867 -0.876575 -0.036651 94 153 47 255
0.414254 1.225867 0.304577 0.721575 -0.626474 0.294719 94 153 47 255
0.554559 1.309596 0.139041 0.721575 -0.626474 0.294719 94 153 47 255
0.619866 1.443431 0.263634 0.721575 -0.626474 0.294719 94 153 47 255
0.414254 1.225867 0.304577 0.722005 -0.690521 -0.043462 94 153 47 255
0.619866 1.443431 0.263634 0.722005 -0.690521 -0.043462 94 153 47 255
0.533248 1.344504 0.396441 0.722005 -0.690521 -0.043462 94 153 47 255
0.248687 1.334670 0.409927 0.058391 -0.647149 0.760124 94 153 47 255
0.414254 1.225867 0.304577 0.058391 -0.647149 0.760124 94 153 47 255
0.533248 1.344504 0.396441 0.058391 -0.647149 0.760124 94 153 47 255
0.248687 1.334670 0.409927 0.056506 -0.355659 0.932906 94 153 47 255
0.533248 1.344504 0.396441 0.056506 -0.355659 0.932906 94 153 47 255
0.411659 1.460498 0.448026 0.056506 -0.355659 0.932906 94 153 47 255
0.533248 1.344504 0.396441 0.380073 -0.012909 0.924866 94 153 47 255
0.555864 1.522712 0.389634 0.380073 -0.012909 0.924866 94 153 47 255
0.411659 1.460498 0.448026 0.380073 -0.012909 0.924866 94 153 47 255
0.533248 1.344504 0.396441 0.863703 -0.090674 0.495777 94 153 47 255
0.619866 1.443431 0.263634 0.863703 -0.090674 0.495777 94 153 47 255
0.555864 1.522712 0.389634 0.863703 -0.090674 0.495777 94 153 47 255
0.248687 1.334670 0.409927 0.011275 -0.303125 0.952884 94 153 47 255
0.411659 1.460498 0.448026 0.011275 -0.303125 0.952884 94 153 47 255
0.236521 1.577205 0.487225 0.011275 -0.303125 0.952884 94 153 47 255
0.248687 1.334670 0.409927 0.264714 -0.280746 0.922555 94 153 47 255
0.236521 1.577205 0.487225 0.264714 -0.280746 0.922555 94 153 47 255
0.111015 1.415537 0.474039 0.264714 -0.280746 0.922555 94 153 47 255
0.167012 1.242977 0.323359 -0.043496 -0.665088 0.745497 94 153 47 255
0.248687 1.334670 0.409927 -0.043496 -0.665088 0.745497 94 153 47 255
0.111015 1.415537 0.474039 -0.043496 -0.665088 0.745497 94 153 47 255
0.167012 1.242977 0.323359 -0.771533 -0.541692 0.333625 94 153 47 255
0.111015 1.415537 0.474039 -0.771533 -0.541692 0.333625 94 153 47 255
0.102360 1.308045 0.279494 -0.771533 -0.541692 0.333625 94 153 47 255
0.411659 1.460498 0.448026 0.163389 0.446830 0.879572 94 153 47 255
0.555864 1.522712 0.389634 0.163389 0.446830 0.879572 94 153 47 255
0.353405 1.717340 0.328370 0.163389 0.446830 0.879572 94 153 47 255
0.411659 1.460498 0.448026 0.473534 0.457918 0.752380 94 153 47 255
0.353405 1.717340 0.328370 0.473534 0.457918 0.752380 94 153 47 255
0.236521 1.577205 0.487225 0.473534 0.457918 0.752380 94 153 47 255
0.554559 1.309596 0.139041 0.454986 -0.356063 -0.816215 94 153 47 255
0.378549 1.215631 0.081918 0.454986 -0.356063 -0.816215 94 153 47 255
0.361888 1.334259 0.020880 0.454986 -0.356063 -0.816215 94 153 47 255
0.554559 1.309596 0.139041 0.497500 -0.179510 -0.848687 94 153 47 255
0.361888 1.334259 0.020880 0.497500 -0.179510 -0.848687 94 153 47 255
0.577852 1.509789 0.110351 0.497500 -0.179510 -0.848687 94 153 47 255
0.555864 1.522712 0.389634 0.911931 0.311303 0.267343 94 153 47 255
0.619866 1.443431 0.263634 0.911931 0.311303 0.267343 94 153 47 255
0.559330 1.675778 0.199577 0.911931 0.311303 0.267343 94 153 47 255
0.555864 1.522712 0.389634 0.483465 0.677427 0.554395 94 153 47 255
0.559330 1.675778 0.199577 0.483465 0.677427 0.554395 94 153 47 255
0.353405 1.717340 0.328370 0.483465 0.677427 0.554395 94 153 47 255
0.378549 1.215631 0.081918 -0.345748 0.349963 -0.870623 94 153 47 255
0.169839 1.147127 0.137266 -0.345748 0.349963 -0.870623 94 153 47 255
0.229008 1.279783 0.167092 -0.345748 0.349963 -0.870623 94 153 47 255
0.378549 1.215631 0.081918 -0.579297 -0.435791 -0.688840 94 153 47 255
0.229008 1.279783 0.167092 -0.579297 -0.435791 -0.688840 94 153 47 255
0.361888 1.334259 0.020880 -0.579297 -0.435791 -0.688840 94 153 47 255
0.414254 1.225867 0.304577 0.310395 -0.950588 -0.006072 94 153 47 255
0.169839 1.147127 0.137266 0.310395 -0.950588 -0.006072 94 153 47 255
0.378549 1.215631 0.081918 0.310395 -0.950588 -0.006072 94 153 47 255
0.619866 1.443431 0.263634 0.933644 -0.154916 -0.322972 94 153 47 255
0.554559 1.309596 0.139041 0.933644 -0.154916 -0.322972 94 153 47 255
0.577852 1.509789 0.110351 0.933644 -0.154916 -0.322972 94 153 47 255
0.619866 1.443431 0.263634 0.963291 0.202335 -0.176438 94 153 47 255
0.577852 1.509789 0.110351 0.963291 0.202335 -0.176438 94 153 47 255
0.559330 1.675778 0.199577 0.963291 0.202335 -0.176438 94 153 47 255
0.169839 1.147127 0.137266 -0.865444 0.439922 -0.239738 94 153 47 255
0.167012 1.242977 0.323359 -0.865444 0.439922 -0.239738 94 153 47 255
0.229008 1.279783 0.167092 -0.865444 0.439922 -0.239738 94 153 47 255
0.167012 1.242977 0.323359 -0.512350 -0.768058 -0.384168 94 153 47 255
0.102360 1.308045 0.279494 -0.512350 -0.768058 -0.384168 94 153 47 255
0.229008 1.279783 0.167092 -0.512350 -0.768058 -0.384168 94 153 47 255
0.248687 1.334670 0.409927 0.007248 -0.689884 0.723884 94 153 47 255
0.167012 1.242977 0.323359 0.007248 -0.689884 0.723884 94 153 47 255
0.414254 1.225867 0.304577 0.007248 -0.689884 0.723884 94 153 47 255
0.091803 1.291700 0.075972 0.106166 -0.938053 -0.329827 94 153 47 255
0.013093 1.369980 -0.171997 0.106166 -0.938053 -0.329827 94 153 47 255
0.239945 1.396970 -0.175738 0.106166 -0.938053 -0.329827 94 153 47 255
0.013093 1.369980 -0.171997 -0.160378 -0.954743 -0.250490 94 153 47 255
0.091803 1.291700 0.075972 -0.160378 -0.954743 -0.250490 94 153 47 255
-0.184709 1.341164 0.064481 -0.160378 -0.954743 -0.250490 94 153 47 255
-0.184709 1.341164 0.064481 -0.180227 -0.970969 0.157280 94 153 47 255
0.091803 1.291700 0.075972 -0.180227 -0.970969 0.157280 94 153 47 255
-0.010827 1.340838 0.261722 -0.180227 -0.970969 0.157280 94 153 47 255
-0.010827 1.340838 0.261722 -0.290346 -0.952531 0.091560 94 153 47 255
0.091803 1.291700 0.075972 -0.290346 -0.952531 0.091560 94 153 47 255
0.102360 1.308045 0.279494 -0.290346 -0.952531 0.091560 94 153 47 255
0.091803 1.291700 0.075972 -0.143146 -0.985905 0.086605 94 153 47 255
0.229008 1.279783 0.167092 -0.143146 -0.985905 0.086605 94 153 47 255
0.102360 1.308045 0.279494 -0.143146 -0.985905 0.086605 94 153 47 255
0.361888 1.334259 0.020880 0.076799 -0.935128 -0.345887 94 153 47 255
0.091803 1.291700 0.075972 0.076799 -0.935128 -0.345887 94 153 47 255
0.239945 1.396970 -0.175738 0.076799 -0.935128 -0.345887 94 153 47 255
-0.184709 1.341164 0.064481 -0.198326 -0.964704 0.173246 94 153 47 255
-0.010827 1.340838 0.261722 -0.198326 -0.964704 0.173246 94 153 47 255
-0.129311 1.397859 0.443603 -0.198326 -0.964704 0.173246 94 153 47 255
-0.184709 1.341164 0.064481 -0.676289 -0.707639 0.204645 94 153 47 255
-0.129311 1.397859 0.443603 -0.676289 -0.707639 0.204645 94 153 47 255
-0.365493 1.502280 0.024169 -0.676289 -0.707639 0.204645 94 153 47 255
-0.010827 1.340838 0.261722 -0.312918 -0.825362 0.469957 94 153 47 255
0.102360 1.308045 0.279494 -0.312918 -0.825362 0.469957 94 153 47 255
0.111015 1.415537 0.474039 -0.312918 -0.825362 0.469957 94 153 47 255
-0.010827 1.340838 0.261722 0.029649 -0.948111 0.316555 94 153 47 255
0.111015 1.415537 0.474039 0.029649 -0.948111 0.316555 94 153 47 255
-0.129311 1.397859 0.443603 0.029649 -0.948111 0.316555 94 153 47 255
0.361888 1.334259 0.020880 0.583884 -0.595300 -0.551994 94 153 47 255
0.239945 1.396970 -0.175738 0.583884 -0.595300 -0.551994 94 153 47 255
0.424791 1.591406 -0.189904 0.583884 -0.595300 -0.551994 94 153 47 255
0.361888 1.334259 0.020880 0.662792 -0.564969 -0.491443 94 153 47 255
0.424791 1.591406 -0.189904 0.662792 -0.564969 -0.491443 94 153 47 255
0.577852 1.509789 0.110351 0.662792 -0.564969 -0.491443 94 153 47 255
0.013093 1.369980 -0.171997 -0.506804 -0.695953 -0.508724 94 153 47 255
-0.184709 1.341164 0.064481 -0.506804 -0.695953 -0.508724 94 153 47 255
-0.365493 1.502280 0.024169 -0.506804 -0.695953 -0.508724 94 153 47 255
0.013093 1.369980 -0.171997 -0.529457 -0.436558 -0.727387 94 153 47 255
-0.365493 1.502280 0.024169 -0.529457 -0.436558 -0.727387 94 153 47 255
0.042255 1.656768 -0.365346 -0.529457 -0.436558 -0.727387 94 153 47 255
0.353405 1.717340 0.328370 0.530668 0.493181 0.689322 94 153 47 255
0.559330 1.675778 0.199577 0.530668 0.493181 0.689322 94 153 47 255
0.410918 1.855348 0.185356 0.530668 0.493181 0.689322 94 153 47 255
0.239945 1.396970 -0.175738 0.053244 -0.561933 -0.825467 94 153 47 255
0.013093 1.369980 -0.171997 0.053244 -0.561933 -0.825467 94 153 47 255
0.042255 1.656768 -0.365346 0.053244 -0.561933 -0.825467 94 153 47 255
0.239945 1.396970 -0.175738 0.331710 -0.378310 -0.864205 94 153 47 255
0.042255 1.656768 -0.365346 0.331710 -0.378310 -0.864205 94 153 47 255
0.424791 1.591406 -0.189904 0.331710 -0.378310 -0.864205 94 153 47 255
0.042255 1.656768 -0.365346 -0.715635 0.307169 -0.627306 94 153 47 255
-0.365493 1.502280 0.024169 -0.715635 0.307169 -0.627306 94 153 47 255
-0.342032 1.672168 0.080592 -0.715635 0.307169 -0.627306 94 153 47 255
0.042255 1.656768 -0.365346 -0.693458 0.382174 -0.610786 94 153 47 255
-0.342032 1.672168 0.080592 -0.693458 0.382174 -0.610786 94 153 47 255
0.051039 1.833285 -0.264871 -0.693458 0.382174 -0.610786 94 153 47 255
-0.365493 1.502280 0.024169 -0.851448 -0.347265 0.392994 94 153 47 255
-0.129311 1.397859 0.443603 -0.851448 -0.347265 0.392994 94 153 47 255
-0.147869 1.537820 0.527070 -0.851448 -0.347265 0.392994 94 153 47 255
-0.365493 1.502280 0.024169 -0.917606 -0.005284 0.397456 94 153 47 255
-0.147869 1.537820 0.527070 -0.917606 -0.005284 0.397456 94 153 47 255
-0.342032 1.672168 0.080592 -0.917606 -0.005284 0.397456 94 153 47 255
0.424791 1.591406 -0.189904 0.436123 0.428670 -0.791226 94 153 47 255
0.042255 1.656768 -0.365346 0.436123 0.428670 -0.791226 94 153 47 255
0.051039 1.833285 -0.264871 0.436123 0.428670 -0.791226 94 153 47 255
0.424791 1.591406 -0.189904 0.360400 0.281238 -0.889391 94 153 47 255
0.051039 1.833285 -0.264871 0.360400 0.281238 -0.889391 94 153 47 255
0.378308 1.773635 -0.151117 0.360400 0.281238 -0.889391 94 153 47 255
0.577852 1.509789 0.110351 0.879949 0.302440 -0.366360 94 153 47 255
0.424791 1.591406 -0.189904 0.879949 0.302440 -0.366360 94 153 47 255
0.378308 1.773635 -0.151117 0.879949 0.302440 -0.366360 94 153 47 255
0.577852 1.509789 0.110351 0.879649 0.297597 -0.371017 94 153 47 255
0.378308 1.773635 -0.151117 0.879649 0.297597 -0.371017 94 153 47 255
0.559330 1.675778 0.199577 0.879649 0.297597 -0.371017 94 153 47 255
-0.129311 1.397859 0.443603 -0.126898 0.017625 0.991759 94 153 47 255
0.111015 1.415537 0.474039 -0.126898 0.017625 0.991759 94 153 47 255
0.236521 1.577205 0.487225 -0.126898 0.017625 0.991759 94 153 47 255
-0.129311 1.397859 0.443603 0.139553 -0.493472 0.858493 94 153 47 255
0.236521 1.577205 0.487225 0.139553 -0.493472 0.858493 94 153 47 255
-0.147869 1.537820 0.527070 0.139553 -0.493472 0.858493 94 153 47 255
0.153905 1.761951 0.410771 0.423695 0.501599 0.754242 94 153 47 255
0.236521 1.577205 0.487225 0.423695 0.501599 0.754242 94 153 47 255
0.353405 1.717340 0.328370 0.423695 0.501599 0.754242 94 153 47 255
0.051039 1.833285 -0.264871 -0.605645 0.710870 -0.357573 94 153 47 255
-0.342032 1.672168 0.080592 -0.605645 0.710870 -0.357573 94 153 47 255
-0.199958 1.817014 0.127912 -0.605645 0.710870 -0.357573 94 153 47 255
0.051039 1.833285 -0.264871 -0.698587 0.577475 -0.422491 94 153 47 255
-0.199958 1.817014 0.127912 -0.698587 0.577475 -0.422491 94 153 47 255
0.066374 1.965761 -0.109155 -0.698587 0.577475 -0.422491 94 153 47 255
-0.147869 1.537820 0.527070 0.053537 0.402179 0.913994 94 153 47 255
0.236521 1.577205 0.487225 0.053537 0.402179 0.913994 94 153 47 255
0.153905 1.761951 0.410771 0.053537 0.402179 0.913994 94 153 47 255
-0.147869 1.537820 0.527070 -0.019473 0.481021 0.876493 94 153 47 255
0.153905 1.761951 0.410771 -0.019473 0.481021 0.876493 94 153 47 255
-0.070961 1.727756 0.424541 -0.019473 0.481021 0.876493 94 153 47 255
0.559330 1.675778 0.199577 0.749292 0.627499 -0.211674 94 153 47 255
0.378308 1.773635 -0.151117 0.749292 0.627499 -0.211674 94 153 47 255
0.283803 1.926131 -0.033580 0.749292 0.627499 -0.211674 94 153 47 255
0.559330 1.675778 0.199577 0.756997 0.606362 -0.243475 94 153 47 255
0.283803 1.926131 -0.033580 0.756997 0.606362 -0.243475 94 153 47 255
0.410918 1.855348 0.185356 0.756997 0.606362 -0.243475 94 153 47 255
0.378308 1.773635 -0.151117 0.345326 0.697744 -0.627617 94 153 47 255
0.051039 1.833285 -0.264871 0.345326 0.697744 -0.627617 94 153 47 255
0.066374 1.965761 -0.109155 0.345326 0.697744 -0.627617 94 153 47 255
0.378308 1.773635 -0.151117 0.345326 0.697743 -0.627618 94 153 47 255
0.066374 1.965761 -0.109155 0.345326 0.697743 -0.627618 94 153 47 255
0.283803 1.926131 -0.033580 0.345326 0.697743 -0.627618 94 153 47 255
-0.342032 1.672168 0.080592 -0.702719 0.536673 0.467085 94 153 47 255
-0.147869 1.537820 0.527070 -0.702719 0.536673 0.467085 94 153 47 255
-0.070961 1.727756 0.424541 -0.702719 0.536673 0.467085 94 153 47 255
-0.342032 1.672168 0.080592 -0.702720 0.536672 0.467085 94 153 47 255
-0.070961 1.727756 0.424541 -0.702720 0.536672 0.467085 94 153 47 255
-0.199958 1.817014 0.127912 -0.702720 0.536672 0.467085 94 153 47 255
0.353405 1.717340 0.328370 0.419925 0.562807 0.711977 94 153 47 255
0.410918 1.855348 0.185356 0.419925 0.562807 0.711977 94 153 47 255
0.153905 1.761951 0.410771 0.419925 0.562807 0.711977 94 153 47 255
0.283803 1.926131 -0.033580 0.244527 0.947348 -0.206734 94 153 47 255
0.066374 1.965761 -0.109155 0.244527 0.947348 -0.206734 94 153 47 255
0.089239 1.997946 0.065377 0.244527 0.947348 -0.206734 94 153 47 255
-0.199958 1.817014 0.127912 -0.556710 0.697067 0.451853 94 153 47 255
-0.070961 1.727756 0.424541 -0.556710 0.697067 0.451853 94 153 47 255
0.017348 1.923511 0.231356 -0.556710 0.697067 0.451853 94 153 47 255
0.153905 1.761951 0.410771 0.456421 0.507649 0.730734 94 153 47 255
0.410918 1.855348 0.185356 0.456421 0.507649 0.730734 94 153 47 255
0.202762 1.922221 0.268914 0.456421 0.507649 0.730734 94 153 47 255
0.066374 1.965761 -0.109155 -0.456637 0.888539 0.044502 94 153 47 255
-0.199958 1.817014 0.127912 -0.456637 0.888539 0.044502 94 153 47 255
0.017348 1.923511 0.231356 -0.456637 0.888539 0.044502 94 153 47 255
0.066374 1.965761 -0.109155 -0.746245 0.665206 -0.024906 94 153 47 255
0.017348 1.923511 0.231356 -0.746245 0.665206 -0.024906 94 153 47 255
0.089239 1.997946 0.065377 -0.746245 0.665206 -0.024906 94 153 47 255
-0.070961 1.727756 0.424541 -0.056843 0.671373 0.738936 94 153 47 255
0.153905 1.761951 0.410771 -0.056843 0.671373 0.738936 94 153 47 255
0.202762 1.922221 0.268914 -0.056843 0.671373 0.738936 94 153 47 255
-0.070961 1.727756 0.424541 -0.131723 0.725771 0.675208 94 153 47 255
0.202762 1.922221 0.268914 -0.131723 0.725771 0.675208 94 153 47 255
0.017348 1.923511 0.231356 -0.131723 0.725771 0.675208 94 153 47 255
0.410918 1.855348 0.185356 0.379715 0.921845 0.077575 94 153 47 255
0.283803 1.926131 -0.033580 0.379715 0.921845 0.077575 94 153 47 255
0.089239 1.997946 0.065377 0.379715 0.921845 0.077575 94 153 47 255
0.410918 1.855348 0.185356 0.355081 0.923440 0.145516 94 153 47 255
0.089239 1.997946 0.065377 0.355081 0.923440 0.145516 94 153 47 255
0.202762 1.922221 0.268914 0.355081 0.923440 0.145516 94 153 47 255
0.017348 1.923511 0.231356 -0.071046 0.921269 0.382381 94 153 47 255
0.202762 1.922221 0.268914 -0.071046 0.921269 0.382381 94 153 47 255
0.089239 1.997946 0.065377 -0.071046 0.921269 0.382381 94 153 47 255
0.091803 1.291700 0.075972 0.095948 -0.958130 -0.269781 94 153 47 255
0.361888 1.334259 0.020880 0.095948 -0.958130 -0.269781 94 153 47 255
0.229008 1.279783 0.167092 0.095948 -0.958130 -0.269781 94 153 47 255
-0.191896 1.343914 0.412827 -0.802990 -0.253039 0.539609 245 60 49 255
-0.222062 1.264942 0.330905 -0.802990 -0.253039 0.539609 245 60 49 255
-0.153672 1.249613 0.425486 -0.802990 -0.253039 0.539609 245 60 49 255
-0.153672 1.249613 0.425486 0.430408 -0.788664 -0.439041 245 60 49 255
-0.222062 1.264942 0.330905 0.430408 -0.788664 -0.439041 245 60 49 255
-0.115851 1.310890 0.352489 0.430408 -0.788664 -0.439041 245 60 49 255
-0.115851 1.310890 0.352489 -0.189552 0.740850 -0.644369 245 60 49 255
-0.222062 1.264942 0.330905 -0.189552 0.740850 -0.644369 245 60 49 255
-0.191896 1.343914 0.412827 -0.189552 0.740850 -0.644369 245 60 49 255
-0.191896 1.343914 0.412827 0.670813 0.359017 0.648935 245 60 49 255
-0.153672 1.249613 0.425486 0.670813 0.359017 0.648935 245 60 49 255
-0.115851 1.310890 0.352489 0.670813 0.359017 0.648935 245 60 49 255
-0.136399 1.318806 0.735686 0.733556 -0.342399 0.587076 245 60 49 255
-0.095633 1.253477 0.646647 0.733556 -0.342399 0.587076 245 60 49 255
-0.066957 1.364002 0.675278 0.733556 -0.342399 0.587076 245 60 49 255
-0.066957 1.364002 0.675278 0.305181 0.163828 -0.938097 245 60 49 255
-0.095633 1.253477 0.646647 0.305181 0.163828 -0.938097 245 60 49 255
-0.162810 1.350017 0.641653 0.305181 0.163828 -0.938097 245 60 49 255
-0.162810 1.350017 0.641653 -0.821127 -0.569220 0.041699 245 60 49 255
-0.095633 1.253477 0.646647 -0.821127 -0.569220 0.041699 245 60 49 255
-0.136399 1.318806 0.735686 -0.821127 -0.569220 0.041699 245 60 49 255
-0.136399 1.318806 0.735686 -0.259681 0.892364 0.369124 245 60 49 255
-0.066957 1.364002 0.675278 -0.259681 0.892364 0.369124 245 60 49 255
-0.162810 1.350017 0.641653 -0.259681 0.892364 0.369124 245 60 49 255
0.271137 1.411756 0.460020 -0.072779 -0.179533 0.981056 245 60 49 255
0.347893 1.323125 0.449494 -0.072779 -0.179533 0.981056 245 60 49 255
0.369914 1.436577 0.471890 -0.072779 -0.179533 0.981056 245 60 49 255
0.369914 1.436577 0.471890 0.932836 -0.113562 -0.341936 245 60 49 255
0.347893 1.323125 0.449494 0.932836 -0.113562 -0.341936 245 60 49 255
0.333137 1.415823 0.378452 0.932836 -0.113562 -0.341936 245 60 49 255
0.333137 1.415823 0.378452 -0.669282 -0.516149 -0.534464 245 60 49 255
0.347893 1.323125 0.449494 -0.669282 -0.516149 -0.534464 245 60 49 255
0.271137 1.411756 0.460020 -0.669282 -0.516149 -0.534464 245 60 49 255
0.271137 1.411756 0.460020 -0.227658 0.965699 -0.124890 245 60 49 255
0.369914 1.436577 0.471890 -0.227658 0.965699 -0.124890 245 60 49 255
0.333137 1.415823 0.378452 -0.227658 0.965699 -0.124890 245 60 49 255
-0.047324 1.810410 -0.168875 0.582874 -0.151521 0.798310 245 60 49 255
-0.033716 1.697753 -0.200193 0.582874 -0.151521 0.798310 245 60 49 255
0.032077 1.790505 -0.230626 0.582874 -0.151521 0.798310 245 60 49 255
0.032077 1.790505 -0.230626 0.321641 -0.493329 -0.808192 245 60 49 255
-0.033716 1.697753 -0.200193 0.321641 -0.493329 -0.808192 245 60 49 255
-0.063430 1.789336 -0.267922 0.321641 -0.493329 -0.808192 245 60 49 255
-0.063430 1.789336 -0.267922 -0.966200 -0.170469 0.193384 245 60 49 255
-0.033716 1.697753 -0.200193 -0.966200 -0.170469 0.193384 245 60 49 255
-0.047324 1.810410 -0.168875 -0.966200 -0.170469 0.193384 245 60 49 255
-0.047324 1.810410 -0.168875 0.073611 0.972949 -0.218981 245 60 49 255
0.032077 1.790505 -0.230626 0.073611 0.972949 -0.218981 245 60 49 255
-0.063430 1.789336 -0.267922 0.073611 0.972949 -0.218981 245 60 49 255
0.404480 1.903259 0.195657 0.662785 -0.517246 0.541454 245 60 49 255
0.337021 1.807223 0.186491 0.662785 -0.517246 0.541454 245 60 49 255
0.423379 1.842951 0.114912 0.662785 -0.517246 0.541454 245 60 49 255
0.423379 1.842951 0.114912 -0.392550 -0.541124 -0.743700 245 60 49 255
0.337021 1.807223 0.186491 -0.392550 -0.541124 -0.743700 245 60 49 255
0.339415 1.901787 0.116422 -0.392550 -0.541124 -0.743700 245 60 49 255
0.339415 1.901787 0.116422 -0.699073 0.437044 0.565941 245 60 49 255
0.337021 1.807223 0.186491 -0.699073 0.437044 0.565941 245 60 49 255
0.404480 1.903259 0.195657 -0.699073 0.437044 0.565941 245 60 49 255
0.404480 1.903259 0.195657 0.511748 0.741450 -0.434011 245 60 49 255
0.423379 1.842951 0.114912 0.511748 0.741450 -0.434011 245 60 49 255
0.339415 1.901787 0.116422 0.511748 0.741450 -0.434011 245 60 49 255
-0.143471 1.817804 0.295251 0.249987 0.816253 0.520804 245 60 49 255
-0.033976 1.811560 0.252479 0.249987 0.816253 0.520804 245 60 49 255
-0.126759 1.868533 0.207722 0.249987 0.816253 0.520804 245 60 49 255
-0.126759 1.868533 0.207722 0.423782 -0.021201 -0.905516 245 60 49 255
-0.033976 1.811560 0.252479 0.423782 -0.021201 -0.905516 245 60 49 255
-0.132756 1.766172 0.207312 0.423782 -0.021201 -0.905516 245 60 49 255
-0.132756 1.766172 0.207312 0.152712 -0.843994 0.514154 245 60 49 255
-0.033976 1.811560 0.252479 0.152712 -0.843994 0.514154 245 60 49 255
-0.143471 1.817804 0.295251 0.152712 -0.843994 0.514154 245 60 49 255
-0.143471 1.817804 0.295251 -0.986270 0.058403 -0.154468 245 60 49 255
-0.126759 1.868533 0.207722 -0.986270 0.058403 -0.154468 245 60 49 255
-0.132756 1.766172 0.207312 -0.986270 0.058403 -0.154468 245 60 49 255
3 0 1 2
3 3 4 5
3 6 7 8
3 9 10 11
3 12 13 14
3 15 16 17
3 18 19 20
3 21 22 23
3 24 25 26
3 27 28 29
3 30 31 32
3 33 34 35
3 36 37 38
3 39 40 41
3 42 43 44
3 45 46 47
3 48 49 50
3 51 52 53
3 54 55 56
3 57 58 59
3 60 61 62
3 63 64 65
3 66 67 68
3 69 70 71
3 72 73 74
3 75 76 77
3 78 79 80
3 81 82 83
3 84 85 86
3 87 88 89
3 90 91 92
3 93 94 95
3 96 97 98
3 99 100 101
3 102 103 104
3 105 106 107
3 108 109 110
3 111 112 113
3 114 115 116
3 117 118 119
3 120 121 122
3 123 124 125
3 126 127 128
3 129 130 131
3 132 133 134
3 135 136 137
3 138 139 140
3 141 142 143
3 144 145 146
3 147 148 149
3 150 151 152
3 153 154 155
3 156 157 158
3 159 160 161
3 162 163 164
3 165 166 167
3 168 169 170
3 171 172 173
3 174 175 176
3 177 178 179
3 180 181 182
3 183 184 185
3 186 187 188
3 189 190 191
3 192 193 194
3 195 196 197
3 198 199 200
3 201 202 203
3 204 205 206
3 207 208 209
3 210 211 212
3 213 214 215
3 216 217 218
3 219 220 221
3 222 223 224
3 225 226 227
3 228 229 230
3 231 232 233
3 234 235 236
3 237 238 239
3 240 241 242
3 243 244 245
3 246 247 248
3 249 250 251
3 252 253 254
3 255 256 257
3 258 259 260
3 261 262 263
3 264 265 266
3 267 268 269
3 270 271 272
3 273 274 275
3 276 277 278
3 279 280 281
3 282 283 284
3 285 286 287
3 288 289 290
3 291 292 293
3 294 295 296
3 297 298 299
3 300 301 302
3 303 304 305
3 306 307 308
3 309 310 311
3 312 313 314
3 315 316 317
3 318 319 320
3 321 322 323
3 324 325 326
3 327 328 329
3 330 331 332
3 333 334 335
3 336 337 338
3 339 340 341
3 342 343 344
3 345 346 347
3 348 349 350
3 351 352 353
3 354 355 356
3 357 358 359
3 360 361 362
3 363 364 365
3 366 367 368
3 369 370 371
3 372 373 374
3 375 376 377
3 378 379 380
3 381 382 383
3 384 385 386
3 387 388 389
3 390 391 392
3 393 394 395
3 396 397 398
3 399 400 401
3 402 403 404
3 405 406 407
3 408 409 410
3 411 412 413
3 414 415 416
3 417 418 419
3 420 421 422
3 423 424 425
3 426 427 428
3 429 430 431
3 432 433 434
3 435 436 437
3 438 439 440
3 441 442 443
3 444 445 446
3 447 448 449
3 450 451 452
3 453 454 455
3 456 457 458
3 459 460 461
3 462 463 464
3 465 466 467
3 468 469 470
3 471 472 473
3 474 475 476
3 477 478 479
3 480 481 482
3 483 484 485
3 486 487 488
3 489 490 491
3 492 493 494
3 495 496 497
3 498 499 500
3 501 502 503
3 504 505 506
3 507 508 509
3 510 511 512
3 513 514 515
3 516 517 518
3 519 520 521
3 522 523 524
3 525 526 527
3 528 529 530
3 531 532 533
3 534 535 536
3 537 538 539
3 540 541 542
3 543 544 545
3 546 547 548
3 549 550 551
3 552 553 554
3 555 556 557
3 558 559 560
3 561 562 563
3 564 565 566
3 567 568 569
3 570 571 572
3 573 574 575
3 576 577 578
3 579 580 581
3 582 583 584
3 585 586 587
3 588 589 590
3 591 592 593
3 594 595 596
3 597 598 599
3 600 601 602
3 603 604 605
3 606 607 608
3 609 610 611
3 612 613 614
3 615 616 617
3 618 619 620
3 621 622 623
3 624 625 626
3 627 628 629
3 630 631 632
3 633 634 635
3 636 637 638
3 639 640 641
3 642 643 644
3 645 646 647
3 648 649 650
3 651 652 653
3 654 655 656
