ply
format ascii 1.0
comment Created by Blender 2.80 (sub 75) - www.blender.org, source file: 'apple_6x_loose.blend'
element vertex 72
property float x
property float y
property float z
property float nx
property float ny
property float nz
property uchar red
property uchar green
property uchar blue
property uchar alpha
element face 24
property list uchar uint vertex_indices
end_header
-0.191896 0.058488 0.412827 -0.802990 -0.253039 0.539609 245 60 49 255
-0.222062 -0.020483 0.330905 -0.802990 -0.253039 0.539609 245 60 49 255
-0.153672 -0.035813 0.425486 -0.802990 -0.253039 0.539609 245 60 49 255
-0.153672 -0.035813 0.425486 0.430409 -0.788664 -0.439042 245 60 49 255
-0.222062 -0.020483 0.330905 0.430409 -0.788664 -0.439042 245 60 49 255
-0.115851 0.025465 0.352489 0.430409 -0.788664 -0.439042 245 60 49 255
-0.115851 0.025465 0.352489 -0.189552 0.740850 -0.644368 245 60 49 255
-0.222062 -0.020483 0.330905 -0.189552 0.740850 -0.644368 245 60 49 255
-0.191896 0.058488 0.412827 -0.189552 0.740850 -0.644368 245 60 49 255
-0.191896 0.058488 0.412827 0.670813 0.359017 0.648935 245 60 49 255
-0.153672 -0.035813 0.425486 0.670813 0.359017 0.648935 245 60 49 255
-0.115851 0.025465 0.352489 0.670813 0.359017 0.648935 245 60 49 255
0.116620 -0.004574 0.420083 0.733556 -0.342399 0.587076 245 60 49 255
0.157385 -0.069904 0.331044 0.733556 -0.342399 0.587076 245 60 49 255
0.186061 0.040621 0.359675 0.733556 -0.342399 0.587076 245 60 49 255
0.186061 0.040621 0.359675 0.305181 0.163828 -0.938097 245 60 49 255
0.157385 -0.069904 0.331044 0.305181 0.163828 -0.938097 245 60 49 255
0.090208 0.026637 0.326050 0.305181 0.163828 -0.938097 245 60 49 255
0.090208 0.026637 0.326050 -0.821127 -0.569220 0.041699 245 60 49 255
0.157385 -0.069904 0.331044 -0.821127 -0.569220 0.041699 245 60 49 255
0.116620 -0.004574 0.420083 -0.821127 -0.569220 0.041699 245 60 49 255
0.116620 -0.004574 0.420083 -0.259681 0.892364 0.369125 245 60 49 255
0.186061 0.040621 0.359675 -0.259681 0.892364 0.369125 245 60 49 255
0.090208 0.026637 0.326050 -0.259681 0.892364 0.369125 245 60 49 255
0.134160 0.048467 -0.214744 -0.072779 -0.179534 0.981056 245 60 49 255
0.210916 -0.040164 -0.225269 -0.072779 -0.179534 0.981056 245 60 49 255
0.232937 0.073288 -0.202874 -0.072779 -0.179534 0.981056 245 60 49 255
0.232937 0.073288 -0.202874 0.932836 -0.113562 -0.341936 245 60 49 255
0.210916 -0.040164 -0.225269 0.932836 -0.113562 -0.341936 245 60 49 255
0.196160 0.052534 -0.296312 0.932836 -0.113562 -0.341936 245 60 49 255
0.196160 0.052534 -0.296312 -0.669282 -0.516149 -0.534464 245 60 49 255
0.210916 -0.040164 -0.225269 -0.669282 -0.516149 -0.534464 245 60 49 255
0.134160 0.048467 -0.214744 -0.669282 -0.516149 -0.534464 245 60 49 255
0.134160 0.048467 -0.214744 -0.227658 0.965699 -0.124890 245 60 49 255
0.232937 0.073288 -0.202874 -0.227658 0.965699 -0.124890 245 60 49 255
0.196160 0.052534 -0.296312 -0.227658 0.965699 -0.124890 245 60 49 255
-0.047324 0.055959 -0.168875 0.582874 -0.151521 0.798310 245 60 49 255
-0.033716 -0.056699 -0.200193 0.582874 -0.151521 0.798310 245 60 49 255
0.032077 0.036053 -0.230626 0.582874 -0.151521 0.798310 245 60 49 255
0.032077 0.036053 -0.230626 0.321640 -0.493329 -0.808192 245 60 49 255
-0.033716 -0.056699 -0.200193 0.321640 -0.493329 -0.808192 245 60 49 255
-0.063430 0.034885 -0.267922 0.321640 -0.493329 -0.808192 245 60 49 255
-0.063430 0.034885 -0.267922 -0.966200 -0.170469 0.193385 245 60 49 255
-0.033716 -0.056699 -0.200193 -0.966200 -0.170469 0.193385 245 60 49 255
-0.047324 0.055959 -0.168875 -0.966200 -0.170469 0.193385 245 60 49 255
-0.047324 0.055959 -0.168875 0.073612 0.972948 -0.218981 245 60 49 255
0.032077 0.036053 -0.230626 0.073612 0.972948 -0.218981 245 60 49 255
-0.063430 0.034885 -0.267922 0.073612 0.972948 -0.218981 245 60 49 255
0.404480 0.057237 0.133260 0.662785 -0.517246 0.541454 245 60 49 255
0.337021 -0.038799 0.124094 0.662785 -0.517246 0.541454 245 60 49 255
0.423379 -0.003071 0.052515 0.662785 -0.517246 0.541454 245 60 49 255
0.423379 -0.003071 0.052515 -0.392550 -0.541124 -0.743700 245 60 49 255
0.337021 -0.038799 0.124094 -0.392550 -0.541124 -0.743700 245 60 49 255
0.339415 0.055765 0.054025 -0.392550 -0.541124 -0.743700 245 60 49 255
0.339415 0.055765 0.054025 -0.699073 0.437044 0.565941 245 60 49 255
0.337021 -0.038799 0.124094 -0.699073 0.437044 0.565941 245 60 49 255
0.404480 0.057237 0.133260 -0.699073 0.437044 0.565941 245 60 49 255
0.404480 0.057237 0.133260 0.511748 0.741450 -0.434012 245 60 49 255
0.423379 -0.003071 0.052515 0.511748 0.741450 -0.434012 245 60 49 255
0.339415 0.055765 0.054025 0.511748 0.741450 -0.434012 245 60 49 255
-0.357802 0.006491 0.295251 0.249987 0.816253 0.520804 245 60 49 255
-0.248306 0.000247 0.252479 0.249987 0.816253 0.520804 245 60 49 255
-0.341089 0.057219 0.207722 0.249987 0.816253 0.520804 245 60 49 255
-0.341089 0.057219 0.207722 0.423782 -0.021201 -0.905516 245 60 49 255
-0.248306 0.000247 0.252479 0.423782 -0.021201 -0.905516 245 60 49 255
-0.347086 -0.045142 0.207312 0.423782 -0.021201 -0.905516 245 60 49 255
-0.347086 -0.045142 0.207312 0.152712 -0.843994 0.514153 245 60 49 255
-0.248306 0.000247 0.252479 0.152712 -0.843994 0.514153 245 60 49 255
-0.357802 0.006491 0.295251 0.152712 -0.843994 0.514153 245 60 49 255
-0.357802 0.006491 0.295251 -0.986270 0.058403 -0.154468 245 60 49 255
-0.341089 0.057219 0.207722 -0.986270 0.058403 -0.154468 245 60 49 255
-0.347086 -0.045142 0.207312 -0.986270 0.058403 -0.154468 245 60 49 255
3 0 1 2
3 3 4 5
3 6 7 8
3 9 10 11
3 12 13 14
3 15 16 17
3 18 19 20
3 21 22 23
3 24 25 26
3 27 28 29
3 30 31 32
3 33 34 35
3 36 37 38
3 39 40 41
3 42 43 44
3 45 46 47
3 48 49 50
3 51 52 53
3 54 55 56
3 57 58 59
3 60 61 62
3 63 64 65
3 66 67 68
3 69 70 71
