ply
format ascii 1.0
comment Created by Blender 2.83.0 - www.blender.org, source file: 'apple_tree_mature.blend'
element vertex 435
property float x
property float y
property float z
property float nx
property float ny
property float nz
property uchar red
property uchar green
property uchar blue
property uchar alpha
element face 120
property list uchar uint vertex_indices
end_header
-0.068959 0.238663 0.207265 0.537725 0.050684 0.841595 135 106 52 255
0.135460 0.238687 0.120738 0.537725 0.050684 0.841595 135 106 52 255
0.139344 0.588651 0.053095 0.537725 0.050684 0.841595 135 106 52 255
-0.007818 0.586078 0.191362 0.537725 0.050684 0.841595 135 106 52 255
0.186744 -0.045091 0.157143 0.407178 0.209913 0.888900 135 106 52 255
0.135460 0.238687 0.120738 0.407178 0.209913 0.888900 135 106 52 255
-0.068959 0.238663 0.207265 0.407178 0.209913 0.888900 135 106 52 255
-0.059714 -0.045114 0.277161 0.407178 0.209913 0.888900 136 108 56 255
-0.218845 -0.045114 0.064667 -0.900234 0.110008 -0.421279 135 106 52 255
-0.209600 0.238663 0.043806 -0.900234 0.110008 -0.421279 135 106 52 255
-0.095973 0.238663 -0.123797 -0.900234 0.110008 -0.421279 135 106 52 255
-0.155676 -0.045116 -0.145527 -0.900234 0.110008 -0.421279 135 106 52 255
-0.059714 -0.045114 0.277161 -0.778016 0.099202 0.620363 136 108 56 255
-0.068959 0.238663 0.207265 -0.778016 0.099202 0.620363 135 106 52 255
-0.209600 0.238663 0.043806 -0.778016 0.099202 0.620363 135 106 52 255
-0.218845 -0.045114 0.064667 -0.778016 0.099202 0.620363 135 106 52 255
0.092210 -0.045089 -0.156584 0.959766 0.107307 -0.259489 136 107 55 255
0.080744 0.238687 -0.117564 0.959766 0.107307 -0.259489 135 106 52 255
0.135460 0.238687 0.120738 0.959766 0.107307 -0.259489 135 106 52 255
0.186744 -0.045091 0.157143 0.959766 0.107307 -0.259489 135 106 52 255
-0.155676 -0.045116 -0.145527 -0.011307 0.107374 -0.994154 135 106 52 255
-0.095973 0.238663 -0.123797 -0.011307 0.107374 -0.994154 135 106 52 255
0.080744 0.238687 -0.117564 -0.011307 0.107374 -0.994154 135 106 52 255
0.092210 -0.045089 -0.156584 -0.011307 0.107374 -0.994154 136 107 55 255
-0.132305 0.541619 -0.080373 -0.996079 -0.052116 -0.071487 135 106 52 255
-0.177456 0.555596 0.097673 -0.996079 -0.052116 -0.071487 135 106 52 255
-0.163635 0.907742 0.089256 -0.996079 -0.052116 -0.071487 135 106 52 255
-0.183178 0.882439 -0.060866 -0.996079 -0.052116 -0.071487 171 117 63 255
-0.209600 0.238663 0.043806 -0.640108 0.046057 0.766903 135 106 52 255
-0.068959 0.238663 0.207265 -0.640108 0.046057 0.766903 135 106 52 255
-0.007818 0.586078 0.191362 -0.640108 0.046057 0.766903 135 106 52 255
-0.177456 0.555596 0.097673 -0.640108 0.046057 0.766903 135 106 52 255
-0.095973 0.238663 -0.123797 -0.906179 0.059588 -0.418674 135 106 52 255
-0.209600 0.238663 0.043806 -0.906179 0.059588 -0.418674 135 106 52 255
-0.177456 0.555596 0.097673 -0.906179 0.059588 -0.418674 135 106 52 255
-0.132305 0.541619 -0.080373 -0.906179 0.059588 -0.418674 135 106 52 255
0.135460 0.238687 0.120738 0.923074 0.032331 -0.383261 135 106 52 255
0.080744 0.238687 -0.117564 0.923074 0.032331 -0.383261 135 106 52 255
0.019765 0.554285 -0.131288 0.923074 0.032331 -0.383261 135 106 52 255
0.139344 0.588651 0.053095 0.923074 0.032331 -0.383261 135 106 52 255
0.080744 0.238687 -0.117564 -0.135611 0.026219 -0.990415 135 106 52 255
-0.095973 0.238663 -0.123797 -0.135611 0.026219 -0.990415 135 106 52 255
-0.132305 0.541619 -0.080373 -0.135611 0.026219 -0.990415 135 106 52 255
0.019765 0.554285 -0.131288 -0.135611 0.026219 -0.990415 135 106 52 255
-0.080515 0.882164 -0.147041 -0.697619 -0.096053 -0.710001 173 119 65 255
-0.183178 0.882439 -0.060866 -0.697619 -0.096053 -0.710001 171 117 63 255
-0.194085 1.144324 -0.070917 -0.697619 -0.096053 -0.710001 173 119 65 255
-0.129209 1.148705 -0.149916 -0.697619 -0.096053 -0.710001 173 119 65 255
-0.007818 0.586078 0.191362 0.780273 0.230937 0.581242 135 106 52 255
0.139344 0.588651 0.053095 0.780273 0.230937 0.581242 135 106 52 255
0.069117 0.916664 -0.043264 0.780273 0.230937 0.581242 135 106 52 255
-0.002908 0.930704 0.108155 0.780273 0.230937 0.581242 135 106 52 255
0.019765 0.554285 -0.131288 -0.467681 -0.100784 -0.878133 135 106 52 255
-0.132305 0.541619 -0.080373 -0.467681 -0.100784 -0.878133 135 106 52 255
-0.183178 0.882439 -0.060866 -0.467681 -0.100784 -0.878133 171 117 63 255
-0.080515 0.882164 -0.147041 -0.467681 -0.100784 -0.878133 173 119 65 255
0.139344 0.588651 0.053095 0.720632 0.069425 -0.689834 135 106 52 255
0.019765 0.554285 -0.131288 0.720632 0.069425 -0.689834 135 106 52 255
-0.080515 0.882164 -0.147041 0.720632 0.069425 -0.689834 173 119 65 255
0.069117 0.916664 -0.043264 0.720632 0.069425 -0.689834 135 106 52 255
-0.177456 0.555596 0.097673 -0.338783 0.131612 0.931614 135 106 52 255
-0.007818 0.586078 0.191362 -0.338783 0.131612 0.931614 135 106 52 255
-0.002908 0.930704 0.108155 -0.338783 0.131612 0.931614 135 106 52 255
-0.163635 0.907742 0.089256 -0.338783 0.131612 0.931614 135 106 52 255
-0.156935 1.143018 0.040197 0.046209 0.243904 0.968698 135 106 52 255
-0.032461 1.147881 0.033034 0.046209 0.243904 0.968698 158 114 60 255
-0.105456 1.410441 -0.029592 0.046209 0.243904 0.968698 173 119 65 255
0.069117 0.916664 -0.043264 0.500627 0.030245 -0.865134 135 106 52 255
-0.080515 0.882164 -0.147041 0.500627 0.030245 -0.865134 173 119 65 255
-0.129209 1.148705 -0.149916 0.500627 0.030245 -0.865134 173 119 65 255
-0.000492 1.152127 -0.091296 0.500627 0.030245 -0.865134 173 119 65 255
-0.163635 0.907742 0.089256 -0.065102 0.261051 0.963127 135 106 52 255
-0.002908 0.930704 0.108155 -0.065102 0.261051 0.963127 135 106 52 255
-0.032461 1.147881 0.033034 -0.065102 0.261051 0.963127 158 114 60 255
-0.156935 1.143018 0.040197 -0.065102 0.261051 0.963127 135 106 52 255
-0.183178 0.882439 -0.060866 -0.977432 0.016767 0.210584 171 117 63 255
-0.163635 0.907742 0.089256 -0.977432 0.016767 0.210584 135 106 52 255
-0.156935 1.143018 0.040197 -0.977432 0.016767 0.210584 135 106 52 255
-0.194085 1.144324 -0.070917 -0.977432 0.016767 0.210584 173 119 65 255
-0.002908 0.930704 0.108155 0.899723 0.286653 0.329134 135 106 52 255
0.069117 0.916664 -0.043264 0.899723 0.286653 0.329134 135 106 52 255
-0.000492 1.152127 -0.091296 0.899723 0.286653 0.329134 173 119 65 255
-0.032461 1.147881 0.033034 0.899723 0.286653 0.329134 158 114 60 255
-0.156238 1.384629 -0.124087 -0.887633 0.139367 0.438958 173 119 65 255
-0.105456 1.410441 -0.029592 -0.887633 0.139367 0.438958 173 119 65 255
-0.107346 1.662885 -0.113564 -0.887633 0.139367 0.438958 138 106 52 255
-0.194085 1.144324 -0.070917 -0.901648 0.244944 0.356418 173 119 65 255
-0.156935 1.143018 0.040197 -0.901648 0.244944 0.356418 135 106 52 255
-0.105456 1.410441 -0.029592 -0.901648 0.244944 0.356418 173 119 65 255
-0.156238 1.384629 -0.124087 -0.901648 0.244944 0.356418 173 119 65 255
-0.032461 1.147881 0.033034 0.890499 0.275322 0.362228 158 114 60 255
-0.000492 1.152127 -0.091296 0.890499 0.275322 0.362228 173 119 65 255
-0.045601 1.388396 -0.117472 0.890499 0.275322 0.362228 173 119 65 255
-0.105456 1.410441 -0.029592 0.890499 0.275322 0.362228 173 119 65 255
-0.129209 1.148705 -0.149916 -0.772146 -0.018924 -0.635163 173 119 65 255
-0.194085 1.144324 -0.070917 -0.772146 -0.018924 -0.635163 173 119 65 255
-0.156238 1.384629 -0.124087 -0.772146 -0.018924 -0.635163 173 119 65 255
-0.000492 1.152127 -0.091296 0.261657 0.039268 -0.964362 173 119 65 255
-0.129209 1.148705 -0.149916 0.261657 0.039268 -0.964362 173 119 65 255
-0.156238 1.384629 -0.124087 0.261657 0.039268 -0.964362 173 119 65 255
-0.045601 1.388396 -0.117472 0.261657 0.039268 -0.964362 173 119 65 255
-0.095716 1.026796 -0.114713 0.867979 -0.130633 0.479112 173 119 65 255
-0.105064 1.112940 -0.074288 0.867979 -0.130633 0.479112 168 118 64 255
-0.148159 1.091159 -0.002150 0.867979 -0.130633 0.479112 135 106 52 255
-0.160002 1.007679 -0.003466 0.867979 -0.130633 0.479112 135 106 52 255
-0.126497 0.983076 -0.070863 0.867979 -0.130633 0.479112 136 107 54 255
-0.045601 1.388396 -0.117472 0.058731 0.027416 -0.997897 173 119 65 255
-0.156238 1.384629 -0.124087 0.058731 0.027416 -0.997897 173 119 65 255
-0.107346 1.662885 -0.113564 0.058731 0.027416 -0.997897 138 106 52 255
-0.105456 1.410441 -0.029592 0.833426 0.180036 0.522482 173 119 65 255
-0.045601 1.388396 -0.117472 0.833426 0.180036 0.522482 173 119 65 255
-0.107346 1.662885 -0.113564 0.833426 0.180036 0.522482 138 106 52 255
-0.262852 1.159517 -0.134088 0.306231 0.870916 0.384354 142 108 54 255
-0.223993 1.176946 -0.195609 0.306231 0.870916 0.384354 173 119 65 255
-0.363361 1.253804 -0.267656 0.306231 0.870916 0.384354 173 119 65 255
-0.397726 1.245530 -0.212594 0.306231 0.870916 0.384354 172 119 65 255
-0.148159 1.091159 -0.002150 0.138011 0.924323 0.355781 135 106 52 255
-0.105064 1.112940 -0.074288 0.138011 0.924323 0.355781 168 118 64 255
-0.223993 1.176946 -0.195609 0.138011 0.924323 0.355781 173 119 65 255
-0.262852 1.159517 -0.134088 0.138011 0.924323 0.355781 142 108 54 255
-0.105064 1.112940 -0.074288 0.744820 0.321213 -0.584864 168 118 64 255
-0.095716 1.026796 -0.114713 0.744820 0.321213 -0.584864 173 119 65 255
-0.229441 1.105690 -0.236662 0.744820 0.321213 -0.584864 173 119 65 255
-0.223993 1.176946 -0.195609 0.744820 0.321213 -0.584864 173 119 65 255
-0.126497 0.983076 -0.070863 -0.571061 -0.820175 0.034671 136 107 54 255
-0.160002 1.007679 -0.003466 -0.571061 -0.820175 0.034671 135 106 52 255
-0.285366 1.090734 -0.140820 -0.571061 -0.820175 0.034671 136 106 52 255
-0.261497 1.069984 -0.201304 -0.571061 -0.820175 0.034671 173 119 65 255
-0.095716 1.026796 -0.114713 0.140069 -0.752529 -0.643491 173 119 65 255
-0.126497 0.983076 -0.070863 0.140069 -0.752529 -0.643491 136 107 54 255
-0.261497 1.069984 -0.201304 0.140069 -0.752529 -0.643491 173 119 65 255
-0.229441 1.105690 -0.236662 0.140069 -0.752529 -0.643491 173 119 65 255
-0.160002 1.007679 -0.003466 -0.705694 0.122347 0.697874 135 106 52 255
-0.148159 1.091159 -0.002150 -0.705694 0.122347 0.697874 135 106 52 255
-0.262852 1.159517 -0.134088 -0.705694 0.122347 0.697874 142 108 54 255
-0.285366 1.090734 -0.140820 -0.705694 0.122347 0.697874 136 106 52 255
-0.406818 1.217598 -0.264731 -0.866519 -0.361131 0.344572 135 106 52 255
-0.397726 1.245530 -0.212594 -0.866519 -0.361131 0.344572 172 119 65 255
-0.463796 1.327899 -0.292418 -0.866519 -0.361131 0.344572 146 111 57 255
-0.261497 1.069984 -0.201304 -0.785181 -0.599288 0.156028 173 119 65 255
-0.285366 1.090734 -0.140820 -0.785181 -0.599288 0.156028 136 106 52 255
-0.397726 1.245530 -0.212594 -0.785181 -0.599288 0.156028 172 119 65 255
-0.406818 1.217598 -0.264731 -0.785181 -0.599288 0.156028 135 106 52 255
-0.285366 1.090734 -0.140820 -0.469413 0.067487 0.880396 136 106 52 255
-0.262852 1.159517 -0.134088 -0.469413 0.067487 0.880396 142 108 54 255
-0.397726 1.245530 -0.212594 -0.469413 0.067487 0.880396 172 119 65 255
-0.223993 1.176946 -0.195609 0.580036 0.372901 -0.724226 173 119 65 255
-0.229441 1.105690 -0.236662 0.580036 0.372901 -0.724226 173 119 65 255
-0.363361 1.253804 -0.267656 0.580036 0.372901 -0.724226 173 119 65 255
-0.229441 1.105690 -0.236662 -0.098018 -0.385491 -0.917491 173 119 65 255
-0.261497 1.069984 -0.201304 -0.098018 -0.385491 -0.917491 173 119 65 255
-0.406818 1.217598 -0.264731 -0.098018 -0.385491 -0.917491 135 106 52 255
-0.363361 1.253804 -0.267656 -0.098018 -0.385491 -0.917491 173 119 65 255
0.027160 0.772177 0.009268 -0.365709 -0.152901 0.918084 135 106 52 255
-0.029499 0.890070 0.005483 -0.365709 -0.152901 0.918084 135 106 52 255
-0.136383 0.860262 -0.036954 -0.365709 -0.152901 0.918084 172 118 64 255
-0.109040 0.746013 -0.053240 -0.365709 -0.152901 0.918084 167 116 62 255
-0.038814 0.712343 -0.022722 -0.365709 -0.152901 0.918084 156 113 59 255
-0.397726 1.245530 -0.212594 0.472902 0.778766 0.412175 172 119 65 255
-0.363361 1.253804 -0.267656 0.472902 0.778766 0.412175 173 119 65 255
-0.463796 1.327899 -0.292418 0.472902 0.778766 0.412175 146 111 57 255
-0.363361 1.253804 -0.267656 0.096785 -0.194994 -0.976018 173 119 65 255
-0.406818 1.217598 -0.264731 0.096785 -0.194994 -0.976018 135 106 52 255
-0.463796 1.327899 -0.292418 0.096785 -0.194994 -0.976018 146 111 57 255
0.016767 0.953814 -0.220767 -0.330453 0.870916 0.363739 173 119 65 255
0.108382 0.977667 -0.181730 -0.330453 0.870916 0.363739 172 119 65 255
0.175221 1.082852 -0.385774 -0.330453 0.870916 0.363739 173 119 65 255
0.093317 1.071529 -0.420154 -0.330453 0.870916 0.363739 173 119 65 255
-0.136383 0.860262 -0.036954 -0.329141 0.924323 0.193115 172 118 64 255
-0.029499 0.890070 0.005483 -0.329141 0.924323 0.193115 135 106 52 255
0.108382 0.977667 -0.181730 -0.329141 0.924323 0.193115 172 119 65 255
0.016767 0.953814 -0.220767 -0.329141 0.924323 0.193115 173 119 65 255
-0.029499 0.890070 0.005483 0.696416 0.321213 0.641738 135 106 52 255
0.027160 0.772177 0.009268 0.696416 0.321213 0.641738 135 106 52 255
0.162651 0.880148 -0.198071 0.696416 0.321213 0.641738 171 118 64 255
0.108382 0.977667 -0.181730 0.696416 0.321213 0.641738 172 119 65 255
-0.038814 0.712343 -0.022722 -0.190970 -0.778673 -0.597662 156 113 59 255
-0.109040 0.746013 -0.053240 -0.190970 -0.778673 -0.597662 167 116 62 255
0.036755 0.867136 -0.248544 -0.190970 -0.778673 -0.597662 173 119 65 255
0.107870 0.831282 -0.233643 -0.190970 -0.778673 -0.597662 173 119 65 255
0.027160 0.772177 0.009268 0.657607 -0.752530 0.035393 135 106 52 255
-0.038814 0.712343 -0.022722 0.657607 -0.752530 0.035393 156 113 59 255
0.107870 0.831282 -0.233643 0.657607 -0.752530 0.035393 173 119 65 255
0.162651 0.880148 -0.198071 0.657607 -0.752530 0.035393 171 118 64 255
-0.109040 0.746013 -0.053240 -0.772521 -0.043043 -0.633529 167 116 62 255
-0.136383 0.860262 -0.036954 -0.772521 -0.043043 -0.633529 172 118 64 255
0.016767 0.953814 -0.220767 -0.772521 -0.043043 -0.633529 173 119 65 255
0.036755 0.867136 -0.248544 -0.772521 -0.043043 -0.633529 173 119 65 255
0.161763 1.033302 -0.443843 -0.478671 -0.361130 -0.800287 135 106 52 255
0.093317 1.071529 -0.420154 -0.478671 -0.361130 -0.800287 173 119 65 255
0.186700 1.184256 -0.526877 -0.478671 -0.361130 -0.800287 173 119 65 255
0.107870 0.831282 -0.233643 -0.356974 -0.586221 -0.727265 173 119 65 255
0.036755 0.867136 -0.248544 -0.356974 -0.586221 -0.727265 173 119 65 255
0.093317 1.071529 -0.420154 -0.356974 -0.586221 -0.727265 173 119 65 255
0.161763 1.033302 -0.443843 -0.356974 -0.586221 -0.727265 135 106 52 255
0.036755 0.867136 -0.248544 -0.913085 -0.082593 -0.399318 173 119 65 255
0.016767 0.953814 -0.220767 -0.913085 -0.082593 -0.399318 173 119 65 255
0.093317 1.071529 -0.420154 -0.913085 -0.082593 -0.399318 173 119 65 255
0.108382 0.977667 -0.181730 0.807642 0.372901 0.456794 172 119 65 255
0.162651 0.880148 -0.198071 0.807642 0.372901 0.456794 171 118 64 255
0.175221 1.082852 -0.385774 0.807642 0.372901 0.456794 173 119 65 255
0.162651 0.880148 -0.198071 0.890020 -0.385491 -0.243436 171 118 64 255
0.107870 0.831282 -0.233643 0.890020 -0.385491 -0.243436 173 119 65 255
0.161763 1.033302 -0.443843 0.890020 -0.385491 -0.243436 135 106 52 255
0.175221 1.082852 -0.385774 0.890020 -0.385491 -0.243436 173 119 65 255
0.093317 1.071529 -0.420154 -0.331269 0.778766 0.532714 173 119 65 255
0.175221 1.082852 -0.385774 -0.331269 0.778766 0.532714 173 119 65 255
0.186700 1.184256 -0.526877 -0.331269 0.778766 0.532714 173 119 65 255
0.175221 1.082852 -0.385774 0.978937 -0.194994 -0.060496 173 119 65 255
0.161763 1.033302 -0.443843 0.978937 -0.194994 -0.060496 135 106 52 255
0.186700 1.184256 -0.526877 0.978937 -0.194994 -0.060496 173 119 65 255
0.282388 1.018187 -0.237039 0.488619 -0.871702 0.037253 94 153 47 255
0.082966 0.909072 -0.174631 0.488619 -0.871702 0.037253 94 153 47 255
0.185544 0.952086 -0.513560 0.488619 -0.871702 0.037253 94 153 47 255
0.185544 0.952086 -0.513560 -0.357186 -0.834380 -0.419796 94 153 47 255
-0.049941 0.985029 -0.378674 -0.357186 -0.834380 -0.419796 94 153 47 255
-0.051219 1.090498 -0.587214 -0.357186 -0.834380 -0.419796 94 153 47 255
0.185544 0.952086 -0.513560 -0.227125 -0.597562 -0.768983 94 153 47 255
-0.051219 1.090498 -0.587214 -0.227125 -0.597562 -0.768983 94 153 47 255
0.058230 1.241725 -0.701030 -0.227125 -0.597562 -0.768983 94 153 47 255
0.249287 1.138641 -0.713382 -0.227125 -0.597562 -0.768983 94 153 47 255
0.345713 1.121657 -0.354959 0.869488 -0.423649 -0.253992 94 153 47 255
0.185544 0.952086 -0.513560 0.869488 -0.423649 -0.253992 94 153 47 255
0.249287 1.138641 -0.713382 0.869488 -0.423649 -0.253992 94 153 47 255
0.328421 1.262935 -0.542934 0.869488 -0.423649 -0.253992 94 153 47 255
0.249287 1.138641 -0.713382 0.798374 0.245634 -0.549785 94 153 47 255
0.214922 1.332047 -0.676875 0.798374 0.245634 -0.549785 94 153 47 255
0.328421 1.262935 -0.542934 0.798374 0.245634 -0.549785 94 153 47 255
0.249287 1.138641 -0.713382 0.040338 0.192249 -0.980517 94 153 47 255
0.058230 1.241725 -0.701030 0.040338 0.192249 -0.980517 94 153 47 255
0.214922 1.332047 -0.676875 0.040338 0.192249 -0.980517 94 153 47 255
0.282388 1.018187 -0.237039 0.011061 0.481137 0.876576 94 153 47 255
0.083992 1.219530 -0.345049 0.011061 0.481137 0.876576 94 153 47 255
0.082966 0.909072 -0.174631 0.011061 0.481137 0.876576 94 153 47 255
0.083992 1.219530 -0.345049 -0.729630 0.330912 0.598445 94 153 47 255
-0.049941 0.985029 -0.378674 -0.729630 0.330912 0.598445 94 153 47 255
0.082966 0.909072 -0.174631 -0.729630 0.330912 0.598445 94 153 47 255
0.083992 1.219530 -0.345049 -0.806003 0.584278 0.094759 94 153 47 255
0.139703 1.340507 -0.504807 -0.806003 0.584278 0.094759 94 153 47 255
0.058230 1.241725 -0.701030 -0.806003 0.584278 0.094759 94 153 47 255
-0.051219 1.090498 -0.587214 -0.806003 0.584278 0.094759 94 153 47 255
0.345713 1.121657 -0.354959 0.347100 0.729921 0.588843 94 153 47 255
0.328421 1.262935 -0.542934 0.347100 0.729921 0.588843 94 153 47 255
0.139703 1.340507 -0.504807 0.347100 0.729921 0.588843 94 153 47 255
0.083992 1.219530 -0.345049 0.347100 0.729921 0.588843 94 153 47 255
0.139703 1.340507 -0.504807 0.399303 0.907565 0.129932 94 153 47 255
0.328421 1.262935 -0.542934 0.399303 0.907565 0.129932 94 153 47 255
0.214922 1.332047 -0.676875 0.399303 0.907565 0.129932 94 153 47 255
0.139703 1.340507 -0.504807 -0.456380 0.856354 -0.241611 94 153 47 255
0.214922 1.332047 -0.676875 -0.456380 0.856354 -0.241611 94 153 47 255
0.058230 1.241725 -0.701030 -0.456380 0.856354 -0.241611 94 153 47 255
0.185544 0.952086 -0.513560 -0.244314 -0.949988 -0.194507 94 153 47 255
0.082966 0.909072 -0.174631 -0.244314 -0.949988 -0.194507 94 153 47 255
-0.049941 0.985029 -0.378674 -0.244314 -0.949988 -0.194507 94 153 47 255
0.282388 1.018187 -0.237039 0.269180 0.647632 0.712822 94 153 47 255
0.345713 1.121657 -0.354959 0.269180 0.647632 0.712822 94 153 47 255
0.083992 1.219530 -0.345049 0.269180 0.647632 0.712822 94 153 47 255
0.083992 1.219530 -0.345049 -0.858012 0.456210 0.235983 94 153 47 255
-0.051219 1.090498 -0.587214 -0.858012 0.456210 0.235983 94 153 47 255
-0.049941 0.985029 -0.378674 -0.858012 0.456210 0.235983 94 153 47 255
0.345713 1.121657 -0.354959 0.776813 -0.617304 -0.124492 94 153 47 255
0.282388 1.018187 -0.237039 0.776813 -0.617304 -0.124492 94 153 47 255
0.185544 0.952086 -0.513560 0.776813 -0.617304 -0.124492 94 153 47 255
-0.167012 1.182735 -0.323359 0.026765 -0.888851 -0.457413 94 153 47 255
-0.169839 1.086885 -0.137266 0.026765 -0.888851 -0.457413 94 153 47 255
-0.414254 1.165625 -0.304577 0.026765 -0.888851 -0.457413 94 153 47 255
-0.414254 1.165625 -0.304577 -0.479867 -0.876575 0.036651 94 153 47 255
-0.378549 1.155388 -0.081918 -0.479867 -0.876575 0.036651 94 153 47 255
-0.554559 1.249354 -0.139041 -0.479867 -0.876575 0.036651 94 153 47 255
-0.414254 1.165625 -0.304577 -0.732489 -0.663894 -0.150682 94 153 47 255
-0.554559 1.249354 -0.139041 -0.732489 -0.663894 -0.150682 94 153 47 255
-0.619866 1.383188 -0.263634 -0.732489 -0.663894 -0.150682 94 153 47 255
-0.533248 1.284262 -0.396441 -0.732489 -0.663894 -0.150682 94 153 47 255
-0.248687 1.274428 -0.409927 -0.058361 -0.520260 -0.852012 94 153 47 255
-0.414254 1.165625 -0.304577 -0.058361 -0.520260 -0.852012 94 153 47 255
-0.533248 1.284262 -0.396441 -0.058361 -0.520260 -0.852012 94 153 47 255
-0.411659 1.400256 -0.448026 -0.058361 -0.520260 -0.852012 94 153 47 255
-0.533248 1.284262 -0.396441 -0.380073 -0.012909 -0.924866 94 153 47 255
-0.555864 1.462470 -0.389634 -0.380073 -0.012909 -0.924866 94 153 47 255
-0.411659 1.400256 -0.448026 -0.380073 -0.012909 -0.924866 94 153 47 255
-0.533248 1.284262 -0.396441 -0.863703 -0.090674 -0.495777 94 153 47 255
-0.619866 1.383188 -0.263634 -0.863703 -0.090674 -0.495777 94 153 47 255
-0.555864 1.462470 -0.389634 -0.863703 -0.090674 -0.495777 94 153 47 255
-0.248687 1.274428 -0.409927 -0.126126 -0.295484 -0.946985 94 153 47 255
-0.411659 1.400256 -0.448026 -0.126126 -0.295484 -0.946985 94 153 47 255
-0.236521 1.516963 -0.487225 -0.126126 -0.295484 -0.946985 94 153 47 255
-0.111015 1.355294 -0.474039 -0.126126 -0.295484 -0.946985 94 153 47 255
-0.167012 1.182735 -0.323359 0.422241 -0.670095 -0.610479 94 153 47 255
-0.248687 1.274428 -0.409927 0.422241 -0.670095 -0.610479 94 153 47 255
-0.111015 1.355294 -0.474039 0.422241 -0.670095 -0.610479 94 153 47 255
-0.102360 1.247803 -0.279494 0.422241 -0.670095 -0.610479 94 153 47 255
-0.411659 1.400256 -0.448026 -0.330361 0.459120 -0.824664 94 153 47 255
-0.555864 1.462470 -0.389634 -0.330361 0.459120 -0.824664 94 153 47 255
-0.353405 1.657097 -0.328370 -0.330361 0.459120 -0.824664 94 153 47 255
-0.236521 1.516963 -0.487225 -0.330361 0.459120 -0.824664 94 153 47 255
-0.554559 1.249354 -0.139041 -0.483550 -0.246437 0.839909 94 153 47 255
-0.378549 1.155388 -0.081918 -0.483550 -0.246437 0.839909 94 153 47 255
-0.361888 1.274016 -0.020880 -0.483550 -0.246437 0.839909 94 153 47 255
-0.577852 1.449547 -0.110351 -0.483550 -0.246437 0.839909 94 153 47 255
-0.555864 1.462470 -0.389634 -0.687515 0.559384 -0.463047 94 153 47 255
-0.619866 1.383188 -0.263634 -0.687515 0.559384 -0.463047 94 153 47 255
-0.559330 1.615536 -0.199577 -0.687515 0.559384 -0.463047 94 153 47 255
-0.353405 1.657097 -0.328370 -0.687515 0.559384 -0.463047 94 153 47 255
-0.378549 1.155388 -0.081918 0.502053 -0.022455 0.864545 94 153 47 255
-0.169839 1.086885 -0.137266 0.502053 -0.022455 0.864545 94 153 47 255
-0.229008 1.219541 -0.167092 0.502053 -0.022455 0.864545 94 153 47 255
-0.361888 1.274016 -0.020880 0.502053 -0.022455 0.864545 94 153 47 255
-0.414254 1.165625 -0.304577 -0.310395 -0.950588 0.006072 94 153 47 255
-0.169839 1.086885 -0.137266 -0.310395 -0.950588 0.006072 94 153 47 255
-0.378549 1.155388 -0.081918 -0.310395 -0.950588 0.006072 94 153 47 255
-0.619866 1.383188 -0.263634 -0.967164 0.029139 0.252479 94 153 47 255
-0.554559 1.249354 -0.139041 -0.967164 0.029139 0.252479 94 153 47 255
-0.577852 1.449547 -0.110351 -0.967164 0.029139 0.252479 94 153 47 255
-0.559330 1.615536 -0.199577 -0.967164 0.029139 0.252479 94 153 47 255
-0.169839 1.086885 -0.137266 0.923934 -0.052523 0.378929 94 153 47 255
-0.167012 1.182735 -0.323359 0.923934 -0.052523 0.378929 94 153 47 255
-0.102360 1.247803 -0.279494 0.923934 -0.052523 0.378929 94 153 47 255
-0.229008 1.219541 -0.167092 0.923934 -0.052523 0.378929 94 153 47 255
-0.248687 1.274428 -0.409927 -0.007248 -0.689884 -0.723884 94 153 47 255
-0.167012 1.182735 -0.323359 -0.007248 -0.689884 -0.723884 94 153 47 255
-0.414254 1.165625 -0.304577 -0.007248 -0.689884 -0.723884 94 153 47 255
-0.091803 1.231458 -0.075972 -0.106166 -0.938053 0.329827 94 153 47 255
-0.013093 1.309738 0.171997 -0.106166 -0.938053 0.329827 94 153 47 255
-0.239945 1.336728 0.175738 -0.106166 -0.938053 0.329827 94 153 47 255
-0.013093 1.309738 0.171997 0.160378 -0.954743 0.250490 94 153 47 255
-0.091803 1.231458 -0.075972 0.160378 -0.954743 0.250490 94 153 47 255
0.184709 1.280921 -0.064481 0.160378 -0.954743 0.250490 94 153 47 255
0.184709 1.280921 -0.064481 0.180227 -0.970969 -0.157280 94 153 47 255
-0.091803 1.231458 -0.075972 0.180227 -0.970969 -0.157280 94 153 47 255
0.010827 1.280596 -0.261722 0.180227 -0.970969 -0.157280 94 153 47 255
0.010827 1.280596 -0.261722 0.290346 -0.952531 -0.091560 94 153 47 255
-0.091803 1.231458 -0.075972 0.290346 -0.952531 -0.091560 94 153 47 255
-0.102360 1.247803 -0.279494 0.290346 -0.952531 -0.091560 94 153 47 255
-0.091803 1.231458 -0.075972 0.143146 -0.985905 -0.086605 94 153 47 255
-0.229008 1.219541 -0.167092 0.143146 -0.985905 -0.086605 94 153 47 255
-0.102360 1.247803 -0.279494 0.143146 -0.985905 -0.086605 94 153 47 255
-0.361888 1.274016 -0.020880 -0.076799 -0.935128 0.345887 94 153 47 255
-0.091803 1.231458 -0.075972 -0.076799 -0.935128 0.345887 94 153 47 255
-0.239945 1.336728 0.175738 -0.076799 -0.935128 0.345887 94 153 47 255
0.184709 1.280921 -0.064481 0.513662 -0.834396 -0.199837 94 153 47 255
0.010827 1.280596 -0.261722 0.513662 -0.834396 -0.199837 94 153 47 255
0.129311 1.337617 -0.443603 0.513662 -0.834396 -0.199837 94 153 47 255
0.365493 1.442038 -0.024169 0.513662 -0.834396 -0.199837 94 153 47 255
0.010827 1.280596 -0.261722 0.090759 -0.921977 -0.376459 94 153 47 255
-0.102360 1.247803 -0.279494 0.090759 -0.921977 -0.376459 94 153 47 255
-0.111015 1.355294 -0.474039 0.090759 -0.921977 -0.376459 94 153 47 255
0.129311 1.337617 -0.443603 0.090759 -0.921977 -0.376459 94 153 47 255
-0.361888 1.274016 -0.020880 -0.630955 -0.578284 0.517188 94 153 47 255
-0.239945 1.336728 0.175738 -0.630955 -0.578284 0.517188 94 153 47 255
-0.424791 1.531164 0.189904 -0.630955 -0.578284 0.517188 94 153 47 255
-0.577852 1.449547 -0.110351 -0.630955 -0.578284 0.517188 94 153 47 255
-0.013093 1.309738 0.171997 0.528898 -0.526346 0.665752 94 153 47 255
0.184709 1.280921 -0.064481 0.528898 -0.526346 0.665752 94 153 47 255
0.365493 1.442038 -0.024169 0.528898 -0.526346 0.665752 94 153 47 255
-0.042255 1.596526 0.365346 0.528898 -0.526346 0.665752 94 153 47 255
-0.353405 1.657097 -0.328370 -0.530668 0.493181 -0.689322 94 153 47 255
-0.559330 1.615536 -0.199577 -0.530668 0.493181 -0.689322 94 153 47 255
-0.410918 1.795106 -0.185356 -0.530668 0.493181 -0.689322 94 153 47 255
-0.239945 1.336728 0.175738 -0.212814 -0.465172 0.859258 94 153 47 255
-0.013093 1.309738 0.171997 -0.212814 -0.465172 0.859258 94 153 47 255
-0.042255 1.596526 0.365346 -0.212814 -0.465172 0.859258 94 153 47 255
-0.424791 1.531164 0.189904 -0.212814 -0.465172 0.859258 94 153 47 255
-0.042255 1.596526 0.365346 0.704769 0.346099 0.619287 94 153 47 255
0.365493 1.442038 -0.024169 0.704769 0.346099 0.619287 94 153 47 255
0.342032 1.611926 -0.080592 0.704769 0.346099 0.619287 94 153 47 255
-0.051039 1.773043 0.264871 0.704769 0.346099 0.619287 94 153 47 255
0.365493 1.442038 -0.024169 0.900508 -0.167014 -0.401486 94 153 47 255
0.129311 1.337617 -0.443603 0.900508 -0.167014 -0.401486 94 153 47 255
0.147869 1.477577 -0.527070 0.900508 -0.167014 -0.401486 94 153 47 255
0.342032 1.611926 -0.080592 0.900508 -0.167014 -0.401486 94 153 47 255
-0.424791 1.531164 0.189904 -0.405692 0.367500 0.836874 94 153 47 255
-0.042255 1.596526 0.365346 -0.405692 0.367500 0.836874 94 153 47 255
-0.051039 1.773043 0.264871 -0.405692 0.367500 0.836874 94 153 47 255
-0.378308 1.713393 0.151117 -0.405692 0.367500 0.836874 94 153 47 255
-0.577852 1.449547 -0.110351 -0.879793 0.299844 0.368860 94 153 47 255
-0.424791 1.531164 0.189904 -0.879793 0.299844 0.368860 94 153 47 255
-0.378308 1.713393 0.151117 -0.879793 0.299844 0.368860 94 153 47 255
-0.559330 1.615536 -0.199577 -0.879793 0.299844 0.368860 94 153 47 255
0.129311 1.337617 -0.443603 -0.043380 -0.318783 -0.946835 94 153 47 255
-0.111015 1.355294 -0.474039 -0.043380 -0.318783 -0.946835 94 153 47 255
-0.236521 1.516963 -0.487225 -0.043380 -0.318783 -0.946835 94 153 47 255
0.147869 1.477577 -0.527070 -0.043380 -0.318783 -0.946835 94 153 47 255
-0.153905 1.701709 -0.410771 -0.423695 0.501599 -0.754242 94 153 47 255
-0.236521 1.516963 -0.487225 -0.423695 0.501599 -0.754242 94 153 47 255
-0.353405 1.657097 -0.328370 -0.423695 0.501599 -0.754242 94 153 47 255
-0.051039 1.773043 0.264871 0.650002 0.653235 0.388306 94 153 47 255
0.342032 1.611926 -0.080592 0.650002 0.653235 0.388306 94 153 47 255
0.199958 1.756772 -0.127912 0.650002 0.653235 0.388306 94 153 47 255
-0.066374 1.905519 0.109155 0.650002 0.653235 0.388306 94 153 47 255
0.147869 1.477577 -0.527070 -0.027286 0.431215 -0.901837 94 153 47 255
-0.236521 1.516963 -0.487225 -0.027286 0.431215 -0.901837 94 153 47 255
-0.153905 1.701709 -0.410771 -0.027286 0.431215 -0.901837 94 153 47 255
0.070961 1.667514 -0.424541 -0.027286 0.431215 -0.901837 94 153 47 255
-0.559330 1.615536 -0.199577 -0.752264 0.619820 0.223432 94 153 47 255
-0.378308 1.713393 0.151117 -0.752264 0.619820 0.223432 94 153 47 255
-0.283803 1.865889 0.033580 -0.752264 0.619820 0.223432 94 153 47 255
-0.410918 1.795106 -0.185356 -0.752264 0.619820 0.223432 94 153 47 255
-0.378308 1.713393 0.151117 -0.345326 0.697744 0.627617 94 153 47 255
-0.051039 1.773043 0.264871 -0.345326 0.697744 0.627617 94 153 47 255
-0.066374 1.905519 0.109155 -0.345326 0.697744 0.627617 94 153 47 255
-0.283803 1.865889 0.033580 -0.345326 0.697744 0.627617 94 153 47 255
0.342032 1.611926 -0.080592 0.702719 0.536672 -0.467085 94 153 47 255
0.147869 1.477577 -0.527070 0.702719 0.536672 -0.467085 94 153 47 255
0.070961 1.667514 -0.424541 0.702719 0.536672 -0.467085 94 153 47 255
0.199958 1.756772 -0.127912 0.702719 0.536672 -0.467085 94 153 47 255
-0.353405 1.657097 -0.328370 -0.419925 0.562807 -0.711977 94 153 47 255
-0.410918 1.795106 -0.185356 -0.419925 0.562807 -0.711977 94 153 47 255
-0.153905 1.701709 -0.410771 -0.419925 0.562807 -0.711977 94 153 47 255
-0.283803 1.865889 0.033580 -0.244527 0.947348 0.206734 94 153 47 255
-0.066374 1.905519 0.109155 -0.244527 0.947348 0.206734 94 153 47 255
-0.089239 1.937704 -0.065377 -0.244527 0.947348 0.206734 94 153 47 255
0.199958 1.756772 -0.127912 0.556710 0.697067 -0.451853 94 153 47 255
0.070961 1.667514 -0.424541 0.556710 0.697067 -0.451853 94 153 47 255
-0.017348 1.863269 -0.231356 0.556710 0.697067 -0.451853 94 153 47 255
-0.153905 1.701709 -0.410771 -0.456421 0.507649 -0.730734 94 153 47 255
-0.410918 1.795106 -0.185356 -0.456421 0.507649 -0.730734 94 153 47 255
-0.202762 1.861979 -0.268914 -0.456421 0.507649 -0.730734 94 153 47 255
-0.066374 1.905519 0.109155 0.525504 0.850268 -0.029838 94 153 47 255
0.199958 1.756772 -0.127912 0.525504 0.850268 -0.029838 94 153 47 255
-0.017348 1.863269 -0.231356 0.525504 0.850268 -0.029838 94 153 47 255
-0.089239 1.937704 -0.065377 0.525504 0.850268 -0.029838 94 153 47 255
0.070961 1.667514 -0.424541 0.097199 0.701682 -0.705829 94 153 47 255
-0.153905 1.701709 -0.410771 0.097199 0.701682 -0.705829 94 153 47 255
-0.202762 1.861979 -0.268914 0.097199 0.701682 -0.705829 94 153 47 255
-0.017348 1.863269 -0.231356 0.097199 0.701682 -0.705829 94 153 47 255
-0.410918 1.795106 -0.185356 -0.368031 0.923220 -0.110534 94 153 47 255
-0.283803 1.865889 0.033580 -0.368031 0.923220 -0.110534 94 153 47 255
-0.089239 1.937704 -0.065377 -0.368031 0.923220 -0.110534 94 153 47 255
-0.202762 1.861979 -0.268914 -0.368031 0.923220 -0.110534 94 153 47 255
-0.017348 1.863269 -0.231356 0.071046 0.921269 -0.382381 94 153 47 255
-0.202762 1.861979 -0.268914 0.071046 0.921269 -0.382381 94 153 47 255
-0.089239 1.937704 -0.065377 0.071046 0.921269 -0.382381 94 153 47 255
-0.091803 1.231458 -0.075972 -0.095948 -0.958130 0.269781 94 153 47 255
-0.361888 1.274016 -0.020880 -0.095948 -0.958130 0.269781 94 153 47 255
-0.229008 1.219541 -0.167092 -0.095948 -0.958130 0.269781 94 153 47 255
4 0 1 2 3
4 4 5 6 7
4 8 9 10 11
4 12 13 14 15
4 16 17 18 19
4 20 21 22 23
4 24 25 26 27
4 28 29 30 31
4 32 33 34 35
4 36 37 38 39
4 40 41 42 43
4 44 45 46 47
4 48 49 50 51
4 52 53 54 55
4 56 57 58 59
4 60 61 62 63
3 64 65 66
4 67 68 69 70
4 71 72 73 74
4 75 76 77 78
4 79 80 81 82
3 83 84 85
4 86 87 88 89
4 90 91 92 93
3 94 95 96
4 97 98 99 100
5 101 102 103 104 105
3 106 107 108
3 109 110 111
4 112 113 114 115
4 116 117 118 119
4 120 121 122 123
4 124 125 126 127
4 128 129 130 131
4 132 133 134 135
3 136 137 138
4 139 140 141 142
3 143 144 145
3 146 147 148
4 149 150 151 152
5 153 154 155 156 157
3 158 159 160
3 161 162 163
4 164 165 166 167
4 168 169 170 171
4 172 173 174 175
4 176 177 178 179
4 180 181 182 183
4 184 185 186 187
3 188 189 190
4 191 192 193 194
3 195 196 197
3 198 199 200
4 201 202 203 204
3 205 206 207
3 208 209 210
3 211 212 213
3 214 215 216
4 217 218 219 220
4 221 222 223 224
3 225 226 227
3 228 229 230
3 231 232 233
3 234 235 236
4 237 238 239 240
4 241 242 243 244
3 245 246 247
3 248 249 250
3 251 252 253
3 254 255 256
3 257 258 259
3 260 261 262
3 263 264 265
3 266 267 268
4 269 270 271 272
4 273 274 275 276
3 277 278 279
3 280 281 282
4 283 284 285 286
4 287 288 289 290
4 291 292 293 294
4 295 296 297 298
4 299 300 301 302
4 303 304 305 306
3 307 308 309
4 310 311 312 313
4 314 315 316 317
3 318 319 320
3 321 322 323
3 324 325 326
3 327 328 329
3 330 331 332
3 333 334 335
3 336 337 338
4 339 340 341 342
4 343 344 345 346
4 347 348 349 350
4 351 352 353 354
3 355 356 357
4 358 359 360 361
4 362 363 364 365
4 366 367 368 369
4 370 371 372 373
4 374 375 376 377
4 378 379 380 381
3 382 383 384
4 385 386 387 388
4 389 390 391 392
4 393 394 395 396
4 397 398 399 400
4 401 402 403 404
3 405 406 407
3 408 409 410
3 411 412 413
3 414 415 416
4 417 418 419 420
4 421 422 423 424
4 425 426 427 428
3 429 430 431
3 432 433 434
