ply
format ascii 1.0
comment Created by Blender 2.80 (sub 75) - www.blender.org, source file: 'apple_seed.blend'
element vertex 9
property float x
property float y
property float z
property float nx
property float ny
property float nz
property uchar red
property uchar green
property uchar blue
property uchar alpha
element face 3
property list uchar uint vertex_indices
end_header
0.054220 -0.014081 0.028809 0.127912 0.295177 0.946842 11 7 2 255
-0.011125 0.123910 -0.005382 0.127912 0.295177 0.946842 12 8 2 255
-0.064852 -0.010452 0.043763 0.127912 0.295177 0.946842 16 12 5 255
-0.064852 -0.010452 0.043763 -0.905217 0.231656 -0.356255 16 12 5 255
-0.011125 0.123910 -0.005382 -0.905217 0.231656 -0.356255 12 8 2 255
-0.031420 -0.019425 -0.047018 -0.905217 0.231656 -0.356255 12 8 2 255
-0.031420 -0.019425 -0.047018 0.653397 0.124397 -0.746724 12 8 2 255
-0.011125 0.123910 -0.005382 0.653397 0.124397 -0.746724 12 8 2 255
0.054220 -0.014081 0.028809 0.653397 0.124397 -0.746724 11 7 2 255
3 0 1 2
3 3 4 5
3 6 7 8
