ply
format ascii 1.0
comment Created by Blender 2.80 (sub 75) - www.blender.org, source file: 'apple02.blend'
element vertex 60
property float x
property float y
property float z
property float nx
property float ny
property float nz
property uchar red
property uchar green
property uchar blue
property uchar alpha
element face 20
property list uchar uint vertex_indices
end_header
0.000000 -0.243047 0.000000 -0.187597 -0.794651 -0.577354 255 79 91 255
-0.361800 0.033345 -0.262860 -0.187597 -0.794651 -0.577354 255 25 42 255
0.138193 0.033345 -0.425320 -0.187597 -0.794651 -0.577354 255 25 42 255
-0.361800 0.033345 -0.262860 -0.607065 -0.794652 0.000000 255 25 42 255
0.000000 -0.243047 0.000000 -0.607065 -0.794652 0.000000 255 79 91 255
-0.361800 0.033345 0.262860 -0.607065 -0.794652 0.000000 255 25 42 255
0.000000 -0.243047 0.000000 0.491122 -0.794652 -0.356829 255 79 91 255
0.138193 0.033345 -0.425320 0.491122 -0.794652 -0.356829 255 25 42 255
0.447212 0.033345 0.000000 0.491122 -0.794652 -0.356829 255 57 72 255
0.000000 -0.243047 0.000000 0.491122 -0.794652 0.356829 255 79 91 255
0.447212 0.033345 0.000000 0.491122 -0.794652 0.356829 255 57 72 255
0.138193 0.033345 0.425320 0.491122 -0.794652 0.356829 255 25 42 255
0.000000 -0.243047 0.000000 -0.187597 -0.794651 0.577354 255 79 91 255
0.138193 0.033345 0.425320 -0.187597 -0.794651 0.577354 255 25 42 255
-0.361800 0.033345 0.262860 -0.187597 -0.794651 0.577354 255 25 42 255
-0.361800 0.033345 -0.262860 -0.982246 -0.187597 -0.000000 255 25 42 255
-0.361800 0.033345 0.262860 -0.982246 -0.187597 -0.000000 255 65 80 255
-0.447212 0.480560 0.000000 -0.982246 -0.187597 -0.000000 255 25 42 255
0.138193 0.033345 -0.425320 -0.303536 -0.187589 -0.934172 255 25 42 255
-0.361800 0.033345 -0.262860 -0.303536 -0.187589 -0.934172 255 25 42 255
-0.138193 0.480560 -0.425320 -0.303536 -0.187589 -0.934172 255 26 43 255
0.447212 0.033345 0.000000 0.794649 -0.187587 -0.577359 255 57 72 255
0.138193 0.033345 -0.425320 0.794649 -0.187587 -0.577359 255 25 42 255
0.361800 0.480560 -0.262860 0.794649 -0.187587 -0.577359 255 25 42 255
0.138193 0.033345 0.425320 0.794649 -0.187587 0.577359 255 25 42 255
0.447212 0.033345 0.000000 0.794649 -0.187587 0.577359 255 28 45 255
0.361800 0.480560 0.262860 0.794649 -0.187587 0.577359 255 25 42 255
-0.361800 0.033345 0.262860 -0.303536 -0.187589 0.934172 255 25 42 255
0.138193 0.033345 0.425320 -0.303536 -0.187589 0.934172 255 25 42 255
-0.138193 0.480560 0.425320 -0.303536 -0.187589 0.934172 255 25 42 255
-0.361800 0.033345 -0.262860 -0.794649 0.187587 -0.577359 255 25 42 255
-0.447212 0.480560 0.000000 -0.794649 0.187587 -0.577359 255 25 42 255
-0.138193 0.480560 -0.425320 -0.794649 0.187587 -0.577359 255 26 43 255
0.138193 0.033345 -0.425320 0.303536 0.187589 -0.934172 255 25 42 255
-0.138193 0.480560 -0.425320 0.303536 0.187589 -0.934172 255 26 43 255
0.361800 0.480560 -0.262860 0.303536 0.187589 -0.934172 255 25 42 255
0.447212 0.033345 0.000000 0.982246 0.187597 0.000000 255 28 45 255
0.361800 0.480560 -0.262860 0.982246 0.187597 0.000000 255 25 42 255
0.361800 0.480560 0.262860 0.982246 0.187597 0.000000 255 25 42 255
0.138193 0.033345 0.425320 0.303536 0.187589 0.934172 255 25 42 255
0.361800 0.480560 0.262860 0.303536 0.187589 0.934172 255 25 42 255
-0.138193 0.480560 0.425320 0.303536 0.187589 0.934172 255 25 42 255
-0.361800 0.033345 0.262860 -0.794649 0.187587 0.577359 255 65 80 255
-0.138193 0.480560 0.425320 -0.794649 0.187587 0.577359 255 25 42 255
-0.447212 0.480560 0.000000 -0.794649 0.187587 0.577359 255 25 42 255
-0.138193 0.480560 -0.425320 -0.491122 0.794652 -0.356829 255 44 60 255
-0.447212 0.480560 0.000000 -0.491122 0.794652 -0.356829 255 26 43 255
0.000000 0.756953 0.000000 -0.491122 0.794652 -0.356829 255 25 42 255
0.361800 0.480560 -0.262860 0.187597 0.794651 -0.577354 255 25 42 255
-0.138193 0.480560 -0.425320 0.187597 0.794651 -0.577354 255 44 60 255
0.000000 0.756953 0.000000 0.187597 0.794651 -0.577354 255 25 42 255
0.361800 0.480560 0.262860 0.607065 0.794652 -0.000000 255 25 42 255
0.361800 0.480560 -0.262860 0.607065 0.794652 -0.000000 255 25 42 255
0.000000 0.756953 0.000000 0.607065 0.794652 -0.000000 255 25 42 255
-0.138193 0.480560 0.425320 0.187597 0.794651 0.577354 255 25 42 255
0.361800 0.480560 0.262860 0.187597 0.794651 0.577354 255 25 42 255
0.000000 0.756953 0.000000 0.187597 0.794651 0.577354 255 25 42 255
-0.447212 0.480560 0.000000 -0.491122 0.794652 0.356829 255 25 42 255
-0.138193 0.480560 0.425320 -0.491122 0.794652 0.356829 255 25 42 255
0.000000 0.756953 0.000000 -0.491122 0.794652 0.356829 255 25 42 255
3 0 1 2
3 3 4 5
3 6 7 8
3 9 10 11
3 12 13 14
3 15 16 17
3 18 19 20
3 21 22 23
3 24 25 26
3 27 28 29
3 30 31 32
3 33 34 35
3 36 37 38
3 39 40 41
3 42 43 44
3 45 46 47
3 48 49 50
3 51 52 53
3 54 55 56
3 57 58 59
