ply
format ascii 1.0
comment Created by Blender 2.80 (sub 75) - www.blender.org, source file: 'apple_tree_young.blend'
element vertex 177
property float x
property float y
property float z
property float nx
property float ny
property float nz
property uchar red
property uchar green
property uchar blue
property uchar alpha
element face 59
property list uchar uint vertex_indices
end_header
0.066758 -0.055470 0.012739 0.478637 0.126275 0.868885 135 106 52 255
0.050481 0.239100 -0.021104 0.478637 0.126275 0.868885 156 109 24 255
-0.022436 0.243287 0.018455 0.478637 0.126275 0.868885 156 109 24 255
0.066758 -0.055470 0.012739 0.125145 0.018384 0.991968 135 106 52 255
-0.022436 0.243287 0.018455 0.125145 0.018384 0.991968 156 109 24 255
-0.052314 -0.051841 0.027693 0.125145 0.018384 0.991968 136 107 55 255
0.050481 0.239100 -0.021104 0.475663 -0.023945 0.879302 156 109 24 255
0.022242 0.543937 0.002473 0.475663 -0.023945 0.879302 156 109 24 255
-0.022436 0.243287 0.018455 0.475663 -0.023945 0.879302 156 109 24 255
-0.022436 0.243287 0.018455 -0.997939 0.063258 0.010778 156 109 24 255
-0.004639 0.537376 -0.059737 -0.997939 0.063258 0.010778 156 109 24 255
-0.023806 0.235343 -0.061706 -0.997939 0.063258 0.010778 156 109 24 255
-0.052314 -0.051841 0.027693 -0.994869 0.100934 0.006992 136 107 55 255
-0.022436 0.243287 0.018455 -0.994869 0.100934 0.006992 156 109 24 255
-0.023806 0.235343 -0.061706 -0.994869 0.100934 0.006992 156 109 24 255
-0.052314 -0.051841 0.027693 -0.938747 -0.014000 -0.344323 136 107 55 255
-0.023806 0.235343 -0.061706 -0.938747 -0.014000 -0.344323 156 109 24 255
-0.018882 -0.060814 -0.063088 -0.938747 -0.014000 -0.344323 136 107 55 255
-0.023806 0.235343 -0.061706 0.057253 0.002874 -0.998356 156 109 24 255
-0.004639 0.537376 -0.059737 0.057253 0.002874 -0.998356 156 109 24 255
0.058213 0.540116 -0.056125 0.057253 0.002874 -0.998356 156 109 24 255
-0.023806 0.235343 -0.061706 0.480913 -0.113500 -0.869391 156 109 24 255
0.058213 0.540116 -0.056125 0.480913 -0.113500 -0.869391 156 109 24 255
0.050481 0.239100 -0.021104 0.480913 -0.113500 -0.869391 156 109 24 255
-0.018882 -0.060814 -0.063088 0.479094 0.012062 -0.877681 136 107 55 255
-0.023806 0.235343 -0.061706 0.479094 0.012062 -0.877681 156 109 24 255
0.050481 0.239100 -0.021104 0.479094 0.012062 -0.877681 156 109 24 255
-0.018882 -0.060814 -0.063088 0.663825 -0.049057 -0.746277 136 107 55 255
0.050481 0.239100 -0.021104 0.663825 -0.049057 -0.746277 156 109 24 255
0.066758 -0.055470 0.012739 0.663825 -0.049057 -0.746277 136 107 55 255
-0.004639 0.537376 -0.059737 0.050230 0.149640 -0.987464 156 109 24 255
0.031937 0.736847 -0.027649 0.050230 0.149640 -0.987464 156 109 24 255
0.058213 0.540116 -0.056125 0.050230 0.149640 -0.987464 156 109 24 255
0.022242 0.543937 0.002473 -0.912833 -0.071659 0.401997 156 109 24 255
0.004893 0.735249 -0.002820 -0.912833 -0.071659 0.401997 156 109 24 255
-0.004639 0.537376 -0.059737 -0.912833 -0.071659 0.401997 156 109 24 255
0.022242 0.543937 0.002473 0.966577 -0.086275 -0.241423 156 109 24 255
0.031937 0.736847 -0.027649 0.966577 -0.086275 -0.241423 156 109 24 255
0.041841 0.739075 0.011206 0.966577 -0.086275 -0.241423 156 109 24 255
0.041841 0.739075 0.011206 0.965710 0.069533 -0.250137 156 109 24 255
0.031937 0.736847 -0.027649 0.965710 0.069533 -0.250137 156 109 24 255
0.034215 0.858210 0.014880 0.965710 0.069533 -0.250137 155 109 26 255
0.004893 0.735249 -0.002820 -0.349789 -0.051240 0.935426 156 109 24 255
0.041841 0.739075 0.011206 -0.349789 -0.051240 0.935426 156 109 24 255
0.034215 0.858210 0.014880 -0.349789 -0.051240 0.935426 155 109 26 255
0.031937 0.736847 -0.027649 -0.661460 0.259049 -0.703821 156 109 24 255
0.004893 0.735249 -0.002820 -0.661460 0.259049 -0.703821 156 109 24 255
0.034215 0.858210 0.014880 -0.661460 0.259049 -0.703821 155 109 26 255
0.028128 0.480831 -0.030484 -0.294431 0.920898 -0.255455 156 109 24 255
-0.008245 0.464260 -0.048298 -0.294431 0.920898 -0.255455 156 109 24 255
-0.063049 0.483045 0.082586 -0.294431 0.920898 -0.255455 156 109 24 255
0.028128 0.480831 -0.030484 -0.727762 0.343559 -0.593573 156 109 24 255
-0.063049 0.483045 0.082586 -0.727762 0.343559 -0.593573 156 109 24 255
-0.051251 0.505630 0.081193 -0.727762 0.343559 -0.593573 156 109 24 255
-0.008245 0.464260 -0.048298 -0.732996 -0.677570 -0.060124 156 109 24 255
0.013975 0.437389 -0.016365 -0.732996 -0.677570 -0.060124 156 109 24 255
-0.040760 0.486411 0.098464 -0.732996 -0.677570 -0.060124 156 109 24 255
-0.008245 0.464260 -0.048298 0.037091 -0.986875 0.157171 156 109 24 255
-0.040760 0.486411 0.098464 0.037091 -0.986875 0.157171 156 109 24 255
-0.063049 0.483045 0.082586 0.037091 -0.986875 0.157171 156 109 24 255
0.013975 0.437389 -0.016365 0.805479 -0.071200 0.588332 156 109 24 255
0.028128 0.480831 -0.030484 0.805479 -0.071200 0.588332 156 109 24 255
-0.051251 0.505630 0.081193 0.805479 -0.071200 0.588332 156 109 24 255
0.013975 0.437389 -0.016365 0.809306 0.569844 0.142488 156 109 24 255
-0.051251 0.505630 0.081193 0.809306 0.569844 0.142488 156 109 24 255
-0.040760 0.486411 0.098464 0.809306 0.569844 0.142488 156 109 24 255
-0.040760 0.486411 0.098464 0.729268 0.632545 0.260874 156 109 24 255
-0.051251 0.505630 0.081193 0.729268 0.632545 0.260874 156 109 24 255
-0.085883 0.511697 0.163298 0.729268 0.632545 0.260874 156 109 24 255
-0.063049 0.483045 0.082586 -0.080207 -0.946285 0.313227 156 109 24 255
-0.040760 0.486411 0.098464 -0.080207 -0.946285 0.313227 156 109 24 255
-0.085883 0.511697 0.163298 -0.080207 -0.946285 0.313227 156 109 24 255
-0.051251 0.505630 0.081193 -0.829251 0.409750 -0.380064 156 109 24 255
-0.063049 0.483045 0.082586 -0.829251 0.409750 -0.380064 156 109 24 255
-0.085883 0.511697 0.163298 -0.829251 0.409750 -0.380064 156 109 24 255
0.026863 0.672616 -0.022082 -0.684712 0.720296 0.111100 156 109 24 255
0.020543 0.664298 -0.007110 -0.684712 0.720296 0.111100 156 109 24 255
0.094403 0.725196 0.053271 -0.684712 0.720296 0.111100 156 109 24 255
0.026863 0.672616 -0.022082 -0.788808 0.164518 0.592213 156 109 24 255
0.094403 0.725196 0.053271 -0.788808 0.164518 0.592213 156 109 24 255
0.087496 0.738802 0.040292 -0.788808 0.164518 0.592213 156 109 24 255
0.020543 0.664298 -0.007110 0.199440 -0.710477 0.674867 156 109 24 255
0.032144 0.644263 -0.031631 0.199440 -0.710477 0.674867 137 106 50 255
0.107211 0.730067 0.036516 0.199440 -0.710477 0.674867 155 109 25 255
0.020543 0.664298 -0.007110 0.538952 -0.824523 0.172318 156 109 24 255
0.107211 0.730067 0.036516 0.538952 -0.824523 0.172318 155 109 25 255
0.094403 0.725196 0.053271 0.538952 -0.824523 0.172318 156 109 24 255
0.032144 0.644263 -0.031631 0.449377 0.359172 -0.817958 137 106 50 255
0.026863 0.672616 -0.022082 0.449377 0.359172 -0.817958 156 109 24 255
0.087496 0.738802 0.040292 0.449377 0.359172 -0.817958 156 109 24 255
0.032144 0.644263 -0.031631 0.094589 0.567087 -0.818209 137 106 50 255
0.087496 0.738802 0.040292 0.094589 0.567087 -0.818209 156 109 24 255
0.107211 0.730067 0.036516 0.094589 0.567087 -0.818209 155 109 25 255
0.107211 0.730067 0.036516 0.084731 0.550236 -0.830699 155 109 25 255
0.087496 0.738802 0.040292 0.084731 0.550236 -0.830699 156 109 24 255
0.138971 0.775906 0.070119 0.084731 0.550236 -0.830699 151 111 33 255
0.094403 0.725196 0.053271 0.661877 -0.683775 0.307198 156 109 24 255
0.107211 0.730067 0.036516 0.661877 -0.683775 0.307198 155 109 25 255
0.138971 0.775906 0.070119 0.661877 -0.683775 0.307198 151 111 33 255
0.087496 0.738802 0.040292 -0.641070 0.333831 0.691076 156 109 24 255
0.094403 0.725196 0.053271 -0.641070 0.333831 0.691076 156 109 24 255
0.138971 0.775906 0.070119 -0.641070 0.333831 0.691076 151 111 33 255
0.050481 0.239100 -0.021104 0.852725 0.038702 0.520925 156 109 24 255
0.058213 0.540116 -0.056125 0.852725 0.038702 0.520925 156 109 24 255
0.022242 0.543937 0.002473 0.852725 0.038702 0.520925 156 109 24 255
-0.022436 0.243287 0.018455 -0.912643 0.155715 0.377936 156 109 24 255
0.022242 0.543937 0.002473 -0.912643 0.155715 0.377936 156 109 24 255
-0.004639 0.537376 -0.059737 -0.912643 0.155715 0.377936 156 109 24 255
-0.004639 0.537376 -0.059737 -0.664722 0.235921 -0.708862 156 109 24 255
0.004893 0.735249 -0.002820 -0.664722 0.235921 -0.708862 156 109 24 255
0.031937 0.736847 -0.027649 -0.664722 0.235921 -0.708862 156 109 24 255
0.022242 0.543937 0.002473 -0.354324 -0.006261 0.935102 156 109 24 255
0.041841 0.739075 0.011206 -0.354324 -0.006261 0.935102 156 109 24 255
0.004893 0.735249 -0.002820 -0.354324 -0.006261 0.935102 156 109 24 255
0.022242 0.543937 0.002473 0.852726 0.038486 0.520939 156 109 24 255
0.058213 0.540116 -0.056125 0.852726 0.038486 0.520939 156 109 24 255
0.031937 0.736847 -0.027649 0.852726 0.038486 0.520939 156 109 24 255
-0.023960 0.751843 -0.035043 -0.707711 -0.461737 0.534737 94 153 47 255
0.026090 0.694783 -0.018074 -0.707711 -0.461737 0.534737 94 153 47 255
-0.004049 0.836127 0.064086 -0.707711 -0.461737 0.534737 94 153 47 255
-0.004049 0.836127 0.064086 0.182510 -0.207890 0.960974 94 153 47 255
0.069459 0.746509 0.030738 0.182510 -0.207890 0.960974 94 153 47 255
0.102272 0.838597 0.044428 0.182510 -0.207890 0.960974 94 153 47 255
-0.004049 0.836127 0.064086 0.182765 -0.054298 0.981656 94 153 47 255
0.102272 0.838597 0.044428 0.182765 -0.054298 0.981656 94 153 47 255
0.114646 0.917631 0.046495 0.182765 -0.054298 0.981656 94 153 47 255
-0.004049 0.836127 0.064086 0.124447 0.032796 0.991684 94 153 47 255
0.114646 0.917631 0.046495 0.124447 0.032796 0.991684 94 153 47 255
0.021351 0.918539 0.058173 0.124447 0.032796 0.991684 94 153 47 255
-0.028929 0.827350 -0.060242 -0.938856 0.301316 0.166609 94 153 47 255
-0.004049 0.836127 0.064086 -0.938856 0.301316 0.166609 94 153 47 255
0.021351 0.918539 0.058173 -0.938856 0.301316 0.166609 94 153 47 255
-0.028929 0.827350 -0.060242 -0.912039 0.402795 0.077076 94 153 47 255
0.021351 0.918539 0.058173 -0.912039 0.402795 0.077076 94 153 47 255
0.008822 0.908559 -0.037930 -0.912039 0.402795 0.077076 94 153 47 255
0.021351 0.918539 0.058173 -0.501344 0.864902 -0.024456 94 153 47 255
0.077543 0.949121 -0.012195 -0.501344 0.864902 -0.024456 94 153 47 255
0.008822 0.908559 -0.037930 -0.501344 0.864902 -0.024456 94 153 47 255
0.021351 0.918539 0.058173 0.063819 0.895627 0.440204 94 153 47 255
0.114646 0.917631 0.046495 0.063819 0.895627 0.440204 94 153 47 255
0.077543 0.949121 -0.012195 0.063819 0.895627 0.440204 94 153 47 255
-0.023960 0.751843 -0.035043 0.002612 -0.282938 -0.959135 94 153 47 255
0.086261 0.842240 -0.061409 0.002612 -0.282938 -0.959135 94 153 47 255
0.026090 0.694783 -0.018074 0.002612 -0.282938 -0.959135 94 153 47 255
0.086261 0.842240 -0.061409 0.850852 -0.434157 -0.295905 94 153 47 255
0.069459 0.746509 0.030738 0.850852 -0.434157 -0.295905 94 153 47 255
0.026090 0.694783 -0.018074 0.850852 -0.434157 -0.295905 94 153 47 255
0.086261 0.842240 -0.061409 0.976236 -0.162733 -0.143115 94 153 47 255
0.096387 0.893025 -0.050080 0.976236 -0.162733 -0.143115 94 153 47 255
0.114646 0.917631 0.046495 0.976236 -0.162733 -0.143115 94 153 47 255
0.086261 0.842240 -0.061409 0.976946 -0.148968 -0.152919 94 153 47 255
0.114646 0.917631 0.046495 0.976946 -0.148968 -0.152919 94 153 47 255
0.102272 0.838597 0.044428 0.976946 -0.148968 -0.152919 94 153 47 255
-0.028929 0.827350 -0.060242 -0.079106 0.298126 -0.951243 94 153 47 255
0.008822 0.908559 -0.037930 -0.079106 0.298126 -0.951243 94 153 47 255
0.096387 0.893025 -0.050080 -0.079106 0.298126 -0.951243 94 153 47 255
-0.028929 0.827350 -0.060242 -0.038941 0.224944 -0.973593 94 153 47 255
0.096387 0.893025 -0.050080 -0.038941 0.224944 -0.973593 94 153 47 255
0.086261 0.842240 -0.061409 -0.038941 0.224944 -0.973593 94 153 47 255
0.096387 0.893025 -0.050080 -0.016750 0.555734 -0.831192 94 153 47 255
0.008822 0.908559 -0.037930 -0.016750 0.555734 -0.831192 94 153 47 255
0.077543 0.949121 -0.012195 -0.016750 0.555734 -0.831192 94 153 47 255
0.096387 0.893025 -0.050080 0.838112 0.469325 -0.278034 94 153 47 255
0.077543 0.949121 -0.012195 0.838112 0.469325 -0.278034 94 153 47 255
0.114646 0.917631 0.046495 0.838112 0.469325 -0.278034 94 153 47 255
-0.004049 0.836127 0.064086 -0.276999 -0.526346 0.803885 94 153 47 255
0.026090 0.694783 -0.018074 -0.276999 -0.526346 0.803885 94 153 47 255
0.069459 0.746509 0.030738 -0.276999 -0.526346 0.803885 94 153 47 255
-0.023960 0.751843 -0.035043 0.031054 -0.314580 -0.948723 94 153 47 255
-0.028929 0.827350 -0.060242 0.031054 -0.314580 -0.948723 94 153 47 255
0.086261 0.842240 -0.061409 0.031054 -0.314580 -0.948723 94 153 47 255
0.086261 0.842240 -0.061409 0.937910 -0.311505 -0.152608 94 153 47 255
0.102272 0.838597 0.044428 0.937910 -0.311505 -0.152608 94 153 47 255
0.069459 0.746509 0.030738 0.937910 -0.311505 -0.152608 94 153 47 255
-0.028929 0.827350 -0.060242 -0.980571 0.000930 0.196163 94 153 47 255
-0.023960 0.751843 -0.035043 -0.980571 0.000930 0.196163 94 153 47 255
-0.004049 0.836127 0.064086 -0.980571 0.000930 0.196163 94 153 47 255
3 0 1 2
3 3 4 5
3 6 7 8
3 9 10 11
3 12 13 14
3 15 16 17
3 18 19 20
3 21 22 23
3 24 25 26
3 27 28 29
3 30 31 32
3 33 34 35
3 36 37 38
3 39 40 41
3 42 43 44
3 45 46 47
3 48 49 50
3 51 52 53
3 54 55 56
3 57 58 59
3 60 61 62
3 63 64 65
3 66 67 68
3 69 70 71
3 72 73 74
3 75 76 77
3 78 79 80
3 81 82 83
3 84 85 86
3 87 88 89
3 90 91 92
3 93 94 95
3 96 97 98
3 99 100 101
3 102 103 104
3 105 106 107
3 108 109 110
3 111 112 113
3 114 115 116
3 117 118 119
3 120 121 122
3 123 124 125
3 126 127 128
3 129 130 131
3 132 133 134
3 135 136 137
3 138 139 140
3 141 142 143
3 144 145 146
3 147 148 149
3 150 151 152
3 153 154 155
3 156 157 158
3 159 160 161
3 162 163 164
3 165 166 167
3 168 169 170
3 171 172 173
3 174 175 176
