ply
format ascii 1.0
comment Created by Blender 2.83.0 - www.blender.org, source file: 'berry_bush_young.blend'
element vertex 128
property float x
property float y
property float z
property float nx
property float ny
property float nz
property uchar red
property uchar green
property uchar blue
property uchar alpha
element face 32
property list uchar uint vertex_indices
end_header
-0.024800 0.086429 0.025094 -0.333991 0.173773 0.926419 72 209 50 255
0.010672 0.093424 0.036570 -0.333991 0.173773 0.926419 72 209 50 255
0.015290 0.159094 0.025917 -0.333991 0.173773 0.926419 72 209 50 255
-0.008200 0.154462 0.018317 -0.333991 0.173773 0.926419 72 209 50 255
0.009043 0.050801 0.057942 -0.217008 0.542244 0.811714 59 170 40 255
0.010672 0.093424 0.036570 -0.217008 0.542244 0.811714 72 209 50 255
-0.024800 0.086429 0.025094 -0.217008 0.542244 0.811714 72 209 50 255
-0.042263 0.056069 0.047373 -0.217008 0.542244 0.811714 59 170 40 255
-0.074637 0.058448 -0.004740 -0.734693 0.533242 -0.419379 59 170 40 255
-0.039437 0.111909 -0.013437 -0.734693 0.533242 -0.419379 72 209 50 255
-0.024813 0.101193 -0.037674 -0.734693 0.533242 -0.419379 64 184 44 255
-0.058192 0.050735 -0.058365 -0.734693 0.533242 -0.419379 59 170 40 255
0.003672 -0.046982 -0.004463 0.257428 -0.765497 0.589700 59 170 40 255
0.070377 -0.029911 -0.011135 0.257428 -0.765497 0.589700 59 170 40 255
0.061584 0.012655 0.047672 0.257428 -0.765497 0.589700 59 170 40 255
0.002725 0.002743 0.060787 0.257428 -0.765497 0.589700 59 170 40 255
0.084003 0.054130 -0.004746 0.726421 0.588209 0.355419 59 170 40 255
0.052438 0.107436 -0.013049 0.726421 0.588209 0.355419 68 198 47 255
0.043139 0.091045 0.017681 0.726421 0.588209 0.355419 64 183 43 255
0.061353 0.063171 0.041987 0.726421 0.588209 0.355419 59 170 40 255
0.003213 0.048938 -0.075775 0.115886 0.525148 -0.843084 59 170 40 255
0.006332 0.107374 -0.049777 0.115886 0.525148 -0.843084 71 206 49 255
0.035143 0.099656 -0.039795 0.115886 0.525148 -0.843084 71 205 49 255
0.059853 0.078523 -0.060392 0.115886 0.525148 -0.843084 59 170 40 255
0.009896 -0.031168 -0.059969 0.325591 -0.151884 -0.933232 59 170 40 255
0.003213 0.048938 -0.075775 0.325591 -0.151884 -0.933232 59 170 40 255
0.059853 0.078523 -0.060392 0.325591 -0.151884 -0.933232 59 170 40 255
0.056926 0.019235 -0.052202 0.325591 -0.151884 -0.933232 59 170 40 255
-0.050906 0.007054 -0.056449 -0.217995 -0.162388 -0.962345 59 170 40 255
-0.058192 0.050735 -0.058365 -0.217995 -0.162388 -0.962345 59 170 40 255
0.003213 0.048938 -0.075775 -0.217995 -0.162388 -0.962345 59 170 40 255
0.009896 -0.031168 -0.059969 -0.217995 -0.162388 -0.962345 59 170 40 255
-0.058192 0.050735 -0.058365 -0.289752 0.457551 -0.840649 59 170 40 255
-0.024813 0.101193 -0.037674 -0.289752 0.457551 -0.840649 64 184 44 255
0.006332 0.107374 -0.049777 -0.289752 0.457551 -0.840649 71 206 49 255
0.003213 0.048938 -0.075775 -0.289752 0.457551 -0.840649 59 170 40 255
0.070377 -0.029911 -0.011135 0.940295 -0.095316 0.326742 59 170 40 255
0.084003 0.054130 -0.004746 0.940295 -0.095316 0.326742 59 170 40 255
0.061353 0.063171 0.041987 0.940295 -0.095316 0.326742 59 170 40 255
0.061584 0.012655 0.047672 0.940295 -0.095316 0.326742 59 170 40 255
0.056926 0.019235 -0.052202 0.895743 -0.108869 -0.431037 59 170 40 255
0.059853 0.078523 -0.060392 0.895743 -0.108869 -0.431037 59 170 40 255
0.084003 0.054130 -0.004746 0.895743 -0.108869 -0.431037 59 170 40 255
0.070377 -0.029911 -0.011135 0.895743 -0.108869 -0.431037 59 170 40 255
0.059853 0.078523 -0.060392 0.750694 0.609581 -0.254695 59 170 40 255
0.035143 0.099656 -0.039795 0.750694 0.609581 -0.254695 71 205 49 255
0.052438 0.107436 -0.013049 0.750694 0.609581 -0.254695 68 198 47 255
0.084003 0.054130 -0.004746 0.750694 0.609581 -0.254695 59 170 40 255
-0.059073 -0.002703 -0.005646 -0.456039 -0.745956 0.485363 59 170 40 255
0.003672 -0.046982 -0.004463 -0.456039 -0.745956 0.485363 59 170 40 255
0.002725 0.002743 0.060787 -0.456039 -0.745956 0.485363 59 170 40 255
-0.047682 0.020517 0.051026 -0.456039 -0.745956 0.485363 59 170 40 255
-0.050906 0.007054 -0.056449 -0.538909 -0.799508 -0.265260 59 170 40 255
0.009896 -0.031168 -0.059969 -0.538909 -0.799508 -0.265260 59 170 40 255
0.003672 -0.046982 -0.004463 -0.538909 -0.799508 -0.265260 59 170 40 255
-0.059073 -0.002703 -0.005646 -0.538909 -0.799508 -0.265260 59 170 40 255
0.009896 -0.031168 -0.059969 0.438292 -0.730274 -0.524023 59 170 40 255
0.056926 0.019235 -0.052202 0.438292 -0.730274 -0.524023 59 170 40 255
0.070377 -0.029911 -0.011135 0.438292 -0.730274 -0.524023 59 170 40 255
0.003672 -0.046982 -0.004463 0.438292 -0.730274 -0.524023 59 170 40 255
-0.059073 -0.002703 -0.005646 -0.950820 -0.209452 -0.228191 59 170 40 255
-0.074637 0.058448 -0.004740 -0.950820 -0.209452 -0.228191 59 170 40 255
-0.058192 0.050735 -0.058365 -0.950820 -0.209452 -0.228191 59 170 40 255
-0.050906 0.007054 -0.056449 -0.950820 -0.209452 -0.228191 59 170 40 255
-0.047682 0.020517 0.051026 -0.918574 -0.085408 0.385912 59 170 40 255
-0.042263 0.056069 0.047373 -0.918574 -0.085408 0.385912 59 170 40 255
-0.074637 0.058448 -0.004740 -0.918574 -0.085408 0.385912 59 170 40 255
-0.059073 -0.002703 -0.005646 -0.918574 -0.085408 0.385912 59 170 40 255
-0.042263 0.056069 0.047373 -0.632413 0.584981 0.507790 59 170 40 255
-0.024800 0.086429 0.025094 -0.632413 0.584981 0.507790 72 209 50 255
-0.039437 0.111909 -0.013437 -0.632413 0.584981 0.507790 72 209 50 255
-0.074637 0.058448 -0.004740 -0.632413 0.584981 0.507790 59 170 40 255
0.002725 0.002743 0.060787 -0.173080 0.100459 0.979771 59 170 40 255
0.009043 0.050801 0.057942 -0.173080 0.100459 0.979771 59 170 40 255
-0.042263 0.056069 0.047373 -0.173080 0.100459 0.979771 59 170 40 255
-0.047682 0.020517 0.051026 -0.173080 0.100459 0.979771 59 170 40 255
0.061584 0.012655 0.047672 0.239413 0.069032 0.968461 59 170 40 255
0.061353 0.063171 0.041987 0.239413 0.069032 0.968461 59 170 40 255
0.009043 0.050801 0.057942 0.239413 0.069032 0.968461 59 170 40 255
0.002725 0.002743 0.060787 0.239413 0.069032 0.968461 59 170 40 255
0.061353 0.063171 0.041987 0.254978 0.567327 0.783024 59 170 40 255
0.043139 0.091045 0.017681 0.254978 0.567327 0.783024 64 183 43 255
0.010672 0.093424 0.036570 0.254978 0.567327 0.783024 72 209 50 255
0.009043 0.050801 0.057942 0.254978 0.567327 0.783024 59 170 40 255
0.052438 0.107436 -0.013049 0.800760 0.181907 -0.570695 68 198 47 255
0.035143 0.099656 -0.039795 0.800760 0.181907 -0.570695 71 205 49 255
0.031495 0.163221 -0.024653 0.800760 0.181907 -0.570695 71 205 49 255
0.042948 0.168373 -0.006941 0.800760 0.181907 -0.570695 68 198 47 255
0.035143 0.099656 -0.039795 0.373851 0.235179 -0.897177 71 205 49 255
0.006332 0.107374 -0.049777 0.373851 0.235179 -0.897177 71 206 49 255
0.012416 0.168332 -0.031263 0.373851 0.235179 -0.897177 71 206 49 255
0.031495 0.163221 -0.024653 0.373851 0.235179 -0.897177 71 205 49 255
-0.039437 0.111909 -0.013437 -0.837200 0.252596 0.485069 72 209 50 255
-0.024800 0.086429 0.025094 -0.837200 0.252596 0.485069 72 209 50 255
-0.008200 0.154462 0.018317 -0.837200 0.252596 0.485069 72 209 50 255
-0.017893 0.171335 -0.007198 -0.837200 0.252596 0.485069 72 209 50 255
0.011116 0.183166 -0.002072 -0.367532 0.690149 0.623390 72 209 50 255
-0.017893 0.171335 -0.007198 -0.367532 0.690149 0.623390 72 209 50 255
-0.008200 0.154462 0.018317 -0.367532 0.690149 0.623390 72 209 50 255
0.015290 0.159094 0.025917 -0.367532 0.690149 0.623390 72 209 50 255
0.042948 0.168373 -0.006941 0.403347 0.733773 0.546706 68 198 47 255
0.011116 0.183166 -0.002072 0.403347 0.733773 0.546706 72 209 50 255
0.015290 0.159094 0.025917 0.403347 0.733773 0.546706 72 209 50 255
0.036790 0.157519 0.013408 0.403347 0.733773 0.546706 64 183 43 255
0.031495 0.163221 -0.024653 0.341456 0.835751 -0.430033 71 205 49 255
0.012416 0.168332 -0.031263 0.341456 0.835751 -0.430033 71 206 49 255
0.011116 0.183166 -0.002072 0.341456 0.835751 -0.430033 72 209 50 255
0.042948 0.168373 -0.006941 0.341456 0.835751 -0.430033 68 198 47 255
0.012416 0.168332 -0.031263 -0.293918 0.830150 -0.473775 71 206 49 255
-0.008208 0.164239 -0.023248 -0.293918 0.830150 -0.473775 64 184 44 255
-0.017893 0.171335 -0.007198 -0.293918 0.830150 -0.473775 72 209 50 255
0.011116 0.183166 -0.002072 -0.293918 0.830150 -0.473775 72 209 50 255
0.006332 0.107374 -0.049777 -0.396830 0.302787 -0.866514 71 206 49 255
-0.024813 0.101193 -0.037674 -0.396830 0.302787 -0.866514 64 184 44 255
-0.008208 0.164239 -0.023248 -0.396830 0.302787 -0.866514 64 184 44 255
0.012416 0.168332 -0.031263 -0.396830 0.302787 -0.866514 71 206 49 255
-0.024813 0.101193 -0.037674 -0.737038 0.329179 -0.590268 64 184 44 255
-0.039437 0.111909 -0.013437 -0.737038 0.329179 -0.590268 72 209 50 255
-0.017893 0.171335 -0.007198 -0.737038 0.329179 -0.590268 72 209 50 255
-0.008208 0.164239 -0.023248 -0.737038 0.329179 -0.590268 64 184 44 255
0.010672 0.093424 0.036570 0.505842 0.103359 0.856411 72 209 50 255
0.043139 0.091045 0.017681 0.505842 0.103359 0.856411 64 183 43 255
0.036790 0.157519 0.013408 0.505842 0.103359 0.856411 64 183 43 255
0.015290 0.159094 0.025917 0.505842 0.103359 0.856411 72 209 50 255
0.043139 0.091045 0.017681 0.933238 0.111094 0.341650 64 183 43 255
0.052438 0.107436 -0.013049 0.933238 0.111094 0.341650 68 198 47 255
0.042948 0.168373 -0.006941 0.933238 0.111094 0.341650 68 198 47 255
0.036790 0.157519 0.013408 0.933238 0.111094 0.341650 64 183 43 255
4 0 1 2 3
4 4 5 6 7
4 8 9 10 11
4 12 13 14 15
4 16 17 18 19
4 20 21 22 23
4 24 25 26 27
4 28 29 30 31
4 32 33 34 35
4 36 37 38 39
4 40 41 42 43
4 44 45 46 47
4 48 49 50 51
4 52 53 54 55
4 56 57 58 59
4 60 61 62 63
4 64 65 66 67
4 68 69 70 71
4 72 73 74 75
4 76 77 78 79
4 80 81 82 83
4 84 85 86 87
4 88 89 90 91
4 92 93 94 95
4 96 97 98 99
4 100 101 102 103
4 104 105 106 107
4 108 109 110 111
4 112 113 114 115
4 116 117 118 119
4 120 121 122 123
4 124 125 126 127
