ply
format ascii 1.0
comment Created by Blender 2.83.0 - www.blender.org, source file: 'berry01.blend'
element vertex 60
property float x
property float y
property float z
property float nx
property float ny
property float nz
property uchar red
property uchar green
property uchar blue
property uchar alpha
element face 20
property list uchar uint vertex_indices
end_header
-0.162009 -0.013073 0.164606 0.724053 -0.598333 0.343139 43 65 150 255
-0.139570 -0.018698 0.107449 0.724053 -0.598333 0.343139 43 65 150 255
-0.118264 0.030377 0.148064 0.724053 -0.598333 0.343139 38 55 121 255
-0.162009 -0.013073 0.164606 -0.324735 0.604019 0.727810 43 65 150 255
-0.118264 0.030377 0.148064 -0.324735 0.604019 0.727810 38 55 121 255
-0.174798 0.029310 0.123725 -0.324735 0.604019 0.727810 43 65 149 255
-0.174798 0.029310 0.123725 0.331509 0.511945 -0.792473 43 65 149 255
-0.118264 0.030377 0.148064 0.331509 0.511945 -0.792473 38 55 121 255
-0.139570 -0.018698 0.107449 0.331509 0.511945 -0.792473 43 65 150 255
-0.174798 0.029310 0.123725 -0.817578 -0.508077 -0.270970 43 65 149 255
-0.139570 -0.018698 0.107449 -0.817578 -0.508077 -0.270970 43 65 150 255
-0.162009 -0.013073 0.164606 -0.817578 -0.508077 -0.270970 43 65 149 255
0.040846 0.011620 0.126649 -0.048293 -0.771447 0.634458 43 65 149 255
0.033450 -0.027033 0.079088 -0.048293 -0.771447 0.634458 43 65 150 255
0.089429 -0.012789 0.100668 -0.048293 -0.771447 0.634458 43 65 149 255
0.213189 0.034023 -0.060166 -0.452271 0.373921 -0.809712 43 65 150 255
0.176243 -0.015298 -0.062306 -0.452271 0.373921 -0.809712 43 65 150 255
0.158712 0.039288 -0.027306 -0.452271 0.373921 -0.809712 38 55 121 255
0.040846 0.011620 0.126649 -0.925397 0.351488 -0.141760 43 65 149 255
0.058074 0.035105 0.072415 -0.925397 0.351488 -0.141760 38 55 121 255
0.033450 -0.027033 0.079088 -0.925397 0.351488 -0.141760 43 65 150 255
0.089429 -0.012789 0.100668 0.584112 0.660600 0.471615 43 65 150 255
0.058074 0.035105 0.072415 0.584112 0.660600 0.471615 38 55 121 255
0.040846 0.011620 0.126649 0.584112 0.660600 0.471615 43 65 149 255
0.213189 0.034023 -0.060166 0.400007 0.736786 0.545106 43 65 150 255
0.158712 0.039288 -0.027306 0.400007 0.736786 0.545106 38 55 121 255
0.204349 0.001747 -0.010054 0.400007 0.736786 0.545106 43 65 149 255
0.204349 0.001747 -0.010054 -0.649617 -0.547110 0.527890 43 65 149 255
0.158712 0.039288 -0.027306 -0.649617 -0.547110 0.527890 38 55 121 255
0.176243 -0.015298 -0.062306 -0.649617 -0.547110 0.527890 43 65 150 255
0.089429 -0.012789 0.100668 0.403531 -0.254293 -0.878918 43 65 150 255
0.033450 -0.027033 0.079088 0.403531 -0.254293 -0.878918 43 65 150 255
0.058074 0.035105 0.072415 0.403531 -0.254293 -0.878918 38 55 121 255
0.204349 0.001747 -0.010054 0.783120 -0.576503 -0.233168 43 65 149 255
0.176243 -0.015298 -0.062306 0.783120 -0.576503 -0.233168 43 65 150 255
0.213189 0.034023 -0.060166 0.783120 -0.576503 -0.233168 43 65 149 255
-0.166348 -0.028278 -0.057137 0.194763 -0.964758 -0.176945 43 65 150 255
-0.111372 -0.012904 -0.080450 0.194763 -0.964758 -0.176945 43 65 150 255
-0.118421 -0.026329 -0.015012 0.194763 -0.964758 -0.176945 38 55 121 255
-0.166348 -0.028278 -0.057137 -0.659582 0.089427 0.746294 43 65 150 255
-0.118421 -0.026329 -0.015012 -0.659582 0.089427 0.746294 38 55 121 255
-0.141438 0.024292 -0.041421 -0.659582 0.089427 0.746294 43 65 149 255
-0.141438 0.024292 -0.041421 0.851880 0.487373 0.191750 43 65 149 255
-0.118421 -0.026329 -0.015012 0.851880 0.487373 0.191750 38 55 121 255
-0.111372 -0.012904 -0.080450 0.851880 0.487373 0.191750 43 65 150 255
-0.141438 0.024292 -0.041421 -0.452240 0.445303 -0.772777 43 65 149 255
-0.111372 -0.012904 -0.080450 -0.452240 0.445303 -0.772777 43 65 150 255
-0.166348 -0.028278 -0.057137 -0.452240 0.445303 -0.772777 43 65 149 255
-0.027581 -0.025105 -0.218662 0.792440 0.127487 0.596478 43 65 150 255
-0.040823 0.034930 -0.213901 0.792440 0.127487 0.596478 43 65 150 255
-0.066388 -0.009459 -0.170450 0.792440 0.127487 0.596478 38 55 121 255
-0.027581 -0.025105 -0.218662 -0.321619 -0.945652 0.048001 43 65 150 255
-0.066388 -0.009459 -0.170450 -0.321619 -0.945652 0.048001 38 55 121 255
-0.083882 -0.006501 -0.229398 -0.321619 -0.945652 0.048001 43 65 149 255
-0.083882 -0.006501 -0.229398 -0.716564 0.652923 0.245411 43 65 149 255
-0.066388 -0.009459 -0.170450 -0.716564 0.652923 0.245411 38 55 121 255
-0.040823 0.034930 -0.213901 -0.716564 0.652923 0.245411 43 65 150 255
-0.083882 -0.006501 -0.229398 0.225966 0.126440 -0.965894 43 65 149 255
-0.040823 0.034930 -0.213901 0.225966 0.126440 -0.965894 43 65 150 255
-0.027581 -0.025105 -0.218662 0.225966 0.126440 -0.965894 43 65 149 255
3 0 1 2
3 3 4 5
3 6 7 8
3 9 10 11
3 12 13 14
3 15 16 17
3 18 19 20
3 21 22 23
3 24 25 26
3 27 28 29
3 30 31 32
3 33 34 35
3 36 37 38
3 39 40 41
3 42 43 44
3 45 46 47
3 48 49 50
3 51 52 53
3 54 55 56
3 57 58 59
