ply
format ascii 1.0
comment Created by Blender 2.83.0 - www.blender.org, source file: 'berry_bush_mature_ripe.blend'
element vertex 254
property float x
property float y
property float z
property float nx
property float ny
property float nz
property uchar red
property uchar green
property uchar blue
property uchar alpha
element face 83
property list uchar uint vertex_indices
end_header
-0.085253 0.444343 0.091177 -0.525516 0.345123 0.777640 47 169 13 255
0.023611 0.600121 0.095610 -0.525516 0.345123 0.777640 45 168 6 255
-0.089424 0.605824 0.016692 -0.525516 0.345123 0.777640 47 169 13 255
0.015378 0.351208 0.197356 -0.126550 0.683182 0.719199 45 168 6 255
-0.085253 0.444343 0.091177 -0.126550 0.683182 0.719199 47 169 13 255
-0.132467 0.358977 0.163960 -0.126550 0.683182 0.719199 45 168 6 255
-0.225758 0.362487 -0.000700 -0.616394 0.755172 -0.223100 45 168 6 255
-0.092539 0.437907 -0.113478 -0.616394 0.755172 -0.223100 45 168 6 255
-0.178368 0.351110 -0.170143 -0.616394 0.755172 -0.223100 45 168 6 255
0.000000 0.150692 0.000000 0.161373 -0.929129 0.332682 49 143 34 255
0.163371 0.236809 0.161264 0.161373 -0.929129 0.332682 45 168 6 255
-0.002672 0.222496 0.201833 0.161373 -0.929129 0.332682 45 166 11 255
0.231388 0.356118 -0.000719 0.678537 0.695235 0.237141 45 168 6 255
0.110800 0.452317 0.062292 0.678537 0.695235 0.237141 47 168 13 255
0.166119 0.369453 0.146942 0.678537 0.695235 0.237141 62 172 43 255
-0.001421 0.348459 -0.225153 0.022580 0.705049 -0.708799 45 168 6 255
0.086285 0.463936 -0.107494 0.022580 0.705049 -0.708799 45 168 6 255
0.161796 0.392099 -0.176545 0.022580 0.705049 -0.708799 45 168 6 255
-0.001421 0.348459 -0.225153 0.302859 -0.248341 -0.920110 45 168 6 255
0.150229 0.246311 -0.147667 0.302859 -0.248341 -0.920110 45 168 6 255
0.017559 0.173528 -0.171691 0.302859 -0.248341 -0.920110 46 168 7 255
-0.153964 0.228720 -0.160803 -0.157529 -0.304215 -0.939488 60 171 41 255
-0.001421 0.348459 -0.225153 -0.157529 -0.304215 -0.939488 45 168 6 255
0.017559 0.173528 -0.171691 -0.157529 -0.304215 -0.939488 46 168 7 255
-0.092539 0.437907 -0.113478 -0.210684 0.671887 -0.710056 45 168 6 255
-0.001421 0.348459 -0.225153 -0.210684 0.671887 -0.710056 45 168 6 255
-0.178368 0.351110 -0.170143 -0.210684 0.671887 -0.710056 45 168 6 255
0.231388 0.356118 -0.000719 0.944698 -0.249304 0.213057 45 168 6 255
0.163371 0.236809 0.161264 0.944698 -0.249304 0.213057 45 168 6 255
0.188174 0.175343 -0.020637 0.944698 -0.249304 0.213057 45 168 6 255
0.150229 0.246311 -0.147667 0.911537 -0.177003 -0.371175 45 168 6 255
0.231388 0.356118 -0.000719 0.911537 -0.177003 -0.371175 45 168 6 255
0.188174 0.175343 -0.020637 0.911537 -0.177003 -0.371175 45 168 6 255
0.161796 0.392099 -0.176545 0.785243 0.589246 -0.190217 45 168 6 255
0.136548 0.475495 -0.022430 0.785243 0.589246 -0.190217 51 169 27 255
0.231388 0.356118 -0.000719 0.785243 0.589246 -0.190217 45 168 6 255
0.000000 0.150692 0.000000 -0.334476 -0.912420 0.235831 49 143 34 255
-0.144869 0.248162 0.171639 -0.334476 -0.912420 0.235831 45 168 7 255
-0.177002 0.214632 -0.003660 -0.334476 -0.912420 0.235831 45 168 9 255
-0.153964 0.228720 -0.160803 -0.334319 -0.933076 -0.132666 60 171 41 255
0.000000 0.150692 0.000000 -0.334319 -0.933076 -0.132666 49 143 34 255
-0.177002 0.214632 -0.003660 -0.334319 -0.933076 -0.132666 45 168 9 255
-0.177002 0.214632 -0.003660 -0.965658 -0.204759 -0.159931 45 168 9 255
-0.178368 0.351110 -0.170143 -0.965658 -0.204759 -0.159931 45 168 6 255
-0.153964 0.228720 -0.160803 -0.965658 -0.204759 -0.159931 60 171 41 255
-0.144869 0.248162 0.171639 -0.923240 -0.309014 0.228339 45 168 7 255
-0.225758 0.362487 -0.000700 -0.923240 -0.309014 0.228339 45 168 6 255
-0.177002 0.214632 -0.003660 -0.923240 -0.309014 0.228339 45 168 9 255
-0.085253 0.444343 0.091177 -0.637489 0.672748 0.375522 47 169 13 255
-0.225758 0.362487 -0.000700 -0.637489 0.672748 0.375522 45 168 6 255
-0.132467 0.358977 0.163960 -0.637489 0.672748 0.375522 45 168 6 255
0.015378 0.351208 0.197356 -0.196657 0.061619 0.978534 45 168 6 255
-0.144869 0.248162 0.171639 -0.196657 0.061619 0.978534 45 168 7 255
-0.002672 0.222496 0.201833 -0.196657 0.061619 0.978534 45 166 11 255
0.163371 0.236809 0.161264 0.237304 0.000512 0.971435 45 168 6 255
0.015378 0.351208 0.197356 0.237304 0.000512 0.971435 45 168 6 255
-0.002672 0.222496 0.201833 0.237304 0.000512 0.971435 45 166 11 255
0.166119 0.369453 0.146942 0.206727 0.542264 0.814380 62 172 43 255
0.027521 0.456554 0.124127 0.206727 0.542264 0.814380 45 168 6 255
0.015378 0.351208 0.197356 0.206727 0.542264 0.814380 45 168 6 255
0.136548 0.475495 -0.022430 0.921274 0.279676 -0.270252 51 169 27 255
0.073616 0.606402 -0.101488 0.921274 0.279676 -0.270252 45 168 6 255
0.105432 0.606377 0.006944 0.921274 0.279676 -0.270252 51 169 27 255
0.007483 0.475433 -0.144067 0.428871 0.076081 -0.900156 45 168 6 255
0.073616 0.606402 -0.101488 0.428871 0.076081 -0.900156 45 168 6 255
0.086285 0.463936 -0.107494 0.428871 0.076081 -0.900156 45 168 6 255
-0.125371 0.482170 -0.028405 -0.924638 0.139567 0.354352 45 168 6 255
-0.085253 0.444343 0.091177 -0.924638 0.139567 0.354352 47 169 13 255
-0.089424 0.605824 0.016692 -0.924638 0.139567 0.354352 45 168 6 255
-0.043696 0.219023 -0.043100 0.363655 0.931526 0.003660 143 92 45 255
-0.074531 0.230267 0.044560 0.363655 0.931526 0.003660 148 101 62 255
0.038120 0.186761 0.038716 0.363655 0.931526 0.003660 143 92 45 255
0.038120 0.186761 -0.075362 0.363655 0.931526 0.003660 143 92 45 255
0.038120 0.186761 0.038716 0.021668 -0.032032 0.999252 143 92 45 255
-0.074531 0.230267 0.044560 0.021668 -0.032032 0.999252 148 101 62 255
-0.070875 -0.029568 0.034145 0.021668 -0.032032 0.999252 143 92 45 255
0.021635 -0.029568 0.034145 0.021668 -0.032032 0.999252 143 92 45 255
-0.074531 0.230267 0.044560 -0.939959 -0.003278 -0.341273 148 101 62 255
-0.043696 0.219023 -0.043100 -0.939959 -0.003278 -0.341273 143 92 45 255
-0.045223 -0.040890 -0.033558 -0.939959 -0.003278 -0.341273 143 92 45 255
-0.070875 -0.029568 0.034145 -0.939959 -0.003278 -0.341273 143 92 45 255
0.038120 0.186761 -0.075362 0.997109 -0.075983 0.000000 143 92 45 255
0.038120 0.186761 0.038716 0.997109 -0.075983 0.000000 143 92 45 255
0.021635 -0.029568 0.034145 0.997109 -0.075983 0.000000 143 92 45 255
0.021635 -0.029568 -0.058365 0.997109 -0.075983 0.000000 143 92 45 255
-0.043696 0.219023 -0.043100 -0.362778 -0.038166 -0.931094 143 92 45 255
0.038120 0.186761 -0.075362 -0.362778 -0.038166 -0.931094 143 92 45 255
0.021635 -0.029568 -0.058365 -0.362778 -0.038166 -0.931094 143 92 45 255
-0.045223 -0.040890 -0.033558 -0.362778 -0.038166 -0.931094 143 92 45 255
0.001710 0.644695 -0.013222 -0.241139 0.880102 0.408989 74 174 60 255
-0.089424 0.605824 0.016692 -0.241139 0.880102 0.408989 47 169 13 255
0.023611 0.600121 0.095610 -0.241139 0.880102 0.408989 45 168 6 255
-0.085253 0.444343 0.091177 -0.293708 0.178533 0.939075 47 169 13 255
0.027521 0.456554 0.124127 -0.293708 0.178533 0.939075 45 168 6 255
0.023611 0.600121 0.095610 -0.293708 0.178533 0.939075 45 168 6 255
0.073616 0.606402 -0.101488 0.362681 0.925842 -0.106203 45 168 6 255
0.001710 0.644695 -0.013222 0.362681 0.925842 -0.106203 74 174 60 255
0.105432 0.606377 0.006944 0.362681 0.925842 -0.106203 51 169 27 255
-0.225758 0.362487 -0.000700 -0.709582 0.474625 -0.520792 45 168 6 255
-0.125371 0.482170 -0.028405 -0.709582 0.474625 -0.520792 45 168 6 255
-0.092539 0.437907 -0.113478 -0.709582 0.474625 -0.520792 45 168 6 255
0.007483 0.475433 -0.144067 -0.317208 0.074868 -0.945396 45 168 6 255
-0.092539 0.437907 -0.113478 -0.317208 0.074868 -0.945396 45 168 6 255
-0.035998 0.600219 -0.119596 -0.317208 0.074868 -0.945396 45 168 6 255
-0.125371 0.482170 -0.028405 -0.840186 0.275063 -0.467364 45 168 6 255
-0.035998 0.600219 -0.119596 -0.840186 0.275063 -0.467364 45 168 6 255
-0.092539 0.437907 -0.113478 -0.840186 0.275063 -0.467364 45 168 6 255
0.110800 0.452317 0.062292 0.592853 0.172401 0.786640 47 168 13 255
0.023611 0.600121 0.095610 0.592853 0.172401 0.786640 45 168 6 255
0.027521 0.456554 0.124127 0.592853 0.172401 0.786640 45 168 6 255
0.110800 0.452317 0.062292 0.933990 0.149181 0.324665 47 168 13 255
0.136548 0.475495 -0.022430 0.933990 0.149181 0.324665 51 169 27 255
0.105432 0.606377 0.006944 0.933990 0.149181 0.324665 47 168 13 255
0.015378 0.351208 0.197356 -0.286808 0.568860 0.770805 45 168 6 255
0.027521 0.456554 0.124127 -0.286808 0.568860 0.770805 45 168 6 255
-0.085253 0.444343 0.091177 -0.286808 0.568860 0.770805 47 169 13 255
0.001710 0.644695 -0.013222 0.273877 0.908088 0.316810 74 174 60 255
0.023611 0.600121 0.095610 0.273877 0.908088 0.316810 45 168 6 255
0.105432 0.606377 0.006944 0.273877 0.908088 0.316810 47 168 13 255
0.073616 0.606402 -0.101488 0.012385 0.920962 -0.389456 45 168 6 255
-0.035998 0.600219 -0.119596 0.012385 0.920962 -0.389456 45 168 6 255
0.001710 0.644695 -0.013222 0.012385 0.920962 -0.389456 74 174 60 255
-0.035998 0.600219 -0.119596 -0.440857 0.872971 -0.208726 45 168 6 255
-0.089424 0.605824 0.016692 -0.440857 0.872971 -0.208726 45 168 6 255
0.001710 0.644695 -0.013222 -0.440857 0.872971 -0.208726 74 174 60 255
0.000000 0.150692 0.000000 0.158437 -0.928656 0.335404 49 143 34 255
0.188174 0.175343 -0.020637 0.158437 -0.928656 0.335404 45 168 6 255
0.163371 0.236809 0.161264 0.158437 -0.928656 0.335404 45 168 6 255
0.231388 0.356118 -0.000719 0.689977 0.616991 0.378490 45 168 6 255
0.136548 0.475495 -0.022430 0.689977 0.616991 0.378490 51 169 27 255
0.110800 0.452317 0.062292 0.689977 0.616991 0.378490 47 168 13 255
-0.001421 0.348459 -0.225153 0.427610 0.465046 -0.775166 45 168 6 255
0.007483 0.475433 -0.144067 0.427610 0.465046 -0.775166 45 168 6 255
0.086285 0.463936 -0.107494 0.427610 0.465046 -0.775166 45 168 6 255
-0.001421 0.348459 -0.225153 0.329949 -0.208552 -0.920674 45 168 6 255
0.161796 0.392099 -0.176545 0.329949 -0.208552 -0.920674 45 168 6 255
0.150229 0.246311 -0.147667 0.329949 -0.208552 -0.920674 45 168 6 255
-0.153964 0.228720 -0.160803 -0.296096 -0.131239 -0.946099 60 171 41 255
-0.178368 0.351110 -0.170143 -0.296096 -0.131239 -0.946099 45 168 6 255
-0.001421 0.348459 -0.225153 -0.296096 -0.131239 -0.946099 45 168 6 255
-0.092539 0.437907 -0.113478 -0.420640 0.509060 -0.750946 45 168 6 255
0.007483 0.475433 -0.144067 -0.420640 0.509060 -0.750946 45 168 6 255
-0.001421 0.348459 -0.225153 -0.420640 0.509060 -0.750946 45 168 6 255
0.231388 0.356118 -0.000719 0.915174 0.024479 0.402316 45 168 6 255
0.166119 0.369453 0.146942 0.915174 0.024479 0.402316 62 172 43 255
0.163371 0.236809 0.161264 0.915174 0.024479 0.402316 45 168 6 255
0.150229 0.246311 -0.147667 0.908546 -0.149373 -0.390170 45 168 6 255
0.161796 0.392099 -0.176545 0.908546 -0.149373 -0.390170 45 168 6 255
0.231388 0.356118 -0.000719 0.908546 -0.149373 -0.390170 45 168 6 255
0.161796 0.392099 -0.176545 0.439345 0.818224 -0.370790 45 168 6 255
0.086285 0.463936 -0.107494 0.439345 0.818224 -0.370790 45 168 6 255
0.136548 0.475495 -0.022430 0.439345 0.818224 -0.370790 51 169 27 255
0.000000 0.150692 0.000000 -0.234112 -0.916946 0.323111 49 143 34 255
-0.002672 0.222496 0.201833 -0.234112 -0.916946 0.323111 45 166 11 255
-0.144869 0.248162 0.171639 -0.234112 -0.916946 0.323111 45 168 7 255
-0.153964 0.228720 -0.160803 -0.311526 -0.937258 -0.156519 60 171 41 255
0.017559 0.173528 -0.171691 -0.311526 -0.937258 -0.156519 46 168 7 255
0.000000 0.150692 0.000000 -0.311526 -0.937258 -0.156519 49 143 34 255
0.000000 0.150692 0.000000 0.116090 -0.986051 -0.119275 49 143 34 255
0.017559 0.173528 -0.171691 0.116090 -0.986051 -0.119275 46 168 7 255
0.188174 0.175343 -0.020637 0.116090 -0.986051 -0.119275 45 168 6 255
-0.177002 0.214632 -0.003660 -0.923764 -0.299847 -0.238225 45 168 9 255
-0.225758 0.362487 -0.000700 -0.923764 -0.299847 -0.238225 45 168 6 255
-0.178368 0.351110 -0.170143 -0.923764 -0.299847 -0.238225 45 168 6 255
-0.144869 0.248162 0.171639 -0.861432 0.130424 0.490841 45 168 7 255
-0.132467 0.358977 0.163960 -0.861432 0.130424 0.490841 45 168 6 255
-0.225758 0.362487 -0.000700 -0.861432 0.130424 0.490841 45 168 6 255
-0.085253 0.444343 0.091177 -0.645756 0.638550 0.418633 47 169 13 255
-0.125371 0.482170 -0.028405 -0.645756 0.638550 0.418633 45 168 6 255
-0.225758 0.362487 -0.000700 -0.645756 0.638550 0.418633 45 168 6 255
0.015378 0.351208 0.197356 -0.214833 0.091425 0.972362 45 168 6 255
-0.132467 0.358977 0.163960 -0.214833 0.091425 0.972362 45 168 6 255
-0.144869 0.248162 0.171639 -0.214833 0.091425 0.972362 45 168 7 255
0.163371 0.236809 0.161264 0.305241 0.095974 0.947426 45 168 6 255
0.166119 0.369453 0.146942 0.305241 0.095974 0.947426 62 172 43 255
0.015378 0.351208 0.197356 0.305241 0.095974 0.947426 45 168 6 255
0.166119 0.369453 0.146942 0.404044 0.771611 0.491290 62 172 43 255
0.110800 0.452317 0.062292 0.404044 0.771611 0.491290 47 168 13 255
0.027521 0.456554 0.124127 0.404044 0.771611 0.491290 45 168 6 255
0.136548 0.475495 -0.022430 0.850987 0.097428 -0.516071 51 169 27 255
0.086285 0.463936 -0.107494 0.850987 0.097428 -0.516071 45 168 6 255
0.073616 0.606402 -0.101488 0.850987 0.097428 -0.516071 45 168 6 255
0.007483 0.475433 -0.144067 0.145134 0.238858 -0.960147 45 168 6 255
-0.035998 0.600219 -0.119596 0.145134 0.238858 -0.960147 45 168 6 255
0.073616 0.606402 -0.101488 0.145134 0.238858 -0.960147 45 168 6 255
-0.125371 0.482170 -0.028405 -0.856850 0.377251 -0.351411 45 168 6 255
-0.089424 0.605824 0.016692 -0.856850 0.377251 -0.351411 45 168 6 255
-0.035998 0.600219 -0.119596 -0.856850 0.377251 -0.351411 45 168 6 255
0.110800 0.452317 0.062292 0.699705 0.263020 0.664254 47 168 13 255
0.105432 0.606377 0.006944 0.699705 0.263020 0.664254 47 168 13 255
0.023611 0.600121 0.095610 0.699705 0.263020 0.664254 45 168 6 255
0.017559 0.173528 -0.171691 0.479145 -0.697517 -0.532813 46 168 7 255
0.150229 0.246311 -0.147667 0.479145 -0.697517 -0.532813 45 168 6 255
0.188174 0.175343 -0.020637 0.479145 -0.697517 -0.532813 45 168 6 255
-0.162009 0.335771 0.164606 0.724053 -0.598333 0.343139 43 65 150 255
-0.139570 0.330146 0.107449 0.724053 -0.598333 0.343139 43 65 150 255
-0.118264 0.379221 0.148064 0.724053 -0.598333 0.343139 38 55 121 255
-0.162009 0.335771 0.164606 -0.324735 0.604019 0.727810 43 65 150 255
-0.118264 0.379221 0.148064 -0.324735 0.604019 0.727810 38 55 121 255
-0.174798 0.378154 0.123725 -0.324735 0.604019 0.727810 43 65 149 255
-0.174798 0.378154 0.123725 0.331509 0.511945 -0.792473 43 65 149 255
-0.118264 0.379221 0.148064 0.331509 0.511945 -0.792473 38 55 121 255
-0.139570 0.330146 0.107449 0.331509 0.511945 -0.792473 43 65 150 255
-0.174798 0.378154 0.123725 -0.817578 -0.508077 -0.270970 43 65 149 255
-0.139570 0.330146 0.107449 -0.817578 -0.508077 -0.270970 43 65 150 255
-0.162009 0.335771 0.164606 -0.817578 -0.508077 -0.270970 43 65 149 255
0.040846 0.519904 0.126649 -0.048293 -0.771447 0.634458 43 65 149 255
0.033450 0.481252 0.079088 -0.048293 -0.771447 0.634458 43 65 150 255
0.089429 0.495495 0.100668 -0.048293 -0.771447 0.634458 43 65 149 255
0.213189 0.437140 -0.060166 -0.452271 0.373921 -0.809712 43 65 150 255
0.176243 0.387819 -0.062306 -0.452271 0.373921 -0.809712 43 65 150 255
0.158712 0.442405 -0.027306 -0.452271 0.373921 -0.809712 38 55 121 255
0.040846 0.519904 0.126649 -0.925397 0.351488 -0.141760 43 65 149 255
0.058074 0.543389 0.072415 -0.925397 0.351488 -0.141760 38 55 121 255
0.033450 0.481252 0.079088 -0.925397 0.351488 -0.141760 43 65 150 255
0.089429 0.495495 0.100668 0.584112 0.660600 0.471615 43 65 150 255
0.058074 0.543389 0.072415 0.584112 0.660600 0.471615 38 55 121 255
0.040846 0.519904 0.126649 0.584112 0.660600 0.471615 43 65 149 255
0.213189 0.437140 -0.060166 0.400007 0.736786 0.545106 43 65 150 255
0.158712 0.442405 -0.027306 0.400007 0.736786 0.545106 38 55 121 255
0.204349 0.404864 -0.010054 0.400007 0.736786 0.545106 43 65 149 255
0.204349 0.404864 -0.010054 -0.649617 -0.547110 0.527890 43 65 149 255
0.158712 0.442405 -0.027306 -0.649617 -0.547110 0.527890 38 55 121 255
0.176243 0.387819 -0.062306 -0.649617 -0.547110 0.527890 43 65 150 255
0.089429 0.495495 0.100668 0.403531 -0.254293 -0.878918 43 65 150 255
0.033450 0.481252 0.079088 0.403531 -0.254293 -0.878918 43 65 150 255
0.058074 0.543389 0.072415 0.403531 -0.254293 -0.878918 38 55 121 255
0.204349 0.404864 -0.010054 0.783120 -0.576503 -0.233168 43 65 149 255
0.176243 0.387819 -0.062306 0.783120 -0.576503 -0.233168 43 65 150 255
0.213189 0.437140 -0.060166 0.783120 -0.576503 -0.233168 43 65 149 255
-0.166348 0.451261 -0.057137 0.194763 -0.964758 -0.176945 43 65 150 255
-0.111372 0.466636 -0.080450 0.194763 -0.964758 -0.176945 43 65 150 255
-0.118421 0.453211 -0.015012 0.194763 -0.964758 -0.176945 38 55 121 255
-0.166348 0.451261 -0.057137 -0.659582 0.089427 0.746294 43 65 150 255
-0.118421 0.453211 -0.015012 -0.659582 0.089427 0.746294 38 55 121 255
-0.141438 0.503832 -0.041421 -0.659582 0.089427 0.746294 43 65 149 255
-0.141438 0.503832 -0.041421 0.851880 0.487373 0.191750 43 65 149 255
-0.118421 0.453211 -0.015012 0.851880 0.487373 0.191750 38 55 121 255
-0.111372 0.466636 -0.080450 0.851880 0.487373 0.191750 43 65 150 255
-0.141438 0.503832 -0.041421 -0.452240 0.445303 -0.772777 43 65 149 255
-0.111372 0.466636 -0.080450 -0.452240 0.445303 -0.772777 43 65 150 255
-0.166348 0.451261 -0.057137 -0.452240 0.445303 -0.772777 43 65 149 255
-0.027581 0.276773 -0.218662 0.792440 0.127487 0.596478 43 65 150 255
-0.040823 0.336807 -0.213901 0.792440 0.127487 0.596478 43 65 150 255
-0.066388 0.292418 -0.170450 0.792440 0.127487 0.596478 38 55 121 255
-0.027581 0.276773 -0.218662 -0.321619 -0.945652 0.048001 43 65 150 255
-0.066388 0.292418 -0.170450 -0.321619 -0.945652 0.048001 38 55 121 255
-0.083882 0.295376 -0.229398 -0.321619 -0.945652 0.048001 43 65 149 255
-0.083882 0.295376 -0.229398 -0.716564 0.652923 0.245411 43 65 149 255
-0.066388 0.292418 -0.170450 -0.716564 0.652923 0.245411 38 55 121 255
-0.040823 0.336807 -0.213901 -0.716564 0.652923 0.245411 43 65 150 255
-0.083882 0.295376 -0.229398 0.225966 0.126440 -0.965894 43 65 149 255
-0.040823 0.336807 -0.213901 0.225966 0.126440 -0.965894 43 65 150 255
-0.027581 0.276773 -0.218662 0.225966 0.126440 -0.965894 43 65 149 255
3 0 1 2
3 3 4 5
3 6 7 8
3 9 10 11
3 12 13 14
3 15 16 17
3 18 19 20
3 21 22 23
3 24 25 26
3 27 28 29
3 30 31 32
3 33 34 35
3 36 37 38
3 39 40 41
3 42 43 44
3 45 46 47
3 48 49 50
3 51 52 53
3 54 55 56
3 57 58 59
3 60 61 62
3 63 64 65
3 66 67 68
4 69 70 71 72
4 73 74 75 76
4 77 78 79 80
4 81 82 83 84
4 85 86 87 88
3 89 90 91
3 92 93 94
3 95 96 97
3 98 99 100
3 101 102 103
3 104 105 106
3 107 108 109
3 110 111 112
3 113 114 115
3 116 117 118
3 119 120 121
3 122 123 124
3 125 126 127
3 128 129 130
3 131 132 133
3 134 135 136
3 137 138 139
3 140 141 142
3 143 144 145
3 146 147 148
3 149 150 151
3 152 153 154
3 155 156 157
3 158 159 160
3 161 162 163
3 164 165 166
3 167 168 169
3 170 171 172
3 173 174 175
3 176 177 178
3 179 180 181
3 182 183 184
3 185 186 187
3 188 189 190
3 191 192 193
3 194 195 196
3 197 198 199
3 200 201 202
3 203 204 205
3 206 207 208
3 209 210 211
3 212 213 214
3 215 216 217
3 218 219 220
3 221 222 223
3 224 225 226
3 227 228 229
3 230 231 232
3 233 234 235
3 236 237 238
3 239 240 241
3 242 243 244
3 245 246 247
3 248 249 250
3 251 252 253
