ply
format ascii 1.0
comment Created by Blender 2.80 (sub 75) - www.blender.org, source file: 'branch01.blend'
element vertex 78
property float x
property float y
property float z
property float nx
property float ny
property float nz
property uchar red
property uchar green
property uchar blue
property uchar alpha
element face 26
property list uchar uint vertex_indices
end_header
0.008805 0.008445 0.050252 0.972092 -0.016589 0.234013 117 101 38 255
0.008562 0.032410 0.052960 0.972092 -0.016589 0.234013 117 101 37 255
-0.015024 0.009221 0.149292 0.972092 -0.016589 0.234013 117 101 38 255
-0.020552 0.007191 -0.043826 -0.990387 -0.000000 -0.138326 117 101 37 255
-0.020552 0.024805 -0.043826 -0.990387 -0.000000 -0.138326 117 101 38 255
-0.005814 0.019615 -0.149346 -0.990387 -0.000000 -0.138326 117 101 37 255
-0.020552 0.007191 -0.043826 -0.987625 0.091847 -0.127127 117 101 37 255
-0.005814 0.019615 -0.149346 -0.987625 0.091847 -0.127127 117 101 37 255
-0.007824 -0.001436 -0.148937 -0.987625 0.091847 -0.127127 117 101 37 255
-0.007824 -0.001436 -0.148937 -0.501890 0.031164 -0.864370 117 101 37 255
-0.005814 0.019615 -0.149346 -0.501890 0.031164 -0.864370 117 101 37 255
0.004916 0.016584 -0.155685 -0.501890 0.031164 -0.864370 117 101 38 255
-0.007824 -0.001436 -0.148937 -0.402714 -0.057356 -0.913527 117 101 37 255
0.004916 0.016584 -0.155685 -0.402714 -0.057356 -0.913527 117 101 38 255
0.008784 0.000776 -0.156398 -0.402714 -0.057356 -0.913527 124 110 60 255
-0.001661 0.011688 -0.040328 0.211743 -0.971626 0.105389 117 101 37 255
-0.020552 0.007191 -0.043826 0.211743 -0.971626 0.105389 117 101 37 255
-0.007824 -0.001436 -0.148937 0.211743 -0.971626 0.105389 117 101 37 255
-0.001661 0.011688 -0.040328 0.178778 -0.977941 0.108023 117 101 37 255
-0.007824 -0.001436 -0.148937 0.178778 -0.977941 0.108023 117 101 37 255
0.008784 0.000776 -0.156398 0.178778 -0.977941 0.108023 124 110 60 255
-0.020552 0.024805 -0.043826 -0.362012 0.920020 -0.150036 117 101 38 255
-0.001661 0.032809 -0.040328 -0.362012 0.920020 -0.150036 117 101 37 255
0.004916 0.016584 -0.155685 -0.362012 0.920020 -0.150036 117 101 38 255
-0.020552 0.024805 -0.043826 0.266187 0.963867 -0.010233 117 101 38 255
0.004916 0.016584 -0.155685 0.266187 0.963867 -0.010233 117 101 38 255
-0.005814 0.019615 -0.149346 0.266187 0.963867 -0.010233 117 101 37 255
-0.004801 0.032968 0.047997 0.041849 0.999124 -0.000315 117 101 37 255
0.008562 0.032410 0.052960 0.041849 0.999124 -0.000315 117 101 37 255
-0.001661 0.032809 -0.040328 0.041849 0.999124 -0.000315 117 101 37 255
-0.004801 0.032968 0.047997 -0.387635 0.921684 -0.015442 117 101 37 255
-0.001661 0.032809 -0.040328 -0.387635 0.921684 -0.015442 117 101 37 255
-0.020552 0.024805 -0.043826 -0.387635 0.921684 -0.015442 117 101 38 255
0.008805 0.008445 0.050252 -0.035321 -0.999080 0.024331 117 101 38 255
-0.008407 0.008998 0.047997 -0.035321 -0.999080 0.024331 117 101 37 255
-0.020552 0.007191 -0.043826 -0.035321 -0.999080 0.024331 117 101 37 255
0.008805 0.008445 0.050252 0.242045 -0.968242 -0.062630 117 101 38 255
-0.020552 0.007191 -0.043826 0.242045 -0.968242 -0.062630 117 101 37 255
-0.001661 0.011688 -0.040328 0.242045 -0.968242 -0.062630 117 101 37 255
-0.008407 0.008998 0.047997 -0.976997 0.146963 0.154526 117 101 37 255
-0.004801 0.032968 0.047997 -0.976997 0.146963 0.154526 117 101 37 255
-0.020552 0.024805 -0.043826 -0.976997 0.146963 0.154526 117 101 38 255
-0.008407 0.008998 0.047997 -0.991366 0.000000 0.131127 117 101 37 255
-0.020552 0.024805 -0.043826 -0.991366 0.000000 0.131127 117 101 38 255
-0.020552 0.007191 -0.043826 -0.991366 0.000000 0.131127 117 101 37 255
0.008784 0.000776 -0.156398 0.971337 0.236678 0.022091 124 110 60 255
0.004916 0.016584 -0.155685 0.971337 0.236678 0.022091 117 101 38 255
-0.001661 0.032809 -0.040328 0.971337 0.236678 0.022091 117 101 37 255
0.008784 0.000776 -0.156398 0.995975 -0.000000 0.089627 124 110 60 255
-0.001661 0.032809 -0.040328 0.995975 -0.000000 0.089627 117 101 37 255
-0.001661 0.011688 -0.040328 0.995975 -0.000000 0.089627 117 101 37 255
-0.015024 0.009221 0.149292 -0.986797 0.148437 -0.064792 117 101 38 255
-0.004801 0.032968 0.047997 -0.986797 0.148437 -0.064792 117 101 37 255
-0.008407 0.008998 0.047997 -0.986797 0.148437 -0.064792 117 101 37 255
-0.015024 0.009221 0.149292 -0.032158 -0.999483 0.000094 117 101 38 255
-0.008407 0.008998 0.047997 -0.032158 -0.999483 0.000094 117 101 37 255
0.008805 0.008445 0.050252 -0.032158 -0.999483 0.000094 117 101 38 255
-0.015024 0.009221 0.149292 -0.042508 0.973667 0.223977 117 101 38 255
0.008562 0.032410 0.052960 -0.042508 0.973667 0.223977 117 101 37 255
-0.004801 0.032968 0.047997 -0.042508 0.973667 0.223977 117 101 37 255
-0.001661 0.011688 -0.040328 0.994049 0.000000 -0.108934 117 101 37 255
-0.001661 0.032809 -0.040328 0.994049 0.000000 -0.108934 117 101 37 255
0.008562 0.032410 0.052960 0.994049 0.000000 -0.108934 117 101 37 255
-0.001661 0.011688 -0.040328 0.993223 0.022936 -0.113939 117 101 37 255
0.008562 0.032410 0.052960 0.993223 0.022936 -0.113939 117 101 37 255
0.008805 0.008445 0.050252 0.993223 0.022936 -0.113939 117 101 38 255
-0.000647 0.014146 0.009618 0.688755 -0.021290 -0.724681 117 101 38 255
0.001036 0.028290 0.010803 0.688755 -0.021290 -0.724681 117 101 37 255
0.055279 0.014734 0.062755 0.688755 -0.021290 -0.724681 117 101 38 255
0.055279 0.014734 0.062755 -0.539549 0.241041 0.806714 117 101 38 255
-0.005357 0.029838 0.017687 -0.539549 0.241041 0.806714 117 101 37 255
-0.008645 0.014566 0.020051 -0.539549 0.241041 0.806714 117 101 37 255
0.055279 0.014734 0.062755 -0.016001 -0.999483 0.027895 117 101 38 255
-0.008645 0.014566 0.020051 -0.016001 -0.999483 0.027895 117 101 37 255
-0.000647 0.014146 0.009618 -0.016001 -0.999483 0.027895 117 101 38 255
0.055279 0.014734 0.062755 0.239100 0.970988 0.003725 117 101 38 255
0.001036 0.028290 0.010803 0.239100 0.970988 0.003725 117 101 37 255
-0.005357 0.029838 0.017687 0.239100 0.970988 0.003725 117 101 37 255
3 0 1 2
3 3 4 5
3 6 7 8
3 9 10 11
3 12 13 14
3 15 16 17
3 18 19 20
3 21 22 23
3 24 25 26
3 27 28 29
3 30 31 32
3 33 34 35
3 36 37 38
3 39 40 41
3 42 43 44
3 45 46 47
3 48 49 50
3 51 52 53
3 54 55 56
3 57 58 59
3 60 61 62
3 63 64 65
3 66 67 68
3 69 70 71
3 72 73 74
3 75 76 77
