ply
format ascii 1.0
comment Created by Blender 2.83.0 - www.blender.org, source file: 'bush_mature.blend'
element vertex 116
property float x
property float y
property float z
property float nx
property float ny
property float nz
property uchar red
property uchar green
property uchar blue
property uchar alpha
element face 29
property list uchar uint vertex_indices
end_header
0.000000 0.657475 0.000000 -0.218618 0.905401 0.363945 74 174 60 255
-0.165031 0.622737 -0.031976 -0.218618 0.905401 0.363945 45 168 6 255
-0.124022 0.573576 0.134221 -0.218618 0.905401 0.363945 47 169 13 255
0.044115 0.586830 0.182982 -0.218618 0.905401 0.363945 45 168 6 255
0.016426 0.398697 0.217290 -0.245816 0.247729 0.937126 45 168 6 255
0.044115 0.586830 0.182982 -0.245816 0.247729 0.937126 45 168 6 255
-0.124022 0.573576 0.134221 -0.245816 0.247729 0.937126 47 169 13 255
-0.145762 0.407220 0.180655 -0.245816 0.247729 0.937126 45 168 6 255
-0.248105 0.411071 0.000020 -0.893935 0.331253 -0.301914 45 168 6 255
-0.165031 0.622737 -0.031976 -0.893935 0.331253 -0.301914 45 168 6 255
-0.135151 0.565288 -0.165221 -0.893935 0.331253 -0.301914 45 168 6 255
-0.196117 0.398590 -0.185861 -0.893935 0.331253 -0.301914 45 168 6 255
0.000000 0.150692 0.000000 0.159898 -0.928893 0.334051 49 143 34 255
0.188174 0.175343 -0.020637 0.159898 -0.928893 0.334051 45 168 6 255
0.163371 0.236809 0.161264 0.159898 -0.928893 0.334051 45 168 6 255
-0.002672 0.222496 0.201833 0.159898 -0.928893 0.334051 45 166 11 255
0.253392 0.404084 0.000000 0.875285 0.340854 0.343067 45 168 6 255
0.181093 0.614110 -0.030371 0.875285 0.340854 0.343067 51 169 27 255
0.146061 0.582503 0.096569 0.875285 0.340854 0.343067 47 168 13 255
0.181790 0.418713 0.161986 0.875285 0.340854 0.343067 62 172 43 255
-0.002003 0.395682 -0.246208 0.262762 0.319214 -0.910527 45 168 6 255
0.007397 0.613992 -0.182091 0.262762 0.319214 -0.910527 45 168 6 255
0.115939 0.599108 -0.140855 0.262762 0.319214 -0.910527 45 168 6 255
0.177048 0.443555 -0.192885 0.262762 0.319214 -0.910527 45 168 6 255
0.017559 0.173528 -0.171691 0.327492 -0.264619 -0.907043 46 168 7 255
-0.002003 0.395682 -0.246208 0.327492 -0.264619 -0.907043 45 168 6 255
0.177048 0.443555 -0.192885 0.327492 -0.264619 -0.907043 45 168 6 255
0.150229 0.246311 -0.147667 0.327492 -0.264619 -0.907043 45 168 6 255
-0.153964 0.228720 -0.160803 -0.225585 -0.273050 -0.935176 60 171 41 255
-0.196117 0.398590 -0.185861 -0.225585 -0.273050 -0.935176 45 168 6 255
-0.002003 0.395682 -0.246208 -0.225585 -0.273050 -0.935176 45 168 6 255
0.017559 0.173528 -0.171691 -0.225585 -0.273050 -0.935176 46 168 7 255
-0.196117 0.398590 -0.185861 -0.248737 0.251379 -0.935382 45 168 6 255
-0.135151 0.565288 -0.165221 -0.248737 0.251379 -0.935382 45 168 6 255
0.007397 0.613992 -0.182091 -0.248737 0.251379 -0.935382 45 168 6 255
-0.002003 0.395682 -0.246208 -0.248737 0.251379 -0.935382 45 168 6 255
0.188174 0.175343 -0.020637 0.929632 -0.205257 0.306030 45 168 6 255
0.253392 0.404084 0.000000 0.929632 -0.205257 0.306030 45 168 6 255
0.181790 0.418713 0.161986 0.929632 -0.205257 0.306030 62 172 43 255
0.163371 0.236809 0.161264 0.929632 -0.205257 0.306030 45 168 6 255
0.150229 0.246311 -0.147667 0.893552 -0.215774 -0.393709 45 168 6 255
0.177048 0.443555 -0.192885 0.893552 -0.215774 -0.393709 45 168 6 255
0.253392 0.404084 0.000000 0.893552 -0.215774 -0.393709 45 168 6 255
0.188174 0.175343 -0.020637 0.893552 -0.215774 -0.393709 45 168 6 255
0.177048 0.443555 -0.192885 0.863295 0.337278 -0.375454 45 168 6 255
0.115939 0.599108 -0.140855 0.863295 0.337278 -0.375454 45 168 6 255
0.181093 0.614110 -0.030371 0.863295 0.337278 -0.375454 51 169 27 255
0.253392 0.404084 0.000000 0.863295 0.337278 -0.375454 45 168 6 255
-0.177002 0.214632 -0.003660 -0.286844 -0.916625 0.278422 45 168 9 255
0.000000 0.150692 0.000000 -0.286844 -0.916625 0.278422 49 143 34 255
-0.002672 0.222496 0.201833 -0.286844 -0.916625 0.278422 45 166 11 255
-0.144869 0.248162 0.171639 -0.286844 -0.916625 0.278422 45 168 7 255
-0.153964 0.228720 -0.160803 -0.322722 -0.935341 -0.144870 60 171 41 255
0.017559 0.173528 -0.171691 -0.322722 -0.935341 -0.144870 46 168 7 255
0.000000 0.150692 0.000000 -0.322722 -0.935341 -0.144870 49 143 34 255
-0.177002 0.214632 -0.003660 -0.322722 -0.935341 -0.144870 45 168 9 255
0.017559 0.173528 -0.171691 0.279680 -0.910373 -0.304960 46 168 7 255
0.150229 0.246311 -0.147667 0.279680 -0.910373 -0.304960 45 168 6 255
0.188174 0.175343 -0.020637 0.279680 -0.910373 -0.304960 45 168 6 255
0.000000 0.150692 0.000000 0.279680 -0.910373 -0.304960 49 143 34 255
-0.177002 0.214632 -0.003660 -0.931612 -0.300011 -0.205166 45 168 9 255
-0.248105 0.411071 0.000020 -0.931612 -0.300011 -0.205166 45 168 6 255
-0.196117 0.398590 -0.185861 -0.931612 -0.300011 -0.205166 45 168 6 255
-0.153964 0.228720 -0.160803 -0.931612 -0.300011 -0.205166 60 171 41 255
-0.144869 0.248162 0.171639 -0.911483 -0.197481 0.360833 45 168 7 255
-0.145762 0.407220 0.180655 -0.911483 -0.197481 0.360833 45 168 6 255
-0.248105 0.411071 0.000020 -0.911483 -0.197481 0.360833 45 168 6 255
-0.177002 0.214632 -0.003660 -0.911483 -0.197481 0.360833 45 168 9 255
-0.145762 0.407220 0.180655 -0.856849 0.321246 0.403250 45 168 6 255
-0.124022 0.573576 0.134221 -0.856849 0.321246 0.403250 47 169 13 255
-0.165031 0.622737 -0.031976 -0.856849 0.321246 0.403250 45 168 6 255
-0.248105 0.411071 0.000020 -0.856849 0.321246 0.403250 45 168 6 255
-0.002672 0.222496 0.201833 -0.220399 -0.059103 0.973617 45 166 11 255
0.016426 0.398697 0.217290 -0.220399 -0.059103 0.973617 45 168 6 255
-0.145762 0.407220 0.180655 -0.220399 -0.059103 0.973617 45 168 6 255
-0.144869 0.248162 0.171639 -0.220399 -0.059103 0.973617 45 168 7 255
0.163371 0.236809 0.161264 0.284122 -0.072958 0.956008 45 168 6 255
0.181790 0.418713 0.161986 0.284122 -0.072958 0.956008 62 172 43 255
0.016426 0.398697 0.217290 0.284122 -0.072958 0.956008 45 168 6 255
-0.002672 0.222496 0.201833 0.284122 -0.072958 0.956008 45 166 11 255
0.181790 0.418713 0.161986 0.441370 0.253962 0.860637 62 172 43 255
0.146061 0.582503 0.096569 0.441370 0.253962 0.860637 47 168 13 255
0.044115 0.586830 0.182982 0.441370 0.253962 0.860637 45 168 6 255
0.016426 0.398697 0.217290 0.441370 0.253962 0.860637 45 168 6 255
0.181093 0.614110 -0.030371 0.275491 0.915274 0.293901 51 169 27 255
0.000000 0.657475 0.000000 0.275491 0.915274 0.293901 74 174 60 255
0.044115 0.586830 0.182982 0.275491 0.915274 0.293901 45 168 6 255
0.146061 0.582503 0.096569 0.275491 0.915274 0.293901 47 168 13 255
0.115939 0.599108 -0.140855 0.200164 0.952408 -0.229900 45 168 6 255
0.007397 0.613992 -0.182091 0.200164 0.952408 -0.229900 45 168 6 255
0.000000 0.657475 0.000000 0.200164 0.952408 -0.229900 74 174 60 255
0.181093 0.614110 -0.030371 0.200164 0.952408 -0.229900 51 169 27 255
0.007397 0.613992 -0.182091 -0.233206 0.917801 -0.321335 45 168 6 255
-0.135151 0.565288 -0.165221 -0.233206 0.917801 -0.321335 45 168 6 255
-0.165031 0.622737 -0.031976 -0.233206 0.917801 -0.321335 45 168 6 255
0.000000 0.657475 0.000000 -0.233206 0.917801 -0.321335 74 174 60 255
-0.043696 0.219023 -0.043100 0.363655 0.931526 0.003660 143 92 45 255
-0.074531 0.230267 0.044560 0.363655 0.931526 0.003660 148 101 62 255
0.038120 0.186761 0.038716 0.363655 0.931526 0.003660 143 92 45 255
0.038120 0.186761 -0.075362 0.363655 0.931526 0.003660 143 92 45 255
0.038120 0.186761 0.038716 0.021668 -0.032032 0.999252 143 92 45 255
-0.074531 0.230267 0.044560 0.021668 -0.032032 0.999252 148 101 62 255
-0.070875 -0.029568 0.034145 0.021668 -0.032032 0.999252 143 92 45 255
0.021635 -0.029568 0.034145 0.021668 -0.032032 0.999252 143 92 45 255
-0.074531 0.230267 0.044560 -0.939959 -0.003278 -0.341273 148 101 62 255
-0.043696 0.219023 -0.043100 -0.939959 -0.003278 -0.341273 143 92 45 255
-0.045223 -0.040890 -0.033558 -0.939959 -0.003278 -0.341273 143 92 45 255
-0.070875 -0.029568 0.034145 -0.939959 -0.003278 -0.341273 143 92 45 255
0.038120 0.186761 -0.075362 0.997109 -0.075983 0.000000 143 92 45 255
0.038120 0.186761 0.038716 0.997109 -0.075983 0.000000 143 92 45 255
0.021635 -0.029568 0.034145 0.997109 -0.075983 0.000000 143 92 45 255
0.021635 -0.029568 -0.058365 0.997109 -0.075983 0.000000 143 92 45 255
-0.043696 0.219023 -0.043100 -0.362778 -0.038166 -0.931094 143 92 45 255
0.038120 0.186761 -0.075362 -0.362778 -0.038166 -0.931094 143 92 45 255
0.021635 -0.029568 -0.058365 -0.362778 -0.038166 -0.931094 143 92 45 255
-0.045223 -0.040890 -0.033558 -0.362778 -0.038166 -0.931094 143 92 45 255
4 0 1 2 3
4 4 5 6 7
4 8 9 10 11
4 12 13 14 15
4 16 17 18 19
4 20 21 22 23
4 24 25 26 27
4 28 29 30 31
4 32 33 34 35
4 36 37 38 39
4 40 41 42 43
4 44 45 46 47
4 48 49 50 51
4 52 53 54 55
4 56 57 58 59
4 60 61 62 63
4 64 65 66 67
4 68 69 70 71
4 72 73 74 75
4 76 77 78 79
4 80 81 82 83
4 84 85 86 87
4 88 89 90 91
4 92 93 94 95
4 96 97 98 99
4 100 101 102 103
4 104 105 106 107
4 108 109 110 111
4 112 113 114 115
