ply
format ascii 1.0
comment Created by Blender 2.83.0 - www.blender.org, source file: 'bush_young.blend'
element vertex 96
property float x
property float y
property float z
property float nx
property float ny
property float nz
property uchar red
property uchar green
property uchar blue
property uchar alpha
element face 24
property list uchar uint vertex_indices
end_header
0.004368 0.254191 -0.005697 -0.460375 0.557672 0.690693 72 209 50 255
-0.039437 0.212265 -0.013437 -0.460375 0.557672 0.690693 72 209 50 255
-0.028552 0.186772 0.026796 -0.460375 0.557672 0.690693 72 209 50 255
0.016078 0.193645 0.038600 -0.460375 0.557672 0.690693 72 209 50 255
0.009495 0.082058 0.065785 -0.219687 0.269307 0.937663 59 170 40 255
0.016078 0.193645 0.038600 -0.219687 0.269307 0.937663 72 209 50 255
-0.028552 0.186772 0.026796 -0.219687 0.269307 0.937663 72 209 50 255
-0.047999 0.087961 0.053941 -0.219687 0.269307 0.937663 59 170 40 255
-0.084277 0.090627 -0.004456 -0.864900 0.325305 -0.382262 59 170 40 255
-0.039437 0.212265 -0.013437 -0.864900 0.325305 -0.382262 72 209 50 255
-0.031506 0.182474 -0.045694 -0.864900 0.325305 -0.382262 64 184 44 255
-0.065849 0.081984 -0.064549 -0.864900 0.325305 -0.382262 59 170 40 255
0.003672 -0.046982 -0.004463 0.257428 -0.765497 0.589700 59 170 40 255
0.070377 -0.029911 -0.011135 0.257428 -0.765497 0.589700 59 170 40 255
0.061584 0.012655 0.047672 0.257428 -0.765497 0.589700 59 170 40 255
0.002725 0.002743 0.060787 0.257428 -0.765497 0.589700 59 170 40 255
0.093495 0.085788 -0.004463 0.861947 0.330335 0.384610 59 170 40 255
0.052438 0.207792 -0.013049 0.861947 0.330335 0.384610 68 198 47 255
0.043139 0.191401 0.017681 0.861947 0.330335 0.384610 64 183 43 255
0.068114 0.095919 0.047905 0.861947 0.330335 0.384610 59 170 40 255
0.002962 0.079970 -0.084059 0.195415 0.292755 -0.936006 59 170 40 255
0.006332 0.207730 -0.049777 0.195415 0.292755 -0.936006 71 206 49 255
0.035143 0.200012 -0.039795 0.195415 0.292755 -0.936006 71 205 49 255
0.066432 0.113123 -0.066820 0.195415 0.292755 -0.936006 59 170 40 255
0.009896 -0.031168 -0.059969 0.343547 -0.178390 -0.922037 59 170 40 255
0.002962 0.079970 -0.084059 0.343547 -0.178390 -0.922037 59 170 40 255
0.066432 0.113123 -0.066820 0.343547 -0.178390 -0.922037 59 170 40 255
0.056926 0.019235 -0.052202 0.343547 -0.178390 -0.922037 59 170 40 255
-0.050906 0.007054 -0.056449 -0.229167 -0.192038 -0.954255 59 170 40 255
-0.065849 0.081984 -0.064549 -0.229167 -0.192038 -0.954255 59 170 40 255
0.002962 0.079970 -0.084059 -0.229167 -0.192038 -0.954255 59 170 40 255
0.009896 -0.031168 -0.059969 -0.229167 -0.192038 -0.954255 59 170 40 255
-0.065849 0.081984 -0.064549 -0.262209 0.259694 -0.929411 59 170 40 255
-0.031506 0.182474 -0.045694 -0.262209 0.259694 -0.929411 64 184 44 255
0.006332 0.207730 -0.049777 -0.262209 0.259694 -0.929411 71 206 49 255
0.002962 0.079970 -0.084059 -0.262209 0.259694 -0.929411 59 170 40 255
0.070377 -0.029911 -0.011135 0.922894 -0.149832 0.354708 59 170 40 255
0.093495 0.085788 -0.004463 0.922894 -0.149832 0.354708 59 170 40 255
0.068114 0.095919 0.047905 0.922894 -0.149832 0.354708 59 170 40 255
0.061584 0.012655 0.047672 0.922894 -0.149832 0.354708 59 170 40 255
0.056926 0.019235 -0.052202 0.876151 -0.153708 -0.456873 59 170 40 255
0.066432 0.113123 -0.066820 0.876151 -0.153708 -0.456873 59 170 40 255
0.093495 0.085788 -0.004463 0.876151 -0.153708 -0.456873 59 170 40 255
0.070377 -0.029911 -0.011135 0.876151 -0.153708 -0.456873 59 170 40 255
0.066432 0.113123 -0.066820 0.871113 0.333514 -0.360458 59 170 40 255
0.035143 0.200012 -0.039795 0.871113 0.333514 -0.360458 71 205 49 255
0.052438 0.207792 -0.013049 0.871113 0.333514 -0.360458 68 198 47 255
0.093495 0.085788 -0.004463 0.871113 0.333514 -0.360458 59 170 40 255
-0.059073 -0.002703 -0.005646 -0.456039 -0.745956 0.485363 59 170 40 255
0.003672 -0.046982 -0.004463 -0.456039 -0.745956 0.485363 59 170 40 255
0.002725 0.002743 0.060787 -0.456039 -0.745956 0.485363 59 170 40 255
-0.047682 0.020517 0.051026 -0.456039 -0.745956 0.485363 59 170 40 255
-0.050906 0.007054 -0.056449 -0.538909 -0.799508 -0.265260 59 170 40 255
0.009896 -0.031168 -0.059969 -0.538909 -0.799508 -0.265260 59 170 40 255
0.003672 -0.046982 -0.004463 -0.538909 -0.799508 -0.265260 59 170 40 255
-0.059073 -0.002703 -0.005646 -0.538909 -0.799508 -0.265260 59 170 40 255
0.009896 -0.031168 -0.059969 0.438292 -0.730274 -0.524023 59 170 40 255
0.056926 0.019235 -0.052202 0.438292 -0.730274 -0.524023 59 170 40 255
0.070377 -0.029911 -0.011135 0.438292 -0.730274 -0.524023 59 170 40 255
0.003672 -0.046982 -0.004463 0.438292 -0.730274 -0.524023 59 170 40 255
-0.059073 -0.002703 -0.005646 -0.944701 -0.234812 -0.228918 59 170 40 255
-0.084277 0.090627 -0.004456 -0.944701 -0.234812 -0.228918 59 170 40 255
-0.065849 0.081984 -0.064549 -0.944701 -0.234812 -0.228918 59 170 40 255
-0.050906 0.007054 -0.056449 -0.944701 -0.234812 -0.228918 59 170 40 255
-0.047682 0.020517 0.051026 -0.902903 -0.153577 0.401473 59 170 40 255
-0.047999 0.087961 0.053941 -0.902903 -0.153577 0.401473 59 170 40 255
-0.084277 0.090627 -0.004456 -0.902903 -0.153577 0.401473 59 170 40 255
-0.059073 -0.002703 -0.005646 -0.902903 -0.153577 0.401473 59 170 40 255
-0.047999 0.087961 0.053941 -0.817155 0.317171 0.481311 59 170 40 255
-0.028552 0.186772 0.026796 -0.817155 0.317171 0.481311 72 209 50 255
-0.039437 0.212265 -0.013437 -0.817155 0.317171 0.481311 72 209 50 255
-0.084277 0.090627 -0.004456 -0.817155 0.317171 0.481311 59 170 40 255
0.002725 0.002743 0.060787 -0.205354 -0.043679 0.977713 59 170 40 255
0.009495 0.082058 0.065785 -0.205354 -0.043679 0.977713 59 170 40 255
-0.047999 0.087961 0.053941 -0.205354 -0.043679 0.977713 59 170 40 255
-0.047682 0.020517 0.051026 -0.205354 -0.043679 0.977713 59 170 40 255
0.061584 0.012655 0.047672 0.264694 -0.052630 0.962895 59 170 40 255
0.068114 0.095919 0.047905 0.264694 -0.052630 0.962895 59 170 40 255
0.009495 0.082058 0.065785 0.264694 -0.052630 0.962895 59 170 40 255
0.002725 0.002743 0.060787 0.264694 -0.052630 0.962895 59 170 40 255
0.068114 0.095919 0.047905 0.364547 0.278710 0.888497 59 170 40 255
0.043139 0.191401 0.017681 0.364547 0.278710 0.888497 64 183 43 255
0.016078 0.193645 0.038600 0.364547 0.278710 0.888497 72 209 50 255
0.009495 0.082058 0.065785 0.364547 0.278710 0.888497 59 170 40 255
0.052438 0.207792 -0.013049 0.586761 0.574695 0.570471 68 198 47 255
0.004368 0.254191 -0.005697 0.586761 0.574695 0.570471 72 209 50 255
0.016078 0.193645 0.038600 0.586761 0.574695 0.570471 72 209 50 255
0.043139 0.191401 0.017681 0.586761 0.574695 0.570471 64 183 43 255
0.035143 0.200012 -0.039795 0.475128 0.645933 -0.597516 71 205 49 255
0.006332 0.207730 -0.049777 0.475128 0.645933 -0.597516 71 206 49 255
0.004368 0.254191 -0.005697 0.475128 0.645933 -0.597516 72 209 50 255
0.052438 0.207792 -0.013049 0.475128 0.645933 -0.597516 68 198 47 255
0.006332 0.207730 -0.049777 -0.461788 0.596902 -0.656095 71 206 49 255
-0.031506 0.182474 -0.045694 -0.461788 0.596902 -0.656095 64 184 44 255
-0.039437 0.212265 -0.013437 -0.461788 0.596902 -0.656095 72 209 50 255
0.004368 0.254191 -0.005697 -0.461788 0.596902 -0.656095 72 209 50 255
4 0 1 2 3
4 4 5 6 7
4 8 9 10 11
4 12 13 14 15
4 16 17 18 19
4 20 21 22 23
4 24 25 26 27
4 28 29 30 31
4 32 33 34 35
4 36 37 38 39
4 40 41 42 43
4 44 45 46 47
4 48 49 50 51
4 52 53 54 55
4 56 57 58 59
4 60 61 62 63
4 64 65 66 67
4 68 69 70 71
4 72 73 74 75
4 76 77 78 79
4 80 81 82 83
4 84 85 86 87
4 88 89 90 91
4 92 93 94 95
