ply
format ascii 1.0
comment Created by Blender 2.80 (sub 75) - www.blender.org, source file: 'carcass_medium.blend'
element vertex 162
property float x
property float y
property float z
property float nx
property float ny
property float nz
property uchar red
property uchar green
property uchar blue
property uchar alpha
element face 54
property list uchar uint vertex_indices
end_header
0.039373 0.011453 0.026455 0.096254 0.994154 0.048918 207 71 62 255
0.142867 -0.001865 0.093486 0.096254 0.994154 0.048918 207 72 63 255
0.192814 -0.001865 -0.004792 0.096254 0.994154 0.048918 179 83 67 255
-0.083604 0.038720 0.056091 -0.221096 0.861513 0.457069 207 71 62 255
-0.143694 -0.001865 0.103521 -0.221096 0.861513 0.457069 168 87 69 255
-0.031556 -0.001865 0.157765 -0.221096 0.861513 0.457069 168 87 69 255
-0.083604 0.016466 -0.079248 -0.179054 0.981896 -0.061798 168 87 69 255
-0.158338 -0.001865 -0.153982 -0.179054 0.981896 -0.061798 207 71 62 255
-0.204634 -0.001865 -0.019844 -0.179054 0.981896 -0.061798 207 71 62 255
0.068133 0.038720 -0.079248 0.047428 0.891840 -0.449858 207 71 62 255
0.122438 -0.001865 -0.153982 0.047428 0.891840 -0.449858 207 71 62 255
-0.011252 -0.001865 -0.168076 0.047428 0.891840 -0.449858 207 72 63 255
-0.107123 0.005268 -0.068463 0.000000 -1.000000 0.000000 255 219 203 255
-0.143033 0.005268 -0.043062 0.000000 -1.000000 0.000000 255 218 201 255
-0.143033 0.005268 -0.086952 0.000000 -1.000000 0.000000 255 221 205 255
0.039373 0.011453 0.026455 0.176849 0.971197 -0.159690 207 71 62 255
-0.083604 0.016466 -0.079248 0.176849 0.971197 -0.159690 168 87 69 255
-0.083604 0.038720 0.056091 0.176849 0.971197 -0.159690 207 71 62 255
-0.114909 0.067905 -0.065330 0.477464 0.335816 -0.811945 255 218 201 255
-0.137162 0.072582 -0.076481 0.477464 0.335816 -0.811945 255 218 201 255
-0.122288 0.121086 -0.047674 0.477464 0.335816 -0.811945 255 218 202 255
-0.114909 0.067905 -0.065330 0.509074 0.334003 -0.793275 255 218 201 255
-0.122288 0.121086 -0.047674 0.509074 0.334003 -0.793275 255 218 202 255
-0.104933 0.109873 -0.041258 0.509074 0.334003 -0.793275 255 218 201 255
-0.107123 0.005268 -0.068463 0.455559 0.097896 -0.884807 255 219 203 255
-0.143033 0.005268 -0.086952 0.455559 0.097896 -0.884807 255 221 205 255
-0.137162 0.072582 -0.076481 0.455559 0.097896 -0.884807 255 218 201 255
-0.107123 0.005268 -0.068463 0.462671 0.101559 -0.880694 255 219 203 255
-0.137162 0.072582 -0.076481 0.462671 0.101559 -0.880694 255 218 201 255
-0.114909 0.067905 -0.065330 0.462671 0.101559 -0.880694 255 218 201 255
-0.143033 0.005268 -0.086952 -0.996008 0.089267 0.000000 255 221 205 255
-0.143033 0.005268 -0.043062 -0.996008 0.089267 0.000000 255 218 201 255
-0.137498 0.067031 -0.049529 -0.996008 0.089267 0.000000 255 218 201 255
-0.143033 0.005268 -0.086952 -0.996275 0.086065 0.005324 255 221 205 255
-0.137498 0.067031 -0.049529 -0.996275 0.086065 0.005324 255 218 201 255
-0.137162 0.072582 -0.076481 -0.996275 0.086065 0.005324 255 218 201 255
-0.143033 0.005268 -0.043062 0.577203 0.030948 0.816014 255 218 201 255
-0.107123 0.005268 -0.068463 0.577203 0.030948 0.816014 255 219 203 255
-0.114909 0.067905 -0.065330 0.577203 0.030948 0.816014 255 218 201 255
-0.143033 0.005268 -0.043062 0.571969 0.034554 0.819547 255 218 201 255
-0.114909 0.067905 -0.065330 0.571969 0.034554 0.819547 255 218 201 255
-0.137498 0.067031 -0.049529 0.571969 0.034554 0.819547 255 218 201 255
-0.104933 0.109873 -0.041258 0.592165 0.626548 -0.506733 255 218 201 255
-0.122288 0.121086 -0.047674 0.592165 0.626548 -0.506733 255 218 202 255
-0.098450 0.135504 -0.001990 0.592165 0.626548 -0.506733 255 222 206 255
-0.137498 0.067031 -0.049529 0.504082 -0.516749 0.692006 255 218 201 255
-0.114909 0.067905 -0.065330 0.504082 -0.516749 0.692006 255 218 201 255
-0.104933 0.109873 -0.041258 0.504082 -0.516749 0.692006 255 218 201 255
-0.137498 0.067031 -0.049529 0.505852 -0.517706 0.689995 255 218 201 255
-0.104933 0.109873 -0.041258 0.505852 -0.517706 0.689995 255 218 201 255
-0.124574 0.107805 -0.028410 0.505852 -0.517706 0.689995 255 218 201 255
-0.137162 0.072582 -0.076481 -0.958850 0.280197 0.045779 255 218 201 255
-0.137498 0.067031 -0.049529 -0.958850 0.280197 0.045779 255 218 201 255
-0.124574 0.107805 -0.028410 -0.958850 0.280197 0.045779 255 218 201 255
-0.137162 0.072582 -0.076481 -0.964066 0.257980 0.063424 255 218 201 255
-0.124574 0.107805 -0.028410 -0.964066 0.257980 0.063424 255 218 201 255
-0.122288 0.121086 -0.047674 -0.964066 0.257980 0.063424 255 218 202 255
0.081039 0.016060 -0.062441 -0.394292 -0.882717 -0.255624 255 218 201 255
0.057957 0.030869 -0.077977 -0.394292 -0.882717 -0.255624 255 218 201 255
0.085513 0.022151 -0.090379 -0.394292 -0.882717 -0.255624 255 218 201 255
-0.124574 0.107805 -0.028410 0.384652 -0.800753 0.459171 255 218 201 255
-0.104933 0.109873 -0.041258 0.384652 -0.800753 0.459171 255 218 201 255
-0.098450 0.135504 -0.001990 0.384652 -0.800753 0.459171 255 222 206 255
-0.122288 0.121086 -0.047674 -0.814072 0.518795 0.261034 255 218 202 255
-0.124574 0.107805 -0.028410 -0.814072 0.518795 0.261034 255 218 201 255
-0.098450 0.135504 -0.001990 -0.814072 0.518795 0.261034 255 222 206 255
0.095222 0.058418 -0.055007 0.976178 -0.109797 0.187137 255 218 201 255
0.099125 0.065213 -0.071377 0.976178 -0.109797 0.187137 255 218 201 255
0.097697 0.097570 -0.044944 0.976178 -0.109797 0.187137 255 221 205 255
0.095222 0.058418 -0.055007 0.967868 -0.118217 0.221938 255 218 201 255
0.097697 0.097570 -0.044944 0.967868 -0.118217 0.221938 255 221 205 255
0.093948 0.087033 -0.034208 0.967868 -0.118217 0.221938 255 218 201 255
0.081039 0.016060 -0.062441 0.940135 -0.331697 0.078252 255 218 201 255
0.085513 0.022151 -0.090379 0.940135 -0.331697 0.078252 255 218 201 255
0.099125 0.065213 -0.071377 0.940135 -0.331697 0.078252 255 218 201 255
0.081039 0.016060 -0.062441 0.939947 -0.330022 0.087089 255 218 201 255
0.099125 0.065213 -0.071377 0.939947 -0.330022 0.087089 255 218 201 255
0.095222 0.058418 -0.055007 0.939947 -0.330022 0.087089 255 218 201 255
0.085513 0.022151 -0.090379 -0.240915 0.456730 -0.856363 255 218 201 255
0.057957 0.030869 -0.077977 -0.240915 0.456730 -0.856363 255 218 201 255
0.080567 0.067146 -0.064990 -0.240915 0.456730 -0.856363 255 218 201 255
0.085513 0.022151 -0.090379 -0.246916 0.455481 -0.855318 255 218 201 255
0.080567 0.067146 -0.064990 -0.246916 0.455481 -0.855318 255 218 201 255
0.099125 0.065213 -0.071377 -0.246916 0.455481 -0.855318 255 218 201 255
0.057957 0.030869 -0.077977 -0.542757 0.034482 0.839181 255 218 201 255
0.081039 0.016060 -0.062441 -0.542757 0.034482 0.839181 255 218 201 255
0.095222 0.058418 -0.055007 -0.542757 0.034482 0.839181 255 218 201 255
0.057957 0.030869 -0.077977 -0.545882 0.040630 0.836877 255 218 201 255
0.095222 0.058418 -0.055007 -0.545882 0.040630 0.836877 255 218 201 255
0.080567 0.067146 -0.064990 -0.545882 0.040630 0.836877 255 218 201 255
0.093948 0.087033 -0.034208 0.855189 0.187911 0.483053 255 218 201 255
0.097697 0.097570 -0.044944 0.855189 0.187911 0.483053 255 221 205 255
0.077823 0.109283 -0.014317 0.855189 0.187911 0.483053 255 221 204 255
0.080567 0.067146 -0.064990 -0.670326 -0.455607 0.585735 255 218 201 255
0.095222 0.058418 -0.055007 -0.670326 -0.455607 0.585735 255 218 201 255
0.093948 0.087033 -0.034208 -0.670326 -0.455607 0.585735 255 218 201 255
0.080567 0.067146 -0.064990 -0.668453 -0.457680 0.586260 255 218 201 255
0.093948 0.087033 -0.034208 -0.668453 -0.457680 0.586260 255 218 201 255
0.081396 0.093618 -0.043380 -0.668453 -0.457680 0.586260 255 218 201 255
0.099125 0.065213 -0.071377 -0.195443 0.623858 -0.756706 255 218 201 255
0.080567 0.067146 -0.064990 -0.195443 0.623858 -0.756706 255 218 201 255
0.081396 0.093618 -0.043380 -0.195443 0.623858 -0.756706 255 218 201 255
0.099125 0.065213 -0.071377 -0.221109 0.611117 -0.760031 255 218 201 255
0.081396 0.093618 -0.043380 -0.221109 0.611117 -0.760031 255 218 201 255
0.097697 0.097570 -0.044944 -0.221109 0.611117 -0.760031 255 221 205 255
0.081396 0.093618 -0.043380 -0.611412 -0.725521 0.315903 255 218 201 255
0.093948 0.087033 -0.034208 -0.611412 -0.725521 0.315903 255 218 201 255
0.077823 0.109283 -0.014317 -0.611412 -0.725521 0.315903 255 221 204 255
0.097697 0.097570 -0.044944 -0.249832 0.839201 -0.483038 255 221 205 255
0.081396 0.093618 -0.043380 -0.249832 0.839201 -0.483038 255 218 201 255
0.077823 0.109283 -0.014317 -0.249832 0.839201 -0.483038 255 221 204 255
-0.018702 0.041859 0.073104 -0.786289 0.610250 0.096673 130 100 70 255
-0.035938 0.026542 0.029607 -0.786289 0.610250 0.096673 130 100 70 255
-0.042794 0.006373 0.101162 -0.786289 0.610250 0.096673 132 102 73 255
-0.003803 0.041298 0.043402 0.055995 0.614057 -0.787273 130 100 70 255
0.013648 0.010890 0.020925 0.055995 0.614057 -0.787273 130 100 70 255
-0.035938 0.026542 0.029607 0.055995 0.614057 -0.787273 130 100 70 255
-0.042794 0.006373 0.101162 0.179262 0.532407 0.827289 132 102 73 255
0.014150 0.035782 0.069897 0.179262 0.532407 0.827289 130 100 70 255
-0.018702 0.041859 0.073104 0.179262 0.532407 0.827289 130 100 70 255
0.014150 0.035782 0.069897 0.839974 0.480190 -0.252706 130 100 70 255
0.044694 -0.003915 0.095987 0.839974 0.480190 -0.252706 130 100 70 255
0.013648 0.010890 0.020925 0.839974 0.480190 -0.252706 130 100 70 255
0.014150 0.035782 0.069897 0.188543 0.979115 0.076065 130 100 70 255
-0.003803 0.041298 0.043402 0.188543 0.979115 0.076065 130 100 70 255
-0.018702 0.041859 0.073104 0.188543 0.979115 0.076065 130 100 70 255
0.192814 -0.001865 -0.004792 0.405154 0.894049 -0.191118 179 83 67 255
0.122438 -0.001865 -0.153982 0.405154 0.894049 -0.191118 207 71 62 255
0.068133 0.038720 -0.079248 0.405154 0.894049 -0.191118 207 71 62 255
0.068133 0.038720 -0.079248 0.139964 0.948896 0.282853 207 71 62 255
0.039373 0.011453 0.026455 0.139964 0.948896 0.282853 207 71 62 255
0.192814 -0.001865 -0.004792 0.139964 0.948896 0.282853 179 83 67 255
-0.031556 -0.001865 0.157765 0.046249 0.991015 0.125500 168 87 69 255
0.142867 -0.001865 0.093486 0.046249 0.991015 0.125500 207 72 63 255
0.039373 0.011453 0.026455 0.046249 0.991015 0.125500 207 71 62 255
0.039373 0.011453 0.026455 0.264504 0.934639 0.237673 207 71 62 255
-0.083604 0.038720 0.056091 0.264504 0.934639 0.237673 207 71 62 255
-0.031556 -0.001865 0.157765 0.264504 0.934639 0.237673 168 87 69 255
-0.204634 -0.001865 -0.019844 -0.427220 0.879173 0.211041 207 71 62 255
-0.143694 -0.001865 0.103521 -0.427220 0.879173 0.211041 168 87 69 255
-0.083604 0.038720 0.056091 -0.427220 0.879173 0.211041 207 71 62 255
-0.083604 0.038720 0.056091 -0.223307 0.961833 -0.158151 207 71 62 255
-0.083604 0.016466 -0.079248 -0.223307 0.961833 -0.158151 168 87 69 255
-0.204634 -0.001865 -0.019844 -0.223307 0.961833 -0.158151 207 71 62 255
-0.011252 -0.001865 -0.168076 -0.020928 0.975637 -0.218389 207 72 63 255
-0.158338 -0.001865 -0.153982 -0.020928 0.975637 -0.218389 207 71 62 255
-0.083604 0.016466 -0.079248 -0.020928 0.975637 -0.218389 168 87 69 255
-0.083604 0.016466 -0.079248 -0.138105 0.941692 -0.306827 168 87 69 255
0.068133 0.038720 -0.079248 -0.138105 0.941692 -0.306827 207 71 62 255
-0.011252 -0.001865 -0.168076 -0.138105 0.941692 -0.306827 207 72 63 255
0.039373 0.011453 0.026455 -0.141840 0.967164 0.210889 207 71 62 255
0.068133 0.038720 -0.079248 -0.141840 0.967164 0.210889 207 71 62 255
-0.083604 0.016466 -0.079248 -0.141840 0.967164 0.210889 168 87 69 255
-0.018702 0.041859 0.073104 -0.341703 0.920648 -0.188802 130 100 70 255
-0.003803 0.041298 0.043402 -0.341703 0.920648 -0.188802 130 100 70 255
-0.035938 0.026542 0.029607 -0.341703 0.920648 -0.188802 130 100 70 255
-0.003803 0.041298 0.043402 0.689802 0.642520 -0.333679 130 100 70 255
0.014150 0.035782 0.069897 0.689802 0.642520 -0.333679 130 100 70 255
0.013648 0.010890 0.020925 0.689802 0.642520 -0.333679 130 100 70 255
-0.042794 0.006373 0.101162 0.117877 0.607150 0.785795 132 102 73 255
0.044694 -0.003915 0.095987 0.117877 0.607150 0.785795 130 100 70 255
0.014150 0.035782 0.069897 0.117877 0.607150 0.785795 130 100 70 255
3 0 1 2
3 3 4 5
3 6 7 8
3 9 10 11
3 12 13 14
3 15 16 17
3 18 19 20
3 21 22 23
3 24 25 26
3 27 28 29
3 30 31 32
3 33 34 35
3 36 37 38
3 39 40 41
3 42 43 44
3 45 46 47
3 48 49 50
3 51 52 53
3 54 55 56
3 57 58 59
3 60 61 62
3 63 64 65
3 66 67 68
3 69 70 71
3 72 73 74
3 75 76 77
3 78 79 80
3 81 82 83
3 84 85 86
3 87 88 89
3 90 91 92
3 93 94 95
3 96 97 98
3 99 100 101
3 102 103 104
3 105 106 107
3 108 109 110
3 111 112 113
3 114 115 116
3 117 118 119
3 120 121 122
3 123 124 125
3 126 127 128
3 129 130 131
3 132 133 134
3 135 136 137
3 138 139 140
3 141 142 143
3 144 145 146
3 147 148 149
3 150 151 152
3 153 154 155
3 156 157 158
3 159 160 161
