ply
format ascii 1.0
comment Created by Blender 2.83.0 - www.blender.org, source file: 'cloud.blend'
element vertex 24
property float x
property float y
property float z
property float nx
property float ny
property float nz
property uchar red
property uchar green
property uchar blue
property uchar alpha
element face 8
property list uchar uint vertex_indices
end_header
-0.336465 3.330544 -0.498186 -0.302082 0.788475 -0.535773 167 243 255 255
-0.633137 3.555403 0.000000 -0.302082 0.788475 -0.535773 167 243 255 255
0.253663 3.555403 -0.500000 -0.302082 0.788475 -0.535773 167 243 255 255
0.253663 3.555403 -0.500000 0.608220 0.793768 0.000000 167 243 255 255
0.253663 3.555403 0.500000 0.608220 0.793768 0.000000 167 243 255 255
0.547118 3.330544 0.000000 0.608220 0.793768 0.000000 167 243 255 255
0.253663 3.555403 -0.500000 0.000000 1.000000 0.000000 167 243 255 255
-0.633137 3.555403 0.000000 0.000000 1.000000 0.000000 167 243 255 255
0.253663 3.555403 0.500000 0.000000 1.000000 0.000000 167 243 255 255
-0.633137 3.555403 0.000000 -0.302082 0.788475 0.535773 167 243 255 255
-0.336465 3.330544 0.498186 -0.302082 0.788475 0.535773 167 243 255 255
0.253663 3.555403 0.500000 -0.302082 0.788475 0.535773 167 243 255 255
-0.336465 3.330544 -0.498186 0.000000 -1.000000 -0.000000 167 243 255 255
0.547118 3.330544 0.000000 0.000000 -1.000000 -0.000000 167 243 255 255
-0.336465 3.330544 0.498186 0.000000 -1.000000 -0.000000 167 243 255 255
-0.336465 3.330544 -0.498186 0.300033 -0.791712 -0.532139 167 243 255 255
0.253663 3.555403 -0.500000 0.300033 -0.791712 -0.532139 167 243 255 255
0.547118 3.330544 0.000000 0.300033 -0.791712 -0.532139 167 243 255 255
0.547118 3.330544 0.000000 0.300033 -0.791712 0.532139 167 243 255 255
0.253663 3.555403 0.500000 0.300033 -0.791712 0.532139 167 243 255 255
-0.336465 3.330544 0.498186 0.300033 -0.791712 0.532139 167 243 255 255
-0.336465 3.330544 0.498186 -0.604039 -0.796955 0.000000 167 243 255 255
-0.633137 3.555403 0.000000 -0.604039 -0.796955 0.000000 167 243 255 255
-0.336465 3.330544 -0.498186 -0.604039 -0.796955 0.000000 167 243 255 255
3 0 1 2
3 3 4 5
3 6 7 8
3 9 10 11
3 12 13 14
3 15 16 17
3 18 19 20
3 21 22 23
