# Blender v2.79 (sub 0) OBJ File: ''
# www.blender.org
mtllib cylinder.mtl
o Cylinder_Cylinder.001
v 1.007186 -0.699469 -0.953011
v 1.007186 1.300531 -0.953011
v 1.714293 -0.699469 -0.660118
v 1.714293 1.300531 -0.660118
v 2.007186 -0.699469 0.046989
v 2.007186 1.300531 0.046989
v 1.714293 -0.699469 0.754096
v 1.714293 1.300531 0.754096
v 1.007186 -0.699469 1.046989
v 1.007186 1.300531 1.046989
v 0.300079 -0.699469 0.754096
v 0.300079 1.300531 0.754096
v 0.007186 -0.699469 0.046989
v 0.007186 1.300531 0.046989
v 0.300079 -0.699469 -0.660118
v 0.300079 1.300531 -0.660118
vn 0.3827 0.0000 -0.9239
vn 0.9239 0.0000 -0.3827
vn 0.9239 0.0000 0.3827
vn 0.3827 0.0000 0.9239
vn -0.3827 0.0000 0.9239
vn -0.9239 0.0000 0.3827
vn 0.0000 1.0000 0.0000
vn -0.9239 0.0000 -0.3827
vn -0.3827 0.0000 -0.9239
vn 0.0000 -1.0000 0.0000
usemtl None
s off
f 1//1 2//1 4//1 3//1
f 3//2 4//2 6//2 5//2
f 5//3 6//3 8//3 7//3
f 7//4 8//4 10//4 9//4
f 9//5 10//5 12//5 11//5
f 11//6 12//6 14//6 13//6
f 4//7 2//7 16//7 14//7 12//7 10//7 8//7 6//7
f 13//8 14//8 16//8 15//8
f 15//9 16//9 2//9 1//9
f 1//10 3//10 5//10 7//10 9//10 11//10 13//10 15//10
