ply
format ascii 1.0
comment Created by Blender 2.79 (sub 0) - www.blender.org, source file: ''
element vertex 26
property float x
property float y
property float z
property float nx
property float ny
property float nz
property uchar red
property uchar green
property uchar blue
element face 28
property list uchar uint vertex_indices
end_header
0.038816 -0.979239 0.993493 0.000000 -0.630238 0.776360 255 255 255
-0.668291 1.020761 0.700599 -0.548967 0.630238 0.548967 255 255 255
-0.668291 -0.979239 0.700600 -0.548967 -0.630238 0.548967 255 255 255
-0.668291 1.020761 0.700599 -0.548967 0.630238 0.548967 255 15 32
-0.961184 -0.979239 -0.006507 -0.776360 -0.630238 0.000000 255 15 32
-0.668291 -0.979239 0.700600 -0.548967 -0.630238 0.548967 255 15 32
-0.961184 1.020761 -0.006507 -0.776360 0.630238 0.000000 255 15 32
-0.668291 -0.979239 -0.713614 -0.548967 -0.630238 -0.548967 255 15 32
-0.668291 1.020761 -0.713614 -0.548967 0.630238 -0.548967 255 15 32
0.038816 -0.979239 -1.006507 0.000000 -0.630238 -0.776360 255 16 33
0.038816 1.020761 -1.006507 0.000000 0.630238 -0.776360 255 255 255
0.745923 -0.979239 -0.713614 0.548967 -0.630238 -0.548967 255 255 255
0.038816 -0.979239 -1.006507 0.000000 -0.630238 -0.776360 255 255 255
0.745923 1.020761 -0.713614 0.548967 0.630238 -0.548967 255 255 255
1.038816 -0.979239 -0.006507 0.776360 -0.630238 0.000000 255 255 255
1.038816 1.020761 -0.006507 0.776360 0.630238 0.000000 255 15 32
0.038816 1.020761 -1.006507 0.000000 0.630238 -0.776360 255 15 32
0.038816 1.020761 0.993492 0.000000 0.630238 0.776360 255 15 32
1.038816 1.020761 -0.006507 0.776360 0.630238 0.000000 255 255 255
0.745923 -0.979239 0.700600 0.548967 -0.630238 0.548967 255 255 255
0.745923 1.020761 0.700599 0.548967 0.630238 0.548967 255 255 255
-0.668291 -0.979239 -0.713614 -0.548967 -0.630238 -0.548967 255 255 255
0.038816 1.020761 0.993492 0.000000 0.630238 0.776360 255 255 255
0.745923 1.020761 0.700599 0.548967 0.630238 0.548967 255 15 32
0.745923 1.020761 -0.713614 0.548967 0.630238 -0.548967 255 15 32
-0.961184 -0.979239 -0.006507 -0.776360 -0.630238 0.000000 255 255 255
3 0 1 2
3 3 4 5
3 6 7 4
3 8 9 7
3 10 11 12
3 13 14 11
3 15 16 17
3 18 19 14
3 20 0 19
3 21 14 19
3 0 22 1
3 3 6 4
3 6 8 7
3 8 16 9
3 10 13 11
3 13 18 14
3 6 3 17
3 17 23 15
3 15 24 16
3 16 8 6
3 6 17 16
3 18 20 19
3 20 22 0
3 19 0 2
3 2 25 19
3 21 12 11
3 11 14 21
3 19 25 21
