ply
format ascii 1.0
comment Created by Blender 2.83.0 - www.blender.org, source file: 'fir_tree_mature.blend'
element vertex 282
property float x
property float y
property float z
property float nx
property float ny
property float nz
property uchar red
property uchar green
property uchar blue
property uchar alpha
element face 98
property list uchar uint vertex_indices
end_header
-0.179282 0.338986 -0.160091 -0.960114 0.265508 -0.087676 93 113 25 255
-0.204931 0.338986 0.120777 -0.960114 0.265508 -0.087676 115 113 33 255
0.003286 1.046541 -0.016665 -0.960114 0.265508 -0.087676 135 122 49 255
0.083817 -0.069672 0.262952 -0.311337 0.108473 0.944088 148 113 44 255
-0.204931 0.338986 0.120777 -0.311337 0.108473 0.944088 115 113 33 255
-0.252365 -0.069672 0.152088 -0.311337 0.108473 0.944088 147 113 43 255
-0.204931 0.338986 0.120777 -0.990033 0.107989 -0.090408 115 113 33 255
-0.220874 -0.069672 -0.192765 -0.990033 0.107989 -0.090408 148 113 44 255
-0.252365 -0.069672 0.152088 -0.990033 0.107989 -0.090408 147 113 43 255
0.093112 -0.069672 -0.290940 0.000000 -1.000000 -0.000000 148 113 44 255
0.312740 -0.069672 -0.014662 0.000000 -1.000000 -0.000000 148 113 44 255
0.083817 -0.069672 0.262952 0.000000 -1.000000 -0.000000 148 113 44 255
0.255323 0.338986 -0.015033 0.766979 0.108337 0.632460 120 113 36 255
0.083817 -0.069672 0.262952 0.766979 0.108337 0.632460 148 113 44 255
0.312740 -0.069672 -0.014662 0.766979 0.108337 0.632460 148 113 44 255
-0.220874 -0.069672 -0.192765 -0.296740 0.106081 -0.949048 148 113 44 255
0.076446 0.338986 -0.240050 -0.296740 0.106081 -0.949048 123 113 37 255
0.093112 -0.069672 -0.290940 -0.296740 0.106081 -0.949048 148 113 44 255
0.093112 -0.069672 -0.290940 0.778149 0.108768 -0.618590 148 113 44 255
0.255323 0.338986 -0.015033 0.778149 0.108768 -0.618590 120 113 36 255
0.312740 -0.069672 -0.014662 0.778149 0.108768 -0.618590 148 113 44 255
0.196263 1.938611 -0.009658 0.759423 0.240061 -0.604687 71 148 0 255
0.048889 1.938693 -0.194711 0.759423 0.240061 -0.604687 71 148 0 255
0.003286 2.531433 -0.016665 0.759423 0.240061 -0.604687 69 149 1 255
0.068875 0.338986 0.211071 0.743658 0.266312 0.613229 134 113 38 255
0.255323 0.338986 -0.015033 0.743658 0.266312 0.613229 120 113 36 255
0.003286 1.046541 -0.016665 0.743658 0.266312 0.613229 135 122 49 255
0.255323 0.338986 -0.015033 0.754308 0.267308 -0.599638 120 113 36 255
0.076446 0.338986 -0.240050 0.754308 0.267308 -0.599638 123 113 37 255
0.003286 1.046541 -0.016665 0.754308 0.267308 -0.599638 135 122 49 255
0.076446 0.338986 -0.240050 -0.288073 0.261090 -0.921328 123 113 37 255
-0.179282 0.338986 -0.160091 -0.288073 0.261090 -0.921328 93 113 25 255
0.003286 1.046541 -0.016665 -0.288073 0.261090 -0.921328 135 122 49 255
-0.204931 0.338986 0.120777 -0.301848 0.266626 0.915313 115 113 33 255
0.068875 0.338986 0.211071 -0.301848 0.266626 0.915313 134 113 38 255
0.003286 1.046541 -0.016665 -0.301848 0.266626 0.915313 135 122 49 255
0.054199 1.937847 0.159684 0.741483 0.248735 0.623165 71 148 0 255
0.196263 1.938611 -0.009658 0.741483 0.248735 0.623165 71 148 0 255
0.003286 2.531433 -0.016665 0.741483 0.248735 0.623165 69 149 1 255
-0.146923 1.932760 -0.134669 -0.961962 0.258674 -0.087844 71 148 0 255
-0.168025 1.932760 0.096416 -0.961962 0.258674 -0.087844 71 148 0 255
0.003286 2.531433 -0.016665 -0.961962 0.258674 -0.087844 69 149 1 255
0.048889 1.938693 -0.194711 -0.290536 0.254699 -0.922343 71 148 0 255
-0.146923 1.932760 -0.134669 -0.290536 0.254699 -0.922343 71 148 0 255
0.003286 2.531433 -0.016665 -0.290536 0.254699 -0.922343 69 149 1 255
-0.168025 1.932760 0.096416 -0.270278 0.252815 0.928996 71 148 0 255
0.054199 1.937847 0.159684 -0.270278 0.252815 0.928996 71 148 0 255
0.003286 2.531433 -0.016665 -0.270278 0.252815 0.928996 69 149 1 255
-0.168025 1.932760 0.096416 -0.908245 0.418212 0.013757 71 148 0 255
-0.288778 1.680641 -0.211369 -0.908245 0.418212 0.013757 71 148 0 255
-0.271984 1.703831 0.192381 -0.908245 0.418212 0.013757 71 148 0 255
-0.146923 1.932760 -0.134669 -0.300632 0.428382 -0.852120 71 148 0 255
0.100466 1.673676 -0.352198 -0.300632 0.428382 -0.852120 71 148 0 255
-0.288778 1.680641 -0.211369 -0.300632 0.428382 -0.852120 71 148 0 255
0.196263 1.938611 -0.009658 0.679861 0.472751 0.560621 71 148 0 255
0.103490 1.667743 0.331260 0.679861 0.472751 0.560621 71 148 0 255
0.388337 1.667743 -0.014172 0.679861 0.472751 0.560621 71 148 0 255
0.196263 1.938611 -0.009658 0.693446 0.463011 -0.552044 71 148 0 255
0.100466 1.673676 -0.352198 0.693446 0.463011 -0.552044 71 148 0 255
0.048889 1.938693 -0.194711 0.693446 0.463011 -0.552044 71 148 0 255
0.054199 1.937847 0.159684 -0.262610 0.482770 0.835445 71 148 0 255
-0.271984 1.703831 0.192381 -0.262610 0.482770 0.835445 71 148 0 255
0.103490 1.667743 0.331260 -0.262610 0.482770 0.835445 71 148 0 255
0.103490 1.667743 0.331260 0.315634 -0.912487 0.260275 71 148 0 255
0.262297 1.623913 -0.014988 0.315634 -0.912487 0.260275 71 148 0 255
0.388337 1.667743 -0.014172 0.315634 -0.912487 0.260275 71 148 0 255
0.100466 1.673676 -0.352198 -0.223774 -0.783460 -0.579755 71 148 0 255
-0.184334 1.615800 -0.164060 -0.223774 -0.783460 -0.579755 71 148 0 255
-0.288778 1.680641 -0.211369 -0.223774 -0.783460 -0.579755 71 148 0 255
-0.271984 1.703831 0.192381 -0.207688 -0.923873 0.321440 71 148 0 255
0.070690 1.635492 0.217372 -0.207688 -0.923873 0.321440 71 148 0 255
0.103490 1.667743 0.331260 -0.207688 -0.923873 0.321440 71 148 0 255
-0.288778 1.680641 -0.211369 -0.756510 -0.650351 0.068820 71 148 0 255
-0.210692 1.625358 0.124580 -0.756510 -0.650351 0.068820 71 148 0 255
-0.271984 1.703831 0.192381 -0.756510 -0.650351 0.068820 71 148 0 255
0.100466 1.673676 -0.352198 0.643246 -0.650010 -0.404625 71 148 0 255
0.262297 1.623913 -0.014988 0.643246 -0.650010 -0.404625 71 148 0 255
0.078470 1.585945 -0.246231 0.643246 -0.650010 -0.404625 71 148 0 255
-0.210692 1.625358 0.124580 -0.314462 0.153058 0.936849 71 148 0 255
0.093756 1.374867 0.267694 -0.314462 0.153058 0.936849 71 148 0 255
0.070690 1.635492 0.217372 -0.314462 0.153058 0.936849 71 148 0 255
-0.184334 1.615800 -0.164060 -0.963899 0.248268 -0.096242 71 148 0 255
-0.283466 1.361434 0.172617 -0.963899 0.248268 -0.096242 71 148 0 255
-0.210692 1.625358 0.124580 -0.963899 0.248268 -0.096242 71 148 0 255
0.262297 1.623913 -0.014988 0.746600 0.216504 -0.629058 71 148 0 255
0.106733 1.366949 -0.288059 0.746600 0.216504 -0.629058 69 149 2 255
0.078470 1.585945 -0.246231 0.746600 0.216504 -0.629058 71 148 0 255
0.262297 1.623913 -0.014988 0.680003 0.299469 0.669264 71 148 0 255
0.093756 1.374867 0.267694 0.680003 0.299469 0.669264 71 148 0 255
0.343808 1.372074 0.014880 0.680003 0.299469 0.669264 71 148 0 255
0.078470 1.585945 -0.246231 -0.263028 0.249643 -0.931931 71 148 0 255
-0.248144 1.361434 -0.214189 -0.263028 0.249643 -0.931931 71 148 0 255
-0.184334 1.615800 -0.164060 -0.263028 0.249643 -0.931931 71 148 0 255
0.343808 1.372074 0.014880 0.722358 0.366023 0.586708 71 148 0 255
0.151878 1.021441 0.469931 0.722358 0.366023 0.586708 71 148 0 255
0.527120 1.039695 -0.003457 0.722358 0.366023 0.586708 71 148 0 255
-0.248144 1.361434 -0.214189 -0.296229 0.425908 -0.854898 71 148 0 255
0.141776 1.029227 -0.514804 -0.296229 0.425908 -0.854898 68 147 2 255
-0.401435 1.013095 -0.334614 -0.296229 0.425908 -0.854898 52 111 1 255
-0.283466 1.361434 0.172617 -0.232944 0.453852 0.860091 71 148 0 255
0.151878 1.021441 0.469931 -0.232944 0.453852 0.860091 71 148 0 255
0.093756 1.374867 0.267694 -0.232944 0.453852 0.860091 71 148 0 255
-0.283466 1.361434 0.172617 -0.914002 0.400836 -0.062700 71 148 0 255
-0.401435 1.013095 -0.334614 -0.914002 0.400836 -0.062700 52 111 1 255
-0.453986 0.992788 0.301624 -0.914002 0.400836 -0.062700 57 128 3 255
0.106733 1.366949 -0.288059 0.712594 0.440535 -0.546021 69 149 2 255
0.527120 1.039695 -0.003457 0.712594 0.440535 -0.546021 71 148 0 255
0.141776 1.029227 -0.514804 0.712594 0.440535 -0.546021 68 147 2 255
-0.453986 0.992788 0.301624 -0.117176 -0.819289 0.561280 57 128 3 255
0.075826 0.949764 0.349429 -0.117176 -0.819289 0.561280 71 148 0 255
0.151878 1.021441 0.469931 -0.117176 -0.819289 0.561280 71 148 0 255
-0.401435 1.013095 -0.334614 -0.345550 -0.936579 -0.058434 52 111 1 255
-0.331430 0.953645 0.204278 -0.345550 -0.936579 -0.058434 52 108 0 255
-0.453986 0.992788 0.301624 -0.345550 -0.936579 -0.058434 57 128 3 255
0.527120 1.039695 -0.003457 0.379929 -0.885285 -0.268187 71 148 0 255
0.120893 0.978144 -0.375764 0.379929 -0.885285 -0.268187 71 148 0 255
0.141776 1.029227 -0.514804 0.379929 -0.885285 -0.268187 68 147 2 255
0.151878 1.021441 0.469931 0.541831 -0.738652 0.401014 71 148 0 255
0.408445 0.946895 -0.014042 0.541831 -0.738652 0.401014 70 147 0 255
0.527120 1.039695 -0.003457 0.541831 -0.738652 0.401014 71 148 0 255
0.141776 1.029227 -0.514804 -0.133203 -0.867524 -0.479228 68 147 2 255
-0.290199 0.947742 -0.247227 -0.133203 -0.867524 -0.479228 52 107 0 255
-0.401435 1.013095 -0.334614 -0.133203 -0.867524 -0.479228 52 111 1 255
0.408445 0.946895 -0.014042 0.788741 0.290980 0.541497 70 147 0 255
0.200743 0.673965 0.435156 0.788741 0.290980 0.541497 52 107 0 255
0.517719 0.675458 -0.027351 0.788741 0.290980 0.541497 52 107 0 255
-0.290199 0.947742 -0.247227 -0.317748 0.271537 -0.908463 52 107 0 255
0.152105 0.697228 -0.476808 -0.317748 0.271537 -0.908463 52 107 0 255
-0.365939 0.661527 -0.306285 -0.317748 0.271537 -0.908463 52 107 0 255
0.075826 0.949764 0.349429 -0.222073 0.196282 0.955069 71 148 0 255
-0.417456 0.693657 0.287365 -0.222073 0.196282 0.955069 52 107 0 255
0.200743 0.673965 0.435156 -0.222073 0.196282 0.955069 52 107 0 255
-0.331430 0.953645 0.204278 -0.953726 0.284208 -0.098146 52 108 0 255
-0.365939 0.661527 -0.306285 -0.953726 0.284208 -0.098146 52 107 0 255
-0.417456 0.693657 0.287365 -0.953726 0.284208 -0.098146 52 107 0 255
0.408445 0.946895 -0.014042 0.760627 0.292903 -0.579357 70 147 0 255
0.152105 0.697228 -0.476808 0.760627 0.292903 -0.579357 52 107 0 255
0.120893 0.978144 -0.375764 0.760627 0.292903 -0.579357 71 148 0 255
0.200743 0.673965 0.435156 -0.191888 0.562144 0.804471 52 107 0 255
-0.672649 0.298530 0.489173 -0.191888 0.562144 0.804471 52 107 0 255
0.317300 0.276399 0.740768 -0.191888 0.562144 0.804471 52 107 0 255
-0.417456 0.693657 0.287365 -0.857958 0.504423 -0.097291 52 107 0 255
-0.551581 0.314348 -0.496457 -0.857958 0.504423 -0.097291 52 107 0 255
-0.672649 0.298530 0.489173 -0.857958 0.504423 -0.097291 52 107 0 255
0.517719 0.675458 -0.027351 0.686201 0.493626 -0.534286 52 107 0 255
0.189454 0.325271 -0.772489 0.686201 0.493626 -0.534286 52 107 0 255
0.152105 0.697228 -0.476808 0.686201 0.493626 -0.534286 52 107 0 255
0.200743 0.673965 0.435156 0.672012 0.578415 0.462425 52 107 0 255
0.791373 0.340504 -0.006063 0.672012 0.578415 0.462425 52 107 0 255
0.517719 0.675458 -0.027351 0.672012 0.578415 0.462425 52 107 0 255
-0.365939 0.661527 -0.306285 -0.293001 0.575072 -0.763834 52 107 0 255
0.189454 0.325271 -0.772489 -0.293001 0.575072 -0.763834 52 107 0 255
-0.551581 0.314348 -0.496457 -0.293001 0.575072 -0.763834 52 107 0 255
0.189454 0.325271 -0.772489 0.154482 -0.982738 -0.101792 52 107 0 255
0.791373 0.340504 -0.006063 0.154482 -0.982738 -0.101792 52 107 0 255
0.003286 0.217718 -0.016665 0.154482 -0.982738 -0.101792 23 145 8 255
0.791373 0.340504 -0.006063 0.153764 -0.988025 0.012798 52 107 0 255
0.317300 0.276399 0.740768 0.153764 -0.988025 0.012798 52 107 0 255
0.003286 0.217718 -0.016665 0.153764 -0.988025 0.012798 23 145 8 255
-0.551581 0.314348 -0.496457 -0.041612 -0.987689 -0.150797 52 107 0 255
0.189454 0.325271 -0.772489 -0.041612 -0.987689 -0.150797 52 107 0 255
0.003286 0.217718 -0.016665 -0.041612 -0.987689 -0.150797 23 145 8 255
0.317300 0.276399 0.740768 -0.046727 -0.994245 0.096399 52 107 0 255
-0.672649 0.298530 0.489173 -0.046727 -0.994245 0.096399 52 107 0 255
0.003286 0.217718 -0.016665 -0.046727 -0.994245 0.096399 23 145 8 255
-0.672649 0.298530 0.489173 -0.143307 -0.989112 -0.033476 52 107 0 255
-0.551581 0.314348 -0.496457 -0.143307 -0.989112 -0.033476 52 107 0 255
0.003286 0.217718 -0.016665 -0.143307 -0.989112 -0.033476 23 145 8 255
0.068875 0.338986 0.211071 -0.311337 0.108473 0.944088 134 113 38 255
-0.179282 0.338986 -0.160091 -0.990033 0.107989 -0.090408 93 113 25 255
-0.252365 -0.069672 0.152088 -0.000000 -1.000000 0.000000 147 113 43 255
-0.220874 -0.069672 -0.192765 -0.000000 -1.000000 0.000000 148 113 44 255
0.255323 0.338986 -0.015033 0.766980 0.108337 0.632460 120 113 36 255
0.068875 0.338986 0.211071 0.766980 0.108337 0.632460 134 113 38 255
0.083817 -0.069672 0.262952 0.766980 0.108337 0.632460 148 113 44 255
-0.179282 0.338986 -0.160091 -0.296740 0.106081 -0.949048 93 113 25 255
0.076446 0.338986 -0.240050 0.778149 0.108768 -0.618590 123 113 37 255
-0.168025 1.932760 0.096416 -0.858456 0.506860 -0.078392 71 148 0 255
-0.146923 1.932760 -0.134669 -0.858456 0.506860 -0.078392 71 148 0 255
-0.288778 1.680641 -0.211369 -0.858456 0.506860 -0.078392 71 148 0 255
-0.146923 1.932760 -0.134669 -0.274076 0.451316 -0.849233 71 148 0 255
0.048889 1.938693 -0.194711 -0.274076 0.451316 -0.849233 71 148 0 255
0.100466 1.673676 -0.352198 -0.274076 0.451316 -0.849233 71 148 0 255
0.196263 1.938611 -0.009658 0.670561 0.481089 0.564714 71 148 0 255
0.054199 1.937847 0.159684 0.670561 0.481089 0.564714 71 148 0 255
0.103490 1.667743 0.331260 0.670561 0.481089 0.564714 71 148 0 255
0.196263 1.938611 -0.009658 0.670150 0.484579 -0.562211 71 148 0 255
0.388337 1.667743 -0.014172 0.670150 0.484579 -0.562211 71 148 0 255
0.100466 1.673676 -0.352198 0.670150 0.484579 -0.562211 71 148 0 255
0.054199 1.937847 0.159684 -0.251737 0.469155 0.846476 71 148 0 255
-0.168025 1.932760 0.096416 -0.251737 0.469155 0.846476 71 148 0 255
-0.271984 1.703831 0.192381 -0.251737 0.469155 0.846476 71 148 0 255
0.103490 1.667743 0.331260 0.200553 -0.956241 0.213032 71 148 0 255
0.070690 1.635492 0.217372 0.200553 -0.956241 0.213032 71 148 0 255
0.262297 1.623913 -0.014988 0.200553 -0.956241 0.213032 71 148 0 255
0.100466 1.673676 -0.352198 -0.282514 -0.709269 -0.645851 71 148 0 255
0.078470 1.585945 -0.246231 -0.282514 -0.709269 -0.645851 71 148 0 255
-0.184334 1.615800 -0.164060 -0.282514 -0.709269 -0.645851 71 148 0 255
-0.271984 1.703831 0.192381 -0.192613 -0.723352 0.663071 71 148 0 255
-0.210692 1.625358 0.124580 -0.192613 -0.723352 0.663071 71 148 0 255
0.070690 1.635492 0.217372 -0.192613 -0.723352 0.663071 71 148 0 255
-0.288778 1.680641 -0.211369 -0.521009 -0.853333 -0.019320 71 148 0 255
-0.184334 1.615800 -0.164060 -0.521009 -0.853333 -0.019320 71 148 0 255
-0.210692 1.625358 0.124580 -0.521009 -0.853333 -0.019320 71 148 0 255
0.100466 1.673676 -0.352198 0.316448 -0.904668 -0.285372 71 148 0 255
0.388337 1.667743 -0.014172 0.316448 -0.904668 -0.285372 71 148 0 255
0.262297 1.623913 -0.014988 0.316448 -0.904668 -0.285372 71 148 0 255
-0.210692 1.625358 0.124580 -0.245322 0.238666 0.939604 71 148 0 255
-0.283466 1.361434 0.172617 -0.245322 0.238666 0.939604 71 148 0 255
0.093756 1.374867 0.267694 -0.245322 0.238666 0.939604 71 148 0 255
-0.184334 1.615800 -0.164060 -0.961973 0.258632 -0.087845 71 148 0 255
-0.248144 1.361434 -0.214189 -0.961973 0.258632 -0.087845 71 148 0 255
-0.283466 1.361434 0.172617 -0.961973 0.258632 -0.087845 71 148 0 255
0.262297 1.623913 -0.014988 0.773445 0.178193 -0.608300 71 148 0 255
0.343808 1.372074 0.014880 0.773445 0.178193 -0.608300 71 148 0 255
0.106733 1.366949 -0.288059 0.773445 0.178193 -0.608300 69 149 2 255
0.262297 1.623913 -0.014988 0.762455 0.187078 0.619406 71 148 0 255
0.070690 1.635492 0.217372 0.762455 0.187078 0.619406 71 148 0 255
0.093756 1.374867 0.267694 0.762455 0.187078 0.619406 71 148 0 255
0.078470 1.585945 -0.246231 -0.203578 0.158268 -0.966182 71 148 0 255
0.106733 1.366949 -0.288059 -0.203578 0.158268 -0.966182 69 149 2 255
-0.248144 1.361434 -0.214189 -0.203578 0.158268 -0.966182 71 148 0 255
0.343808 1.372074 0.014880 0.633814 0.460040 0.621806 71 148 0 255
0.093756 1.374867 0.267694 0.633814 0.460040 0.621806 71 148 0 255
0.151878 1.021441 0.469931 0.633814 0.460040 0.621806 71 148 0 255
-0.248144 1.361434 -0.214189 -0.180093 0.535352 -0.825206 71 148 0 255
0.106733 1.366949 -0.288059 -0.180093 0.535352 -0.825206 69 149 2 255
0.141776 1.029227 -0.514804 -0.180093 0.535352 -0.825206 68 147 2 255
-0.283466 1.361434 0.172617 -0.260958 0.424171 0.867168 71 148 0 255
-0.453986 0.992788 0.301624 -0.260958 0.424171 0.867168 57 128 3 255
0.151878 1.021441 0.469931 -0.260958 0.424171 0.867168 71 148 0 255
-0.283466 1.361434 0.172617 -0.901385 0.425122 -0.082313 71 148 0 255
-0.248144 1.361434 -0.214189 -0.901385 0.425122 -0.082313 71 148 0 255
-0.401435 1.013095 -0.334614 -0.901385 0.425122 -0.082313 52 111 1 255
0.106733 1.366949 -0.288059 0.710200 0.422742 -0.562943 69 149 2 255
0.343808 1.372074 0.014880 0.710200 0.422742 -0.562943 71 148 0 255
0.527120 1.039695 -0.003457 0.710200 0.422742 -0.562943 71 148 0 255
-0.453986 0.992788 0.301624 -0.101350 -0.960631 0.258680 57 128 3 255
-0.331430 0.953645 0.204278 -0.101350 -0.960631 0.258680 52 108 0 255
0.075826 0.949764 0.349429 -0.101350 -0.960631 0.258680 71 148 0 255
-0.401435 1.013095 -0.334614 -0.486856 -0.872857 -0.033047 52 111 1 255
-0.290199 0.947742 -0.247227 -0.486856 -0.872857 -0.033047 52 107 0 255
-0.331430 0.953645 0.204278 -0.486856 -0.872857 -0.033047 52 108 0 255
0.527120 1.039695 -0.003457 0.560052 -0.658936 -0.502140 71 148 0 255
0.408445 0.946895 -0.014042 0.560052 -0.658936 -0.502140 70 147 0 255
0.120893 0.978144 -0.375764 0.560052 -0.658936 -0.502140 71 148 0 255
0.151878 1.021441 0.469931 0.336785 -0.887256 0.315204 71 148 0 255
0.075826 0.949764 0.349429 0.336785 -0.887256 0.315204 71 148 0 255
0.408445 0.946895 -0.014042 0.336785 -0.887256 0.315204 70 147 0 255
0.141776 1.029227 -0.514804 -0.040184 -0.935929 -0.349890 68 147 2 255
0.120893 0.978144 -0.375764 -0.040184 -0.935929 -0.349890 71 148 0 255
-0.290199 0.947742 -0.247227 -0.040184 -0.935929 -0.349890 52 107 0 255
0.408445 0.946895 -0.014042 0.649857 0.478016 0.590921 70 147 0 255
0.075826 0.949764 0.349429 0.649857 0.478016 0.590921 71 148 0 255
0.200743 0.673965 0.435156 0.649857 0.478016 0.590921 52 107 0 255
-0.290199 0.947742 -0.247227 -0.305020 0.292145 -0.906429 52 107 0 255
0.120893 0.978144 -0.375764 -0.305020 0.292145 -0.906429 71 148 0 255
0.152105 0.697228 -0.476808 -0.305020 0.292145 -0.906429 52 107 0 255
0.075826 0.949764 0.349429 -0.307265 0.380432 0.872273 71 148 0 255
-0.331430 0.953645 0.204278 -0.307265 0.380432 0.872273 52 108 0 255
-0.417456 0.693657 0.287365 -0.307265 0.380432 0.872273 52 107 0 255
-0.331430 0.953645 0.204278 -0.957905 0.272269 -0.091033 52 108 0 255
-0.290199 0.947742 -0.247227 -0.957905 0.272269 -0.091033 52 107 0 255
-0.365939 0.661527 -0.306285 -0.957905 0.272269 -0.091033 52 107 0 255
0.408445 0.946895 -0.014042 0.740795 0.326998 -0.586766 70 147 0 255
0.517719 0.675458 -0.027351 0.740795 0.326998 -0.586766 52 107 0 255
0.152105 0.697228 -0.476808 0.740795 0.326998 -0.586766 52 107 0 255
0.200743 0.673965 0.435156 -0.179909 0.537102 0.824108 52 107 0 255
-0.417456 0.693657 0.287365 -0.179909 0.537102 0.824108 52 107 0 255
-0.672649 0.298530 0.489173 -0.179909 0.537102 0.824108 52 107 0 255
-0.417456 0.693657 0.287365 -0.853030 0.511851 -0.101729 52 107 0 255
-0.365939 0.661527 -0.306285 -0.853030 0.511851 -0.101729 52 107 0 255
-0.551581 0.314348 -0.496457 -0.853030 0.511851 -0.101729 52 107 0 255
0.517719 0.675458 -0.027351 0.669971 0.513272 -0.536369 52 107 0 255
0.791373 0.340504 -0.006063 0.669971 0.513272 -0.536369 52 107 0 255
0.189454 0.325271 -0.772489 0.669971 0.513272 -0.536369 52 107 0 255
0.200743 0.673965 0.435156 0.674405 0.564016 0.476512 52 107 0 255
0.317300 0.276399 0.740768 0.674405 0.564016 0.476512 52 107 0 255
0.791373 0.340504 -0.006063 0.674405 0.564016 0.476512 52 107 0 255
-0.365939 0.661527 -0.306285 -0.290923 0.577289 -0.762956 52 107 0 255
0.152105 0.697228 -0.476808 -0.290923 0.577289 -0.762956 52 107 0 255
0.189454 0.325271 -0.772489 -0.290923 0.577289 -0.762956 52 107 0 255
3 0 1 2
3 3 4 5
3 6 7 8
3 9 10 11
3 12 13 14
3 15 16 17
3 18 19 20
3 21 22 23
3 24 25 26
3 27 28 29
3 30 31 32
3 33 34 35
3 36 37 38
3 39 40 41
3 42 43 44
3 45 46 47
3 48 49 50
3 51 52 53
3 54 55 56
3 57 58 59
3 60 61 62
3 63 64 65
3 66 67 68
3 69 70 71
3 72 73 74
3 75 76 77
3 78 79 80
3 81 82 83
3 84 85 86
3 87 88 89
3 90 91 92
3 93 94 95
3 96 97 98
3 99 100 101
3 102 103 104
3 105 106 107
3 108 109 110
3 111 112 113
3 114 115 116
3 117 118 119
3 120 121 122
3 123 124 125
3 126 127 128
3 129 130 131
3 132 133 134
3 135 136 137
3 138 139 140
3 141 142 143
3 144 145 146
3 147 148 149
3 150 151 152
3 153 154 155
3 156 157 158
3 159 160 161
3 162 163 164
3 165 166 167
3 3 168 4
3 6 169 7
3 170 171 11
3 171 9 11
3 172 173 174
3 15 175 16
3 18 176 19
3 177 178 179
3 180 181 182
3 183 184 185
3 186 187 188
3 189 190 191
3 192 193 194
3 195 196 197
3 198 199 200
3 201 202 203
3 204 205 206
3 207 208 209
3 210 211 212
3 213 214 215
3 216 217 218
3 219 220 221
3 222 223 224
3 225 226 227
3 228 229 230
3 231 232 233
3 234 235 236
3 237 238 239
3 240 241 242
3 243 244 245
3 246 247 248
3 249 250 251
3 252 253 254
3 255 256 257
3 258 259 260
3 261 262 263
3 264 265 266
3 267 268 269
3 270 271 272
3 273 274 275
3 276 277 278
3 279 280 281
