ply
format ascii 1.0
comment Created by Blender 2.83.0 - www.blender.org, source file: 'fir_tree_young.blend'
element vertex 212
property float x
property float y
property float z
property float nx
property float ny
property float nz
property uchar red
property uchar green
property uchar blue
property uchar alpha
element face 73
property list uchar uint vertex_indices
end_header
-0.051348 0.101016 -0.059586 -0.960114 0.265508 -0.087676 93 113 25 255
-0.059023 0.101016 0.024465 -0.960114 0.265508 -0.087676 115 113 33 255
0.003286 0.312753 -0.016665 -0.960114 0.265508 -0.087676 131 126 48 255
0.027385 -0.021277 0.067011 -0.311337 0.108473 0.944088 148 113 44 255
-0.059023 0.101016 0.024465 -0.311337 0.108473 0.944088 115 113 33 255
-0.073218 -0.021277 0.033834 -0.311337 0.108473 0.944088 147 113 43 255
-0.059023 0.101016 0.024465 -0.990033 0.107989 -0.090408 115 113 33 255
-0.063794 -0.021277 -0.069364 -0.990033 0.107989 -0.090408 148 113 44 255
-0.073218 -0.021277 0.033834 -0.990033 0.107989 -0.090408 147 113 43 255
0.030167 -0.021277 -0.098743 0.000000 -1.000000 -0.000000 148 113 44 255
0.095891 -0.021277 -0.016066 0.000000 -1.000000 -0.000000 148 113 44 255
0.027385 -0.021277 0.067011 0.000000 -1.000000 -0.000000 148 113 44 255
0.078709 0.101016 -0.016177 0.766980 0.108337 0.632460 120 113 36 255
0.027385 -0.021277 0.067011 0.766980 0.108337 0.632460 148 113 44 255
0.095891 -0.021277 -0.016066 0.766980 0.108337 0.632460 148 113 44 255
-0.063794 -0.021277 -0.069364 -0.296740 0.106081 -0.949048 148 113 44 255
0.025179 0.101016 -0.083514 -0.296740 0.106081 -0.949048 123 113 37 255
0.030167 -0.021277 -0.098743 -0.296740 0.106081 -0.949048 148 113 44 255
0.030167 -0.021277 -0.098743 0.778149 0.108768 -0.618590 148 113 44 255
0.078709 0.101016 -0.016177 0.778149 0.108768 -0.618590 120 113 36 255
0.095891 -0.021277 -0.016066 0.778149 0.108768 -0.618590 148 113 44 255
0.110993 0.549992 -0.011681 0.759423 0.240061 -0.604687 84 173 0 255
0.029291 0.550038 -0.114272 0.759423 0.240061 -0.604687 84 173 0 255
0.004009 0.878644 -0.015566 0.759423 0.240061 -0.604687 78 164 1 255
0.022914 0.101016 0.051485 0.743658 0.266312 0.613229 134 113 38 255
0.078709 0.101016 -0.016177 0.743658 0.266312 0.613229 120 113 36 255
0.003286 0.312753 -0.016665 0.743658 0.266312 0.613229 131 126 48 255
0.078709 0.101016 -0.016177 0.754308 0.267308 -0.599638 120 113 36 255
0.025179 0.101016 -0.083514 0.754308 0.267308 -0.599638 123 113 37 255
0.003286 0.312753 -0.016665 0.754308 0.267308 -0.599638 131 126 48 255
0.025179 0.101016 -0.083514 -0.288073 0.261090 -0.921328 123 113 37 255
-0.051348 0.101016 -0.059586 -0.288073 0.261090 -0.921328 93 113 25 255
0.003286 0.312753 -0.016665 -0.288073 0.261090 -0.921328 131 126 48 255
-0.059023 0.101016 0.024465 -0.301848 0.266626 0.915313 115 113 33 255
0.022914 0.101016 0.051485 -0.301848 0.266626 0.915313 134 113 38 255
0.003286 0.312753 -0.016665 -0.301848 0.266626 0.915313 131 126 48 255
0.032235 0.549569 0.082200 0.741483 0.248735 0.623165 84 173 0 255
0.110993 0.549992 -0.011681 0.741483 0.248735 0.623165 84 173 0 255
0.004009 0.878644 -0.015566 0.741483 0.248735 0.623165 78 164 1 255
-0.079264 0.546749 -0.080985 -0.961962 0.258674 -0.087844 84 173 0 255
-0.090963 0.546749 0.047125 -0.961962 0.258674 -0.087844 84 173 0 255
0.004009 0.878644 -0.015566 -0.961962 0.258674 -0.087844 78 164 1 255
0.029291 0.550038 -0.114272 -0.290536 0.254699 -0.922343 84 173 0 255
-0.079264 0.546749 -0.080985 -0.290536 0.254699 -0.922343 84 173 0 255
0.004009 0.878644 -0.015566 -0.290536 0.254699 -0.922343 78 164 1 255
-0.090963 0.546749 0.047125 -0.270279 0.252815 0.928996 84 173 0 255
0.032235 0.549569 0.082200 -0.270279 0.252815 0.928996 84 173 0 255
0.004009 0.878644 -0.015566 -0.270279 0.252815 0.928996 78 164 1 255
-0.090963 0.546749 0.047125 -0.970794 0.238425 0.026684 84 173 0 255
-0.121759 0.437703 -0.098939 -0.970794 0.238425 0.026684 84 173 0 255
-0.114506 0.447718 0.075435 -0.970794 0.238425 0.026684 84 173 0 255
-0.079264 0.546749 -0.080985 -0.322757 0.274896 -0.905682 84 173 0 255
0.046350 0.434695 -0.159762 -0.322757 0.274896 -0.905682 84 173 0 255
-0.121759 0.437703 -0.098939 -0.322757 0.274896 -0.905682 84 173 0 255
0.110993 0.549992 -0.011681 0.721346 0.354735 0.594830 84 173 0 255
0.047656 0.432133 0.135415 0.721346 0.354735 0.594830 83 172 0 255
0.170678 0.432133 -0.013773 0.721346 0.354735 0.594830 71 148 0 255
0.110993 0.549992 -0.011681 0.735760 0.339850 -0.585798 84 173 0 255
0.046350 0.434695 -0.159762 0.735760 0.339850 -0.585798 84 173 0 255
0.029291 0.550038 -0.114272 0.735760 0.339850 -0.585798 84 173 0 255
0.032235 0.549569 0.082200 -0.292448 0.362570 0.884882 84 173 0 255
-0.114506 0.447718 0.075435 -0.292448 0.362570 0.884882 84 173 0 255
0.047656 0.432133 0.135415 -0.292448 0.362570 0.884882 83 172 0 255
0.047656 0.432133 0.135415 0.733907 -0.308430 0.605188 83 172 0 255
0.147601 0.375528 -0.014636 0.733907 -0.308430 0.605188 71 148 0 255
0.170678 0.432133 -0.013773 0.733907 -0.308430 0.605188 71 148 0 255
0.046350 0.434695 -0.159762 -0.339272 -0.133895 -0.931111 84 173 0 255
-0.100004 0.371031 -0.097279 -0.339272 -0.133895 -0.931111 84 173 0 255
-0.121759 0.437703 -0.098939 -0.339272 -0.133895 -0.931111 84 173 0 255
-0.114506 0.447718 0.075435 -0.355352 -0.326171 0.875978 84 173 0 255
0.041377 0.381948 0.114181 -0.355352 -0.326171 0.875978 83 171 0 255
0.047656 0.432133 0.135415 -0.355352 -0.326171 0.875978 83 172 0 255
-0.121759 0.437703 -0.098939 -0.999105 -0.005906 0.041896 84 173 0 255
-0.114617 0.376330 0.062738 -0.999105 -0.005906 0.041896 84 173 0 255
-0.114506 0.447718 0.075435 -0.999105 -0.005906 0.041896 84 173 0 255
0.046350 0.434695 -0.159762 0.786340 -0.133751 -0.603141 84 173 0 255
0.147601 0.375528 -0.014636 0.786340 -0.133751 -0.603141 71 148 0 255
0.045690 0.354480 -0.142833 0.786340 -0.133751 -0.603141 77 158 0 255
-0.114617 0.376330 0.062738 -0.314462 0.153058 0.936849 84 173 0 255
0.054165 0.237461 0.142079 -0.314462 0.153058 0.936849 71 148 0 255
0.041377 0.381948 0.114181 -0.314462 0.153058 0.936849 83 171 0 255
-0.100004 0.371031 -0.097279 -0.963899 0.248268 -0.096242 84 173 0 255
-0.154962 0.230014 0.089370 -0.963899 0.248268 -0.096242 83 172 0 255
-0.114617 0.376330 0.062738 -0.963899 0.248268 -0.096242 84 173 0 255
0.147601 0.375528 -0.014636 0.746600 0.216504 -0.629058 71 148 0 255
0.061359 0.233071 -0.166022 0.746600 0.216504 -0.629058 69 149 2 255
0.045690 0.354480 -0.142833 0.746600 0.216504 -0.629058 77 158 0 255
0.147601 0.375528 -0.014636 0.680003 0.299469 0.669264 71 148 0 255
0.054165 0.237461 0.142079 0.680003 0.299469 0.669264 71 148 0 255
0.192790 0.235913 0.001923 0.680003 0.299469 0.669264 71 148 0 255
0.045690 0.354480 -0.142833 -0.263028 0.249643 -0.931931 77 158 0 255
-0.135380 0.230014 -0.125070 -0.263028 0.249643 -0.931931 83 171 0 255
-0.100004 0.371031 -0.097279 -0.263028 0.249643 -0.931931 84 173 0 255
0.192790 0.235913 0.001923 0.783858 -0.032391 0.620095 71 148 0 255
0.057754 0.119437 0.166536 0.783858 -0.032391 0.620095 71 148 0 255
0.198127 0.126266 -0.010552 0.783858 -0.032391 0.620095 71 148 0 255
-0.135380 0.230014 -0.125070 -0.315819 0.116039 -0.941697 83 171 0 255
0.053975 0.122349 -0.201841 -0.315819 0.116039 -0.941697 68 147 2 255
-0.149234 0.116315 -0.134434 -0.315819 0.116039 -0.941697 52 111 1 255
-0.154962 0.230014 0.089370 -0.246313 0.189473 0.950489 83 172 0 255
0.057754 0.119437 0.166536 -0.246313 0.189473 0.950489 71 148 0 255
0.054165 0.237461 0.142079 -0.246313 0.189473 0.950489 71 148 0 255
-0.154962 0.230014 0.089370 -0.991401 0.104661 -0.078546 83 172 0 255
-0.149234 0.116315 -0.134434 -0.991401 0.104661 -0.078546 52 111 1 255
-0.168892 0.108718 0.103575 -0.991401 0.104661 -0.078546 57 128 3 255
0.061359 0.233071 -0.166022 0.789291 0.140710 -0.597680 69 149 2 255
0.198127 0.126266 -0.010552 0.789291 0.140710 -0.597680 71 148 0 255
0.053975 0.122349 -0.201841 0.789291 0.140710 -0.597680 68 147 2 255
0.032683 0.048467 0.089782 -0.004678 -0.982884 0.184168 71 148 0 255
-0.098317 0.042272 0.053391 -0.004678 -0.982884 0.184168 57 128 3 255
-0.001654 0.028933 -0.015343 -0.004678 -0.982884 0.184168 71 148 0 255
-0.098317 0.042272 0.053391 -0.168108 -0.984727 -0.045313 57 128 3 255
-0.086954 0.046662 -0.084177 -0.168108 -0.984727 -0.045313 52 111 1 255
-0.001654 0.028933 -0.015343 -0.168108 -0.984727 -0.045313 57 128 3 255
0.030499 0.050150 -0.123138 0.200567 -0.970846 -0.131270 68 147 2 255
0.113819 0.052414 -0.012574 0.200567 -0.970846 -0.131270 71 148 0 255
-0.001654 0.028933 -0.015343 0.200567 -0.970846 -0.131270 68 147 2 255
0.113819 0.052414 -0.012574 0.195197 -0.973738 0.117183 71 148 0 255
0.032683 0.048467 0.089782 0.195197 -0.973738 0.117183 71 148 0 255
-0.001654 0.028933 -0.015343 0.195197 -0.973738 0.117183 71 148 0 255
-0.086954 0.046662 -0.084177 -0.038641 -0.978194 -0.204068 52 111 1 255
0.030499 0.050150 -0.123138 -0.038641 -0.978194 -0.204068 68 147 2 255
-0.001654 0.028933 -0.015343 -0.038641 -0.978194 -0.204068 52 111 1 255
0.022914 0.101016 0.051485 -0.311337 0.108473 0.944088 134 113 38 255
-0.051348 0.101016 -0.059586 -0.990033 0.107989 -0.090408 93 113 25 255
-0.073218 -0.021277 0.033834 -0.000000 -1.000000 0.000000 147 113 43 255
-0.063794 -0.021277 -0.069364 -0.000000 -1.000000 0.000000 148 113 44 255
0.078709 0.101016 -0.016177 0.766979 0.108337 0.632460 120 113 36 255
0.022914 0.101016 0.051485 0.766979 0.108337 0.632460 134 113 38 255
0.027385 -0.021277 0.067011 0.766979 0.108337 0.632460 148 113 44 255
-0.051348 0.101016 -0.059586 -0.296740 0.106081 -0.949048 93 113 25 255
0.025179 0.101016 -0.083514 0.778149 0.108768 -0.618590 123 113 37 255
-0.090963 0.546749 0.047125 -0.923653 0.373833 -0.084346 84 173 0 255
-0.079264 0.546749 -0.080985 -0.923653 0.373833 -0.084346 84 173 0 255
-0.121759 0.437703 -0.098939 -0.923653 0.373833 -0.084346 84 173 0 255
-0.079264 0.546749 -0.080985 -0.286986 0.314420 -0.904864 84 173 0 255
0.029291 0.550038 -0.114272 -0.286986 0.314420 -0.904864 84 173 0 255
0.046350 0.434695 -0.159762 -0.286986 0.314420 -0.904864 84 173 0 255
0.110993 0.549992 -0.011681 0.712411 0.365116 0.599300 84 173 0 255
0.032235 0.549569 0.082200 0.712411 0.365116 0.599300 84 173 0 255
0.047656 0.432133 0.135415 0.712411 0.365116 0.599300 83 172 0 255
0.110993 0.549992 -0.011681 0.710386 0.370367 -0.598481 84 173 0 255
0.170678 0.432133 -0.013773 0.710386 0.370367 -0.598481 71 148 0 255
0.046350 0.434695 -0.159762 0.710386 0.370367 -0.598481 84 173 0 255
0.032235 0.549569 0.082200 -0.265988 0.322893 0.908290 84 173 0 255
-0.090963 0.546749 0.047125 -0.265988 0.322893 0.908290 84 173 0 255
-0.114506 0.447718 0.075435 -0.265988 0.322893 0.908290 84 173 0 255
0.047656 0.432133 0.135415 0.715228 -0.346332 0.607044 83 172 0 255
0.041377 0.381948 0.114181 0.715228 -0.346332 0.607044 83 171 0 255
0.147601 0.375528 -0.014636 0.715228 -0.346332 0.607044 71 148 0 255
0.046350 0.434695 -0.159762 -0.312749 -0.193664 -0.929883 84 173 0 255
0.045690 0.354480 -0.142833 -0.312749 -0.193664 -0.929883 77 158 0 255
-0.100004 0.371031 -0.097279 -0.312749 -0.193664 -0.929883 84 173 0 255
-0.114506 0.447718 0.075435 -0.303409 -0.166394 0.938220 84 173 0 255
-0.114617 0.376330 0.062738 -0.303409 -0.166394 0.938220 84 173 0 255
0.041377 0.381948 0.114181 -0.303409 -0.166394 0.938220 83 171 0 255
-0.121759 0.437703 -0.098939 -0.947345 -0.311015 -0.076210 84 173 0 255
-0.100004 0.371031 -0.097279 -0.947345 -0.311015 -0.076210 84 173 0 255
-0.114617 0.376330 0.062738 -0.947345 -0.311015 -0.076210 84 173 0 255
0.046350 0.434695 -0.159762 0.726853 -0.286810 -0.624039 84 173 0 255
0.170678 0.432133 -0.013773 0.726853 -0.286810 -0.624039 71 148 0 255
0.147601 0.375528 -0.014636 0.726853 -0.286810 -0.624039 71 148 0 255
-0.114617 0.376330 0.062738 -0.245322 0.238665 0.939604 84 173 0 255
-0.154962 0.230014 0.089370 -0.245322 0.238665 0.939604 83 172 0 255
0.054165 0.237461 0.142079 -0.245322 0.238665 0.939604 71 148 0 255
-0.100004 0.371031 -0.097279 -0.961973 0.258632 -0.087845 84 173 0 255
-0.135380 0.230014 -0.125070 -0.961973 0.258632 -0.087845 83 171 0 255
-0.154962 0.230014 0.089370 -0.961973 0.258632 -0.087845 83 172 0 255
0.147601 0.375528 -0.014636 0.773445 0.178193 -0.608300 71 148 0 255
0.192790 0.235913 0.001923 0.773445 0.178193 -0.608300 71 148 0 255
0.061359 0.233071 -0.166022 0.773445 0.178193 -0.608300 69 149 2 255
0.147601 0.375528 -0.014636 0.762455 0.187078 0.619406 71 148 0 255
0.041377 0.381948 0.114181 0.762455 0.187078 0.619406 83 171 0 255
0.054165 0.237461 0.142079 0.762455 0.187078 0.619406 71 148 0 255
0.045690 0.354480 -0.142833 -0.203578 0.158268 -0.966182 77 158 0 255
0.061359 0.233071 -0.166022 -0.203578 0.158268 -0.966182 69 149 2 255
-0.135380 0.230014 -0.125070 -0.203578 0.158268 -0.966182 83 171 0 255
0.192790 0.235913 0.001923 0.702159 0.164888 0.692665 71 148 0 255
0.054165 0.237461 0.142079 0.702159 0.164888 0.692665 71 148 0 255
0.057754 0.119437 0.166536 0.702159 0.164888 0.692665 71 148 0 255
-0.135380 0.230014 -0.125070 -0.198177 0.313629 -0.928635 83 171 0 255
0.061359 0.233071 -0.166022 -0.198177 0.313629 -0.928635 69 149 2 255
0.053975 0.122349 -0.201841 -0.198177 0.313629 -0.928635 68 147 2 255
-0.154962 0.230014 0.089370 -0.271182 0.142621 0.951903 83 172 0 255
-0.168892 0.108718 0.103575 -0.271182 0.142621 0.951903 57 128 3 255
0.057754 0.119437 0.166536 -0.271182 0.142621 0.951903 71 148 0 255
-0.154962 0.230014 0.089370 -0.987694 0.127775 -0.090194 83 172 0 255
-0.135380 0.230014 -0.125070 -0.987694 0.127775 -0.090194 83 171 0 255
-0.149234 0.116315 -0.134434 -0.987694 0.127775 -0.090194 52 111 1 255
0.061359 0.233071 -0.166022 0.782030 0.107905 -0.613829 69 149 2 255
0.192790 0.235913 0.001923 0.782030 0.107905 -0.613829 71 148 0 255
0.198127 0.126266 -0.010552 0.782030 0.107905 -0.613829 71 148 0 255
0.057754 0.119437 0.166536 -0.160861 -0.697923 0.697874 71 148 0 255
-0.168892 0.108718 0.103575 -0.160861 -0.697923 0.697874 57 128 3 255
-0.098317 0.042272 0.053391 -0.160861 -0.697923 0.697874 57 128 3 255
0.032683 0.048467 0.089782 -0.160861 -0.697923 0.697874 71 148 0 255
-0.149234 0.116315 -0.134434 -0.209830 -0.688513 -0.694206 52 111 1 255
0.053975 0.122349 -0.201841 -0.209830 -0.688513 -0.694206 68 147 2 255
0.030499 0.050150 -0.123138 -0.209830 -0.688513 -0.694206 68 147 2 255
-0.086954 0.046662 -0.084177 -0.209830 -0.688513 -0.694206 52 111 1 255
0.198127 0.126266 -0.010552 0.586240 -0.681250 0.438430 71 148 0 255
0.057754 0.119437 0.166536 0.586240 -0.681250 0.438430 71 148 0 255
0.032683 0.048467 0.089782 0.586240 -0.681250 0.438430 71 148 0 255
0.113819 0.052414 -0.012574 0.586240 -0.681250 0.438430 71 148 0 255
0.053975 0.122349 -0.201841 0.598494 -0.671264 -0.437275 68 147 2 255
0.198127 0.126266 -0.010552 0.598494 -0.671264 -0.437275 71 148 0 255
0.113819 0.052414 -0.012574 0.598494 -0.671264 -0.437275 71 148 0 255
0.030499 0.050150 -0.123138 0.598494 -0.671264 -0.437275 68 147 2 255
-0.168892 0.108718 0.103575 -0.713205 -0.696244 -0.081130 57 128 3 255
-0.149234 0.116315 -0.134434 -0.713205 -0.696244 -0.081130 52 111 1 255
-0.086954 0.046662 -0.084177 -0.713205 -0.696244 -0.081130 52 111 1 255
-0.098317 0.042272 0.053391 -0.713205 -0.696244 -0.081130 57 128 3 255
3 0 1 2
3 3 4 5
3 6 7 8
3 9 10 11
3 12 13 14
3 15 16 17
3 18 19 20
3 21 22 23
3 24 25 26
3 27 28 29
3 30 31 32
3 33 34 35
3 36 37 38
3 39 40 41
3 42 43 44
3 45 46 47
3 48 49 50
3 51 52 53
3 54 55 56
3 57 58 59
3 60 61 62
3 63 64 65
3 66 67 68
3 69 70 71
3 72 73 74
3 75 76 77
3 78 79 80
3 81 82 83
3 84 85 86
3 87 88 89
3 90 91 92
3 93 94 95
3 96 97 98
3 99 100 101
3 102 103 104
3 105 106 107
3 108 109 110
3 111 112 113
3 114 115 116
3 117 118 119
3 120 121 122
3 3 123 4
3 6 124 7
3 125 126 11
3 126 9 11
3 127 128 129
3 15 130 16
3 18 131 19
3 132 133 134
3 135 136 137
3 138 139 140
3 141 142 143
3 144 145 146
3 147 148 149
3 150 151 152
3 153 154 155
3 156 157 158
3 159 160 161
3 162 163 164
3 165 166 167
3 168 169 170
3 171 172 173
3 174 175 176
3 177 178 179
3 180 181 182
3 183 184 185
3 186 187 188
3 189 190 191
4 192 193 194 195
4 196 197 198 199
4 200 201 202 203
4 204 205 206 207
4 208 209 210 211
