ply
format ascii 1.0
comment Created by Blender 2.80 (sub 75) - www.blender.org, source file: 'hut01.blend'
element vertex 140
property float x
property float y
property float z
property float nx
property float ny
property float nz
property uchar red
property uchar green
property uchar blue
property uchar alpha
element face 58
property list uchar uint vertex_indices
end_header
0.395600 -0.014276 0.152037 0.686231 0.071533 0.723858 191 166 65 255
0.354001 0.551262 0.135587 0.686231 0.071533 0.723858 191 166 65 255
0.152100 0.551262 0.326992 0.686231 0.071533 0.723858 191 166 65 255
0.169263 -0.014276 0.366609 0.686231 0.071533 0.723858 191 166 65 255
-0.140481 -0.014276 0.380939 -0.715113 0.071198 0.695373 191 166 65 255
-0.124202 0.551262 0.339776 -0.715113 0.071198 0.695373 191 166 65 255
-0.317031 0.551262 0.141473 -0.715113 0.071198 0.695373 191 166 65 255
-0.356647 -0.014276 0.158636 -0.715113 0.071198 0.695373 191 166 65 255
-0.375012 -0.014276 -0.152702 -0.686231 0.071533 -0.723858 191 166 65 255
-0.333413 0.551262 -0.136252 -0.686231 0.071533 -0.723858 191 166 65 255
-0.131512 0.551262 -0.327657 -0.686231 0.071533 -0.723858 192 167 69 255
-0.148675 -0.014276 -0.367274 -0.686231 0.071533 -0.723858 191 167 67 255
0.161069 -0.014276 -0.381604 0.715113 0.071198 -0.695373 191 166 65 255
0.144790 0.551262 -0.340441 0.715113 0.071198 -0.695373 191 166 65 255
0.337619 0.551262 -0.142139 0.715113 0.071198 -0.695373 191 166 65 255
0.377235 -0.014276 -0.159302 0.715113 0.071198 -0.695373 192 167 68 255
-0.333413 0.551262 -0.136252 -0.997306 0.073359 0.000000 191 166 65 255
-0.375012 -0.014276 -0.152702 -0.997306 0.073359 0.000000 191 166 65 255
-0.375012 -0.014276 -0.089024 -0.997306 0.073359 0.000000 192 168 73 255
-0.333413 0.551262 -0.079310 -0.997306 0.073359 0.000000 191 166 65 255
-0.148675 -0.014276 -0.367274 -0.046100 0.071198 -0.996396 191 167 67 255
-0.131512 0.551262 -0.327657 -0.046100 0.071198 -0.996396 192 167 69 255
0.144790 0.551262 -0.340441 -0.046100 0.071198 -0.996396 191 166 65 255
0.161069 -0.014276 -0.381604 -0.046100 0.071198 -0.996396 191 166 65 255
0.169263 -0.014276 0.366609 0.046100 0.071198 0.996396 191 166 65 255
0.152100 0.551262 0.326992 0.046100 0.071198 0.996396 191 166 65 255
-0.124202 0.551262 0.339776 0.046100 0.071198 0.996396 191 166 65 255
-0.140481 -0.014276 0.380939 0.046100 0.071198 0.996396 191 166 65 255
0.377235 -0.014276 -0.159302 0.995708 0.071533 -0.058733 192 167 68 255
0.337619 0.551262 -0.142139 0.995708 0.071533 -0.058733 191 166 65 255
0.354001 0.551262 0.135587 0.995708 0.071533 -0.058733 191 166 65 255
0.395600 -0.014276 0.152037 0.995708 0.071533 -0.058733 191 166 65 255
-0.356647 -0.014276 0.158636 -0.997555 0.069880 0.000000 191 166 65 255
-0.317031 0.551262 0.141473 -0.997555 0.069880 0.000000 191 166 65 255
-0.317031 0.551262 0.084678 -0.997555 0.069880 0.000000 191 166 65 255
-0.356647 -0.014276 0.094812 -0.997555 0.069880 0.000000 191 166 66 255
-0.356647 -0.014276 0.094812 0.516652 -0.051507 -0.854644 191 166 66 255
-0.317031 0.551262 0.084678 0.516652 -0.051507 -0.854644 191 166 65 255
0.018122 0.551262 0.287286 0.516652 -0.051507 -0.854644 191 166 65 255
-0.356647 -0.014276 0.094812 0.517682 -0.052420 -0.853966 191 166 66 255
0.018122 0.551262 0.287286 0.517682 -0.052420 -0.853966 191 166 65 255
0.018935 -0.014276 0.322493 0.517682 -0.052420 -0.853966 191 166 65 255
-0.333413 0.551262 -0.079310 0.498510 -0.051532 0.865351 191 166 65 255
-0.375012 -0.014276 -0.089024 0.498510 -0.051532 0.865351 192 168 73 255
0.019311 -0.014276 -0.316185 0.498510 -0.051532 0.865351 191 166 65 255
-0.333413 0.551262 -0.079310 0.499308 -0.050858 0.864931 191 166 65 255
0.019311 -0.014276 -0.316185 0.499308 -0.050858 0.864931 191 166 65 255
0.018458 0.551262 -0.282439 0.499308 -0.050858 0.864931 191 166 65 255
0.018935 -0.014276 0.322493 -0.675620 -0.046776 -0.735765 191 166 65 255
0.018122 0.551262 0.287286 -0.675620 -0.046776 -0.735765 191 166 65 255
0.328343 0.551262 0.002423 -0.675620 -0.046776 -0.735765 191 166 65 255
0.018935 -0.014276 0.322493 -0.717249 -0.001957 -0.696814 191 166 65 255
0.328343 0.551262 0.002423 -0.717249 -0.001957 -0.696814 191 166 65 255
0.329176 -0.014276 0.003154 -0.717249 -0.001957 -0.696814 194 170 82 255
0.018458 0.551262 -0.282439 -0.717022 -0.042598 0.695748 191 166 65 255
0.019311 -0.014276 -0.316185 -0.717022 -0.042598 0.695748 191 166 65 255
0.329176 -0.014276 0.003154 -0.717022 -0.042598 0.695748 194 170 82 255
0.018458 0.551262 -0.282439 -0.676758 -0.000045 0.736206 191 166 65 255
0.329176 -0.014276 0.003154 -0.676758 -0.000045 0.736206 194 170 82 255
0.328343 0.551262 0.002423 -0.676758 -0.000045 0.736206 191 166 65 255
0.395600 0.520731 0.152037 0.528105 0.640927 0.557062 117 105 40 255
0.294158 0.639183 0.111922 0.528105 0.640927 0.557062 120 108 42 255
0.127410 0.639183 0.270002 0.528105 0.640927 0.557062 120 107 41 255
0.169263 0.520731 0.366609 0.528105 0.640927 0.557062 117 105 40 255
-0.140481 0.520731 0.380939 -0.551384 0.639143 0.536164 117 105 40 255
-0.100785 0.639183 0.280559 -0.551384 0.639143 0.536164 117 105 40 255
-0.260040 0.639183 0.116784 -0.551384 0.639143 0.536164 117 105 40 255
-0.356647 0.520731 0.158636 -0.551384 0.639143 0.536164 117 105 40 255
-0.375012 0.520731 -0.152702 -0.528105 0.640927 -0.557062 117 105 40 255
-0.273570 0.639183 -0.112587 -0.528105 0.640927 -0.557062 117 105 40 255
-0.106822 0.639183 -0.270667 -0.528105 0.640927 -0.557062 117 105 40 255
-0.148675 0.520731 -0.367274 -0.528105 0.640927 -0.557062 117 105 40 255
0.161069 0.520731 -0.381604 0.551384 0.639143 -0.536164 117 105 40 255
0.121373 0.639183 -0.281225 0.551384 0.639143 -0.536164 117 105 40 255
0.280628 0.639183 -0.117449 0.551384 0.639143 -0.536164 117 105 40 255
0.377235 0.520731 -0.159302 0.551384 0.639143 -0.536164 118 105 40 255
-0.148675 0.520731 -0.367274 -0.035545 0.639143 -0.768266 117 105 40 255
-0.106822 0.639183 -0.270667 -0.035545 0.639143 -0.768266 117 105 40 255
0.121373 0.639183 -0.281225 -0.035545 0.639143 -0.768266 117 105 40 255
0.161069 0.520731 -0.381604 -0.035545 0.639143 -0.768266 117 105 40 255
0.169263 0.520731 0.366609 0.035545 0.639143 0.768266 117 105 40 255
0.127410 0.639183 0.270002 0.035545 0.639143 0.768266 120 107 41 255
-0.100785 0.639183 0.280559 0.035545 0.639143 0.768266 117 105 40 255
-0.140481 0.520731 0.380939 0.035545 0.639143 0.768266 117 105 40 255
0.377235 0.520731 -0.159302 0.766270 0.640927 -0.045199 118 105 40 255
0.280628 0.639183 -0.117449 0.766270 0.640927 -0.045199 117 105 40 255
0.294158 0.639183 0.111922 0.766270 0.640927 -0.045199 120 108 42 255
0.395600 0.520731 0.152037 0.766270 0.640927 -0.045199 117 105 40 255
-0.273570 0.639183 -0.112587 -0.766270 0.640927 0.045199 117 105 40 255
-0.375012 0.520731 -0.152702 -0.766270 0.640927 0.045199 117 105 40 255
-0.356647 0.520731 0.158636 -0.766270 0.640927 0.045199 117 105 40 255
-0.260040 0.639183 0.116784 -0.766270 0.640927 0.045199 117 105 40 255
0.280628 0.639183 -0.117449 0.237387 0.943591 -0.230834 117 105 40 255
0.121373 0.639183 -0.281225 0.237387 0.943591 -0.230834 117 105 40 255
0.010294 0.735844 -0.000333 0.237387 0.943591 -0.230834 117 105 40 255
0.121373 0.639183 -0.281225 -0.015303 0.943591 -0.330761 117 105 40 255
-0.106822 0.639183 -0.270667 -0.015303 0.943591 -0.330761 117 105 40 255
0.010294 0.735844 -0.000333 -0.015303 0.943591 -0.330761 117 105 40 255
0.127410 0.639183 0.270002 0.226849 0.944077 0.239287 120 107 41 255
0.294158 0.639183 0.111922 0.226849 0.944077 0.239287 120 108 42 255
0.010294 0.735844 -0.000333 0.226849 0.944077 0.239287 120 107 41 255
-0.273570 0.639183 -0.112587 -0.329153 0.944077 0.019415 117 105 40 255
-0.260040 0.639183 0.116784 -0.329153 0.944077 0.019415 117 105 40 255
0.010294 0.735844 -0.000333 -0.329153 0.944077 0.019415 117 105 40 255
-0.106822 0.639183 -0.270667 -0.226849 0.944077 -0.239287 117 105 40 255
-0.273570 0.639183 -0.112587 -0.226849 0.944077 -0.239287 117 105 40 255
0.010294 0.735844 -0.000333 -0.226849 0.944077 -0.239287 117 105 40 255
-0.260040 0.639183 0.116784 -0.237387 0.943591 0.230834 117 105 40 255
-0.100785 0.639183 0.280559 -0.237387 0.943591 0.230834 117 105 40 255
0.010294 0.735844 -0.000333 -0.237387 0.943591 0.230834 117 105 40 255
-0.100785 0.639183 0.280559 0.015303 0.943591 0.330761 117 105 40 255
0.127410 0.639183 0.270002 0.015303 0.943591 0.330761 120 107 41 255
0.010294 0.735844 -0.000333 0.015303 0.943591 0.330761 117 105 40 255
0.294158 0.639183 0.111922 0.329153 0.944077 -0.019415 120 108 42 255
0.280628 0.639183 -0.117449 0.329153 0.944077 -0.019415 117 105 40 255
0.010294 0.735844 -0.000333 0.329153 0.944077 -0.019415 120 108 42 255
-0.375012 0.520731 -0.152702 -0.025074 -0.999336 -0.026449 117 105 40 255
-0.148675 0.520731 -0.367274 -0.025074 -0.999336 -0.026449 117 105 40 255
0.010294 0.507031 -0.000333 -0.025074 -0.999336 -0.026449 117 105 40 255
0.169263 0.520731 0.366609 0.001692 -0.999329 0.036578 117 105 40 255
-0.140481 0.520731 0.380939 0.001692 -0.999329 0.036578 117 105 40 255
0.010294 0.507031 -0.000333 0.001692 -0.999329 0.036578 117 105 40 255
-0.140481 0.520731 0.380939 -0.026252 -0.999329 0.025527 117 105 40 255
-0.356647 0.520731 0.158636 -0.026252 -0.999329 0.025527 117 105 40 255
0.010294 0.507031 -0.000333 -0.026252 -0.999329 0.025527 117 105 40 255
0.377235 0.520731 -0.159302 0.036382 -0.999336 -0.002146 118 105 40 255
0.395600 0.520731 0.152037 0.036382 -0.999336 -0.002146 117 105 40 255
0.010294 0.507031 -0.000333 0.036382 -0.999336 -0.002146 118 105 40 255
0.395600 0.520731 0.152037 0.025074 -0.999336 0.026449 117 105 40 255
0.169263 0.520731 0.366609 0.025074 -0.999336 0.026449 117 105 40 255
0.010294 0.507031 -0.000333 0.025074 -0.999336 0.026449 117 105 40 255
-0.148675 0.520731 -0.367274 -0.001692 -0.999329 -0.036578 117 105 40 255
0.161069 0.520731 -0.381604 -0.001692 -0.999329 -0.036578 117 105 40 255
0.010294 0.507031 -0.000333 -0.001692 -0.999329 -0.036578 117 105 40 255
0.161069 0.520731 -0.381604 0.026252 -0.999329 -0.025527 117 105 40 255
0.377235 0.520731 -0.159302 0.026252 -0.999329 -0.025527 118 105 40 255
0.010294 0.507031 -0.000333 0.026252 -0.999329 -0.025527 117 105 40 255
-0.356647 0.520731 0.158636 -0.036382 -0.999336 0.002146 117 105 40 255
-0.375012 0.520731 -0.152702 -0.036382 -0.999336 0.002146 117 105 40 255
0.010294 0.507031 -0.000333 -0.036382 -0.999336 0.002146 117 105 40 255
3 0 1 2
3 0 2 3
3 4 5 6
3 4 6 7
3 8 9 10
3 8 10 11
3 12 13 14
3 12 14 15
3 16 17 18
3 16 18 19
3 20 21 22
3 20 22 23
3 24 25 26
3 24 26 27
3 28 29 30
3 28 30 31
3 32 33 34
3 32 34 35
3 36 37 38
3 39 40 41
3 42 43 44
3 45 46 47
3 48 49 50
3 51 52 53
3 54 55 56
3 57 58 59
3 60 61 62
3 60 62 63
3 64 65 66
3 64 66 67
3 68 69 70
3 68 70 71
3 72 73 74
3 72 74 75
3 76 77 78
3 76 78 79
3 80 81 82
3 80 82 83
3 84 85 86
3 84 86 87
3 88 89 90
3 88 90 91
3 92 93 94
3 95 96 97
3 98 99 100
3 101 102 103
3 104 105 106
3 107 108 109
3 110 111 112
3 113 114 115
3 116 117 118
3 119 120 121
3 122 123 124
3 125 126 127
3 128 129 130
3 131 132 133
3 134 135 136
3 137 138 139
