ply
format ascii 1.0
comment Created by Blender 2.83.0 - www.blender.org, source file: 'hut01.blend'
element vertex 132
property float x
property float y
property float z
property float nx
property float ny
property float nz
property uchar red
property uchar green
property uchar blue
property uchar alpha
element face 37
property list uchar uint vertex_indices
end_header
0.143783 -0.014276 -0.384294 0.726894 0.071533 -0.683014 191 166 65 255
0.127148 0.551262 -0.342768 0.726894 0.071533 -0.683014 191 166 65 255
0.317656 0.551262 -0.140021 0.726894 0.071533 -0.683014 191 166 65 255
0.357349 -0.014276 -0.157008 0.726894 0.071533 -0.683014 191 166 65 255
0.370306 -0.014276 0.152796 0.692196 0.071198 0.718189 191 166 65 255
0.329215 0.551262 0.136336 0.692196 0.071198 0.718189 191 166 65 255
0.130059 0.551262 0.328283 0.692196 0.071198 0.718189 191 166 65 255
0.147046 -0.014276 0.367975 0.692196 0.071198 0.718189 191 166 65 255
-0.164371 -0.014276 0.384959 -0.726894 0.071533 0.683014 191 166 65 255
-0.147736 0.551262 0.343433 -0.726894 0.071533 0.683014 191 166 65 255
-0.338244 0.551262 0.140686 -0.726894 0.071533 0.683014 192 167 69 255
-0.377936 -0.014276 0.157673 -0.726894 0.071533 0.683014 191 167 67 255
-0.390894 -0.014276 -0.152131 -0.692196 0.071198 -0.718189 191 166 65 255
-0.349802 0.551262 -0.135671 -0.692196 0.071198 -0.718189 191 166 65 255
-0.150647 0.551262 -0.327618 -0.692196 0.071198 -0.718189 191 166 65 255
-0.167634 -0.014276 -0.367310 -0.692196 0.071198 -0.718189 192 167 68 255
-0.147736 0.551262 0.343433 -0.004422 0.073359 0.997296 191 166 65 255
-0.164371 -0.014276 0.384959 -0.004422 0.073359 0.997296 191 166 65 255
-0.100693 -0.014276 0.385241 -0.004422 0.073359 0.997296 192 168 73 255
-0.090795 0.551262 0.343686 -0.004422 0.073359 0.997296 191 166 65 255
-0.377936 -0.014276 0.157673 -0.996591 0.071198 0.041681 191 167 67 255
-0.338244 0.551262 0.140686 -0.996591 0.071198 0.041681 192 167 69 255
-0.349802 0.551262 -0.135671 -0.996591 0.071198 0.041681 191 166 65 255
-0.390894 -0.014276 -0.152131 -0.996591 0.071198 0.041681 191 166 65 255
0.357349 -0.014276 -0.157008 0.996591 0.071198 -0.041681 191 166 65 255
0.317656 0.551262 -0.140021 0.996591 0.071198 -0.041681 191 166 65 255
0.329215 0.551262 0.136336 0.996591 0.071198 -0.041681 191 166 65 255
0.370306 -0.014276 0.152796 0.996591 0.071198 -0.041681 191 166 65 255
-0.167634 -0.014276 -0.367310 -0.054317 0.071533 -0.995958 192 167 68 255
-0.150647 0.551262 -0.327618 -0.054317 0.071533 -0.995958 191 166 65 255
0.127148 0.551262 -0.342768 -0.054317 0.071533 -0.995958 191 166 65 255
0.143783 -0.014276 -0.384294 -0.054317 0.071533 -0.995958 191 166 65 255
0.147046 -0.014276 0.367975 -0.004423 0.069880 0.997546 191 166 65 255
0.130059 0.551262 0.328283 -0.004423 0.069880 0.997546 191 166 65 255
0.073264 0.551262 0.328031 -0.004423 0.069880 0.997546 191 166 65 255
0.083223 -0.014276 0.367692 -0.004423 0.069880 0.997546 191 166 66 255
0.083223 -0.014276 0.367692 -0.851984 -0.051990 -0.520980 191 166 66 255
0.073264 0.551262 0.328031 -0.851984 -0.051990 -0.520980 191 166 65 255
0.277356 0.551262 -0.006220 -0.851984 -0.051990 -0.520980 191 166 65 255
0.312567 -0.014276 -0.006877 -0.851984 -0.051990 -0.520980 191 166 65 255
-0.090795 0.551262 0.343686 0.867356 -0.051214 -0.495045 191 166 65 255
-0.100693 -0.014276 0.385241 0.867356 -0.051214 -0.495045 192 168 73 255
-0.326103 -0.014276 -0.010085 0.867356 -0.051214 -0.495045 191 166 65 255
-0.292361 0.551262 -0.009082 0.867356 -0.051214 -0.495045 191 166 65 255
0.312567 -0.014276 -0.006877 -0.719316 -0.023772 0.694277 191 166 65 255
0.277356 0.551262 -0.006220 -0.719316 -0.023772 0.694277 191 166 65 255
-0.006128 0.551262 -0.317701 -0.719316 -0.023772 0.694277 191 166 65 255
-0.005393 -0.014276 -0.318531 -0.719316 -0.023772 0.694277 194 170 82 255
-0.292361 0.551262 -0.009082 0.712758 -0.021936 0.701067 191 166 65 255
-0.326103 -0.014276 -0.010085 0.712758 -0.021936 0.701067 191 166 65 255
-0.005393 -0.014276 -0.318531 0.712758 -0.021936 0.701067 194 170 82 255
-0.006128 0.551262 -0.317701 0.712758 -0.021936 0.701067 191 166 65 255
0.143783 0.520731 -0.384294 0.559398 0.640927 -0.525630 117 105 40 255
0.103218 0.639183 -0.283031 0.559398 0.640927 -0.525630 120 108 42 255
0.260557 0.639183 -0.115584 0.559398 0.640927 -0.525630 120 107 41 255
0.357349 0.520731 -0.157008 0.559398 0.640927 -0.525630 117 105 40 255
0.370306 0.520731 0.152796 0.533714 0.639143 0.553756 117 105 40 255
0.270103 0.639183 0.112656 0.533714 0.639143 0.553756 117 105 40 255
0.105622 0.639183 0.271183 0.533714 0.639143 0.553756 117 105 40 255
0.147046 0.520731 0.367975 0.533714 0.639143 0.553756 117 105 40 255
-0.164371 0.520731 0.384959 -0.559398 0.640927 0.525630 117 105 40 255
-0.123806 0.639183 0.283696 -0.559398 0.640927 0.525630 117 105 40 255
-0.281145 0.639183 0.116249 -0.559398 0.640927 0.525630 117 105 40 255
-0.377936 0.520731 0.157673 -0.559398 0.640927 0.525630 117 105 40 255
-0.390894 0.520731 -0.152131 -0.533714 0.639143 -0.553756 117 105 40 255
-0.290691 0.639183 -0.111991 -0.533714 0.639143 -0.553756 117 105 40 255
-0.126210 0.639183 -0.270518 -0.533714 0.639143 -0.553756 117 105 40 255
-0.167634 0.520731 -0.367310 -0.533714 0.639143 -0.553756 118 105 40 255
-0.377936 0.520731 0.157673 -0.768416 0.639143 0.032138 117 105 40 255
-0.281145 0.639183 0.116249 -0.768416 0.639143 0.032138 117 105 40 255
-0.290691 0.639183 -0.111991 -0.768416 0.639143 0.032138 117 105 40 255
-0.390894 0.520731 -0.152131 -0.768416 0.639143 0.032138 117 105 40 255
0.357349 0.520731 -0.157008 0.768416 0.639143 -0.032138 117 105 40 255
0.260557 0.639183 -0.115584 0.768416 0.639143 -0.032138 120 107 41 255
0.270103 0.639183 0.112656 0.768416 0.639143 -0.032138 117 105 40 255
0.370306 0.520731 0.152796 0.768416 0.639143 -0.032138 117 105 40 255
-0.167634 0.520731 -0.367310 -0.041801 0.640927 -0.766463 118 105 40 255
-0.126210 0.639183 -0.270518 -0.041801 0.640927 -0.766463 117 105 40 255
0.103218 0.639183 -0.283031 -0.041801 0.640927 -0.766463 120 108 42 255
0.143783 0.520731 -0.384294 -0.041801 0.640927 -0.766463 117 105 40 255
-0.123806 0.639183 0.283696 0.041801 0.640927 0.766463 117 105 40 255
-0.164371 0.520731 0.384959 0.041801 0.640927 0.766463 117 105 40 255
0.147046 0.520731 0.367975 0.041801 0.640927 0.766463 117 105 40 255
0.105622 0.639183 0.271183 0.041801 0.640927 0.766463 117 105 40 255
-0.126210 0.639183 -0.270518 -0.229779 0.943591 -0.238408 117 105 40 255
-0.290691 0.639183 -0.111991 -0.229779 0.943591 -0.238408 117 105 40 255
-0.010294 0.735844 0.000333 -0.229779 0.943591 -0.238408 117 105 40 255
-0.290691 0.639183 -0.111991 -0.330825 0.943591 0.013836 117 105 40 255
-0.281145 0.639183 0.116249 -0.330825 0.943591 0.013836 117 105 40 255
-0.010294 0.735844 0.000333 -0.330825 0.943591 0.013836 117 105 40 255
0.260557 0.639183 -0.115584 0.240291 0.944077 -0.225785 120 107 41 255
0.103218 0.639183 -0.283031 0.240291 0.944077 -0.225785 120 108 42 255
-0.010294 0.735844 0.000333 0.240291 0.944077 -0.225785 120 107 41 255
-0.123806 0.639183 0.283696 0.017956 0.944077 0.329236 117 105 40 255
0.105622 0.639183 0.271183 0.017956 0.944077 0.329236 117 105 40 255
-0.010294 0.735844 0.000333 0.017956 0.944077 0.329236 117 105 40 255
-0.281145 0.639183 0.116249 -0.240291 0.944077 0.225785 117 105 40 255
-0.123806 0.639183 0.283696 -0.240291 0.944077 0.225785 117 105 40 255
-0.010294 0.735844 0.000333 -0.240291 0.944077 0.225785 117 105 40 255
0.105622 0.639183 0.271183 0.229779 0.943591 0.238408 117 105 40 255
0.270103 0.639183 0.112656 0.229779 0.943591 0.238408 117 105 40 255
-0.010294 0.735844 0.000333 0.229779 0.943591 0.238408 117 105 40 255
0.270103 0.639183 0.112656 0.330825 0.943591 -0.013836 117 105 40 255
0.260557 0.639183 -0.115584 0.330825 0.943591 -0.013836 120 107 41 255
-0.010294 0.735844 0.000333 0.330825 0.943591 -0.013836 117 105 40 255
0.103218 0.639183 -0.283031 -0.017956 0.944077 -0.329236 120 108 42 255
-0.126210 0.639183 -0.270518 -0.017956 0.944077 -0.329236 117 105 40 255
-0.010294 0.735844 0.000333 -0.017956 0.944077 -0.329236 120 108 42 255
-0.164371 0.520731 0.384959 -0.026560 -0.999336 0.024956 117 105 40 255
-0.377936 0.520731 0.157673 -0.026560 -0.999336 0.024956 117 105 40 255
-0.010294 0.507031 0.000333 -0.026560 -0.999336 0.024956 117 105 40 255
0.357349 0.520731 -0.157008 0.036585 -0.999329 -0.001530 117 105 40 255
0.370306 0.520731 0.152796 0.036585 -0.999329 -0.001530 117 105 40 255
-0.010294 0.507031 0.000333 0.036585 -0.999329 -0.001530 117 105 40 255
0.370306 0.520731 0.152796 0.025411 -0.999329 0.026365 117 105 40 255
0.147046 0.520731 0.367975 0.025411 -0.999329 0.026365 117 105 40 255
-0.010294 0.507031 0.000333 0.025411 -0.999329 0.026365 117 105 40 255
-0.167634 0.520731 -0.367310 -0.001985 -0.999336 -0.036391 118 105 40 255
0.143783 0.520731 -0.384294 -0.001985 -0.999336 -0.036391 117 105 40 255
-0.010294 0.507031 0.000333 -0.001985 -0.999336 -0.036391 118 105 40 255
0.143783 0.520731 -0.384294 0.026560 -0.999336 -0.024956 117 105 40 255
0.357349 0.520731 -0.157008 0.026560 -0.999336 -0.024956 117 105 40 255
-0.010294 0.507031 0.000333 0.026560 -0.999336 -0.024956 117 105 40 255
-0.377936 0.520731 0.157673 -0.036585 -0.999329 0.001530 117 105 40 255
-0.390894 0.520731 -0.152131 -0.036585 -0.999329 0.001530 117 105 40 255
-0.010294 0.507031 0.000333 -0.036585 -0.999329 0.001530 117 105 40 255
-0.390894 0.520731 -0.152131 -0.025411 -0.999329 -0.026365 117 105 40 255
-0.167634 0.520731 -0.367310 -0.025411 -0.999329 -0.026365 118 105 40 255
-0.010294 0.507031 0.000333 -0.025411 -0.999329 -0.026365 117 105 40 255
0.147046 0.520731 0.367975 0.001985 -0.999336 0.036391 117 105 40 255
-0.164371 0.520731 0.384959 0.001985 -0.999336 0.036391 117 105 40 255
-0.010294 0.507031 0.000333 0.001985 -0.999336 0.036391 117 105 40 255
4 0 1 2 3
4 4 5 6 7
4 8 9 10 11
4 12 13 14 15
4 16 17 18 19
4 20 21 22 23
4 24 25 26 27
4 28 29 30 31
4 32 33 34 35
4 36 37 38 39
4 40 41 42 43
4 44 45 46 47
4 48 49 50 51
4 52 53 54 55
4 56 57 58 59
4 60 61 62 63
4 64 65 66 67
4 68 69 70 71
4 72 73 74 75
4 76 77 78 79
4 80 81 82 83
3 84 85 86
3 87 88 89
3 90 91 92
3 93 94 95
3 96 97 98
3 99 100 101
3 102 103 104
3 105 106 107
3 108 109 110
3 111 112 113
3 114 115 116
3 117 118 119
3 120 121 122
3 123 124 125
3 126 127 128
3 129 130 131
