ply
format ascii 1.0
comment Created by Blender 2.83.0 - www.blender.org, source file: 'marker.blend'
element vertex 24
property float x
property float y
property float z
property float nx
property float ny
property float nz
property uchar red
property uchar green
property uchar blue
property uchar alpha
element face 8
property list uchar uint vertex_indices
end_header
0.000000 2.217950 0.357234 0.702343 0.115879 0.702343 255 0 15 255
0.357234 2.217950 0.000000 0.702343 0.115879 0.702343 255 0 15 255
0.000000 4.383144 0.000000 0.702343 0.115879 0.702343 255 57 59 255
0.000000 -0.000016 0.000000 0.702565 -0.113158 0.702565 255 39 43 255
0.357234 2.217950 0.000000 0.702565 -0.113158 0.702565 255 0 15 255
0.000000 2.217950 0.357234 0.702565 -0.113158 0.702565 255 0 15 255
0.000000 -0.000016 0.000000 -0.702565 -0.113158 0.702565 255 39 43 255
0.000000 2.217950 0.357234 -0.702565 -0.113158 0.702565 255 0 15 255
-0.357234 2.217950 0.000000 -0.702565 -0.113158 0.702565 255 0 15 255
0.000000 -0.000016 0.000000 0.702565 -0.113158 -0.702565 255 39 43 255
0.000000 2.217950 -0.357234 0.702565 -0.113158 -0.702565 255 0 15 255
0.357234 2.217950 0.000000 0.702565 -0.113158 -0.702565 255 0 15 255
0.000000 -0.000016 0.000000 -0.702565 -0.113158 -0.702565 255 39 43 255
-0.357234 2.217950 0.000000 -0.702565 -0.113158 -0.702565 255 0 15 255
0.000000 2.217950 -0.357234 -0.702565 -0.113158 -0.702565 255 0 15 255
-0.357234 2.217950 0.000000 -0.702343 0.115879 0.702343 255 0 15 255
0.000000 2.217950 0.357234 -0.702343 0.115879 0.702343 255 0 15 255
0.000000 4.383144 0.000000 -0.702343 0.115879 0.702343 255 57 59 255
0.357234 2.217950 0.000000 0.702343 0.115879 -0.702343 255 0 15 255
0.000000 2.217950 -0.357234 0.702343 0.115879 -0.702343 255 0 15 255
0.000000 4.383144 0.000000 0.702343 0.115879 -0.702343 255 57 59 255
0.000000 2.217950 -0.357234 -0.702343 0.115879 -0.702343 255 0 15 255
-0.357234 2.217950 0.000000 -0.702343 0.115879 -0.702343 255 0 15 255
0.000000 4.383144 0.000000 -0.702343 0.115879 -0.702343 255 57 59 255
3 0 1 2
3 3 4 5
3 6 7 8
3 9 10 11
3 12 13 14
3 15 16 17
3 18 19 20
3 21 22 23
