ply
format ascii 1.0
comment Created by Blender 2.83.0 - www.blender.org, source file: 'raindrops.blend'
element vertex 54
property float x
property float y
property float z
property float nx
property float ny
property float nz
property uchar red
property uchar green
property uchar blue
property uchar alpha
element face 18
property list uchar uint vertex_indices
end_header
0.334350 2.055102 0.188937 0.435172 0.163658 0.885348 167 255 255 255
0.272926 1.608028 0.301771 0.435172 0.163658 0.885348 167 255 255 255
0.435617 1.613715 0.220753 0.435172 0.163658 0.885348 167 255 255 255
0.294063 1.611146 0.122902 0.566334 0.070745 -0.821134 167 255 255 255
0.334350 2.055102 0.188937 0.566334 0.070745 -0.821134 167 255 255 255
0.435617 1.613715 0.220753 0.566334 0.070745 -0.821134 167 255 255 255
0.272926 1.608028 0.301771 -0.905570 -0.408556 -0.114132 167 255 255 255
0.294063 1.611146 0.122902 -0.905570 -0.408556 -0.114132 167 255 255 255
0.331824 1.504083 0.206539 -0.905570 -0.408556 -0.114132 153 253 255 255
0.272926 1.608028 0.301771 -0.987636 0.106707 -0.114846 167 255 255 255
0.334350 2.055102 0.188937 -0.987636 0.106707 -0.114846 167 255 255 255
0.294063 1.611146 0.122902 -0.987636 0.106707 -0.114846 167 255 255 255
0.294063 1.611146 0.122902 0.525909 -0.400623 -0.750281 167 255 255 255
0.435617 1.613715 0.220753 0.525909 -0.400623 -0.750281 167 255 255 255
0.331824 1.504083 0.206539 0.525909 -0.400623 -0.750281 153 253 255 255
0.435617 1.613715 0.220753 0.403794 -0.483018 0.776945 167 255 255 255
0.272926 1.608028 0.301771 0.403794 -0.483018 0.776945 167 255 255 255
0.331824 1.504083 0.206539 0.403794 -0.483018 0.776945 153 253 255 255
0.228127 2.539455 -0.455317 0.435172 0.163659 0.885348 167 255 255 255
0.188163 2.248573 -0.381903 0.435172 0.163659 0.885348 167 255 255 255
0.294015 2.252273 -0.434616 0.435172 0.163659 0.885348 167 255 255 255
0.201915 2.250602 -0.498282 0.566334 0.070745 -0.821134 167 255 255 255
0.228127 2.539455 -0.455317 0.566334 0.070745 -0.821134 167 255 255 255
0.294015 2.252273 -0.434616 0.566334 0.070745 -0.821134 167 255 255 255
0.188163 2.248573 -0.381903 -0.905569 -0.408556 -0.114132 167 255 255 255
0.201915 2.250602 -0.498282 -0.905569 -0.408556 -0.114132 167 255 255 255
0.226484 2.180943 -0.443864 -0.905569 -0.408556 -0.114132 153 253 255 255
0.188163 2.248573 -0.381903 -0.987636 0.106707 -0.114846 167 255 255 255
0.228127 2.539455 -0.455317 -0.987636 0.106707 -0.114846 167 255 255 255
0.201915 2.250602 -0.498282 -0.987636 0.106707 -0.114846 167 255 255 255
0.201915 2.250602 -0.498282 0.525909 -0.400624 -0.750280 167 255 255 255
0.294015 2.252273 -0.434616 0.525909 -0.400624 -0.750280 167 255 255 255
0.226484 2.180943 -0.443864 0.525909 -0.400624 -0.750280 153 253 255 255
0.294015 2.252273 -0.434616 0.403794 -0.483019 0.776945 167 255 255 255
0.188163 2.248573 -0.381903 0.403794 -0.483019 0.776945 167 255 255 255
0.226484 2.180943 -0.443864 0.403794 -0.483019 0.776945 153 253 255 255
-0.274938 3.163867 -0.166271 0.435172 0.163658 0.885348 167 255 255 255
-0.322510 2.817613 -0.078882 0.435172 0.163658 0.885348 155 253 255 255
-0.196508 2.822018 -0.141630 0.435172 0.163658 0.885348 167 255 255 255
-0.306140 2.820029 -0.217414 0.566334 0.070745 -0.821134 167 255 255 255
-0.274938 3.163867 -0.166271 0.566334 0.070745 -0.821134 167 255 255 255
-0.196508 2.822018 -0.141630 0.566334 0.070745 -0.821134 167 255 255 255
-0.322510 2.817613 -0.078882 -0.905569 -0.408556 -0.114132 155 253 255 255
-0.306140 2.820029 -0.217414 -0.905569 -0.408556 -0.114132 167 255 255 255
-0.276894 2.737109 -0.152638 -0.905569 -0.408556 -0.114132 153 253 255 255
-0.322510 2.817613 -0.078882 -0.987636 0.106707 -0.114845 155 253 255 255
-0.274938 3.163867 -0.166271 -0.987636 0.106707 -0.114845 167 255 255 255
-0.306140 2.820029 -0.217414 -0.987636 0.106707 -0.114845 167 255 255 255
-0.306140 2.820029 -0.217414 0.525909 -0.400623 -0.750281 167 255 255 255
-0.196508 2.822018 -0.141630 0.525909 -0.400623 -0.750281 167 255 255 255
-0.276894 2.737109 -0.152638 0.525909 -0.400623 -0.750281 153 253 255 255
-0.196508 2.822018 -0.141630 0.403794 -0.483018 0.776945 167 255 255 255
-0.322510 2.817613 -0.078882 0.403794 -0.483018 0.776945 155 253 255 255
-0.276894 2.737109 -0.152638 0.403794 -0.483018 0.776945 153 253 255 255
3 0 1 2
3 3 4 5
3 6 7 8
3 9 10 11
3 12 13 14
3 15 16 17
3 18 19 20
3 21 22 23
3 24 25 26
3 27 28 29
3 30 31 32
3 33 34 35
3 36 37 38
3 39 40 41
3 42 43 44
3 45 46 47
3 48 49 50
3 51 52 53
