ply
format ascii 1.0
comment Created by Blender 2.80 (sub 75) - www.blender.org, source file: 'shit01.blend'
element vertex 123
property float x
property float y
property float z
property float nx
property float ny
property float nz
property uchar red
property uchar green
property uchar blue
property uchar alpha
element face 41
property list uchar uint vertex_indices
end_header
-0.145868 0.012621 -0.052230 -0.552800 0.267540 0.789198 131 94 47 255
-0.145868 0.043334 -0.062642 -0.552800 0.267540 0.789198 134 96 49 255
-0.207751 0.048095 -0.107602 -0.552800 0.267540 0.789198 122 87 44 255
-0.145868 0.012621 -0.052230 -0.571885 0.231023 0.787132 131 94 47 255
-0.207751 0.048095 -0.107602 -0.571885 0.231023 0.787132 122 87 44 255
-0.217653 0.012621 -0.104385 -0.571885 0.231023 0.787132 122 87 44 255
-0.217653 0.012621 -0.104385 -0.920792 0.228345 -0.316228 122 87 44 255
-0.207751 0.048095 -0.107602 -0.920792 0.228345 -0.316228 122 87 44 255
-0.184114 0.042665 -0.180349 -0.920792 0.228345 -0.316228 153 109 55 255
-0.217653 0.012621 -0.104385 -0.915748 0.269951 -0.297545 122 87 44 255
-0.184114 0.042665 -0.180349 -0.915748 0.269951 -0.297545 153 109 55 255
-0.190234 0.012621 -0.188773 -0.915748 0.269951 -0.297545 122 87 44 255
-0.190234 0.012621 -0.188773 0.010773 0.267900 -0.963386 122 87 44 255
-0.184114 0.042665 -0.180349 0.010773 0.267900 -0.963386 153 109 55 255
-0.107623 0.039590 -0.180349 0.010773 0.267900 -0.963386 122 87 44 255
-0.190234 0.012621 -0.188773 0.000000 0.298131 -0.954525 122 87 44 255
-0.107623 0.039590 -0.180349 0.000000 0.298131 -0.954525 122 87 44 255
-0.101503 0.012621 -0.188773 0.000000 0.298131 -0.954525 136 97 49 255
-0.147536 0.042876 -0.086434 0.494010 0.556165 0.668308 153 109 56 255
-0.107122 0.039393 -0.113409 0.494010 0.556165 0.668308 152 109 55 255
-0.115502 0.056674 -0.121596 0.494010 0.556165 0.668308 154 110 58 255
-0.147536 0.042876 -0.086434 0.406002 0.662245 0.629757 153 109 56 255
-0.115502 0.056674 -0.121596 0.406002 0.662245 0.629757 154 110 58 255
-0.145952 0.059309 -0.104737 0.406002 0.662245 0.629757 154 111 58 255
-0.101503 0.012621 -0.188773 0.910210 0.296772 -0.288868 136 97 49 255
-0.107623 0.039590 -0.180349 0.910210 0.296772 -0.288868 122 87 44 255
-0.083986 0.037904 -0.107602 0.910210 0.296772 -0.288868 122 87 44 255
-0.101503 0.012621 -0.188773 0.902299 0.316079 -0.293174 136 97 49 255
-0.083986 0.037904 -0.107602 0.902299 0.316079 -0.293174 122 87 44 255
-0.074083 0.012621 -0.104385 0.902299 0.316079 -0.293174 125 89 45 255
-0.074083 0.012621 -0.104385 0.574959 0.320957 0.752601 125 89 45 255
-0.083986 0.037904 -0.107602 0.574959 0.320957 0.752601 122 87 44 255
-0.145868 0.043334 -0.062642 0.574959 0.320957 0.752601 134 96 49 255
-0.074083 0.012621 -0.104385 0.566853 0.264492 0.780206 125 89 45 255
-0.145868 0.043334 -0.062642 0.566853 0.264492 0.780206 134 96 49 255
-0.145868 0.012621 -0.052230 0.566853 0.264492 0.780206 131 94 47 255
-0.147536 0.042876 -0.086434 0.074754 0.996652 0.033107 153 109 56 255
-0.179213 0.046251 -0.116514 0.074754 0.996652 0.033107 153 109 55 255
-0.207751 0.048095 -0.107602 0.074754 0.996652 0.033107 122 87 44 255
-0.147536 0.042876 -0.086434 0.095342 0.995109 -0.025839 153 109 56 255
-0.207751 0.048095 -0.107602 0.095342 0.995109 -0.025839 122 87 44 255
-0.145868 0.043334 -0.062642 0.095342 0.995109 -0.025839 134 96 49 255
-0.179213 0.046251 -0.116514 0.106855 0.992217 -0.063934 153 109 55 255
-0.168835 0.042199 -0.162045 0.106855 0.992217 -0.063934 153 109 55 255
-0.184114 0.042665 -0.180349 0.106855 0.992217 -0.063934 153 109 55 255
-0.179213 0.046251 -0.116514 0.045859 0.997173 -0.059530 153 109 55 255
-0.184114 0.042665 -0.180349 0.045859 0.997173 -0.059530 153 109 55 255
-0.207751 0.048095 -0.107602 0.045859 0.997173 -0.059530 122 87 44 255
-0.168835 0.042199 -0.162045 0.033591 0.998982 -0.030105 153 109 55 255
-0.123233 0.040870 -0.155274 0.033591 0.998982 -0.030105 153 109 55 255
-0.107623 0.039590 -0.180349 0.033591 0.998982 -0.030105 122 87 44 255
-0.168835 0.042199 -0.162045 0.040178 0.999160 -0.008103 153 109 55 255
-0.107623 0.039590 -0.180349 0.040178 0.999160 -0.008103 122 87 44 255
-0.184114 0.042665 -0.180349 0.040178 0.999160 -0.008103 153 109 55 255
-0.123233 0.040870 -0.155274 0.061313 0.998051 0.011624 153 109 55 255
-0.107122 0.039393 -0.113409 0.061313 0.998051 0.011624 152 109 55 255
-0.083986 0.037904 -0.107602 0.061313 0.998051 0.011624 122 87 44 255
-0.123233 0.040870 -0.155274 0.078118 0.996942 -0.002280 153 109 55 255
-0.083986 0.037904 -0.107602 0.078118 0.996942 -0.002280 122 87 44 255
-0.107623 0.039590 -0.180349 0.078118 0.996942 -0.002280 122 87 44 255
-0.107122 0.039393 -0.113409 0.069865 0.997265 -0.024095 152 109 55 255
-0.147536 0.042876 -0.086434 0.069865 0.997265 -0.024095 153 109 56 255
-0.145868 0.043334 -0.062642 0.069865 0.997265 -0.024095 134 96 49 255
-0.107122 0.039393 -0.113409 0.070168 0.997250 -0.023862 152 109 55 255
-0.145868 0.043334 -0.062642 0.070168 0.997250 -0.023862 134 96 49 255
-0.083986 0.037904 -0.107602 0.070168 0.997250 -0.023862 122 87 44 255
-0.145350 0.064100 -0.122609 0.484616 0.357454 0.798357 153 109 55 255
-0.135975 0.063216 -0.127904 0.484616 0.357454 0.798357 153 109 55 255
-0.140688 0.072248 -0.129087 0.484616 0.357454 0.798357 153 109 55 255
-0.123233 0.040870 -0.155274 0.131602 0.634286 -0.761815 153 109 55 255
-0.168835 0.042199 -0.162045 0.131602 0.634286 -0.761815 153 109 55 255
-0.157415 0.058749 -0.146293 0.131602 0.634286 -0.761815 153 109 55 255
-0.123233 0.040870 -0.155274 0.035301 0.501672 -0.864338 153 109 55 255
-0.157415 0.058749 -0.146293 0.035301 0.501672 -0.864338 153 109 55 255
-0.127412 0.057766 -0.145638 0.035301 0.501672 -0.864338 153 109 56 255
-0.179213 0.046251 -0.116514 -0.467148 0.677613 0.567991 153 109 55 255
-0.147536 0.042876 -0.086434 -0.467148 0.677613 0.567991 153 109 56 255
-0.145952 0.059309 -0.104737 -0.467148 0.677613 0.567991 154 111 58 255
-0.179213 0.046251 -0.116514 -0.465482 0.593393 0.656667 153 109 55 255
-0.145952 0.059309 -0.104737 -0.465482 0.593393 0.656667 154 111 58 255
-0.164108 0.061804 -0.119861 -0.465482 0.593393 0.656667 153 109 55 255
-0.107122 0.039393 -0.113409 0.862161 0.394497 -0.317884 152 109 55 255
-0.123233 0.040870 -0.155274 0.862161 0.394497 -0.317884 153 109 55 255
-0.127412 0.057766 -0.145638 0.862161 0.394497 -0.317884 153 109 56 255
-0.107122 0.039393 -0.113409 0.877249 0.224353 -0.424382 152 109 55 255
-0.127412 0.057766 -0.145638 0.877249 0.224353 -0.424382 153 109 56 255
-0.115502 0.056674 -0.121596 0.877249 0.224353 -0.424382 154 110 58 255
-0.168835 0.042199 -0.162045 -0.722856 0.654039 -0.222963 153 109 55 255
-0.179213 0.046251 -0.116514 -0.722856 0.654039 -0.222963 153 109 55 255
-0.164108 0.061804 -0.119861 -0.722856 0.654039 -0.222963 153 109 55 255
-0.168835 0.042199 -0.162045 -0.668968 0.699878 -0.250305 153 109 55 255
-0.164108 0.061804 -0.119861 -0.668968 0.699878 -0.250305 153 109 55 255
-0.157415 0.058749 -0.146293 -0.668968 0.699878 -0.250305 153 109 55 255
-0.145350 0.064100 -0.122609 -0.080477 0.963444 0.255536 153 109 55 255
-0.164108 0.061804 -0.119861 -0.080477 0.963444 0.255536 153 109 55 255
-0.145952 0.059309 -0.104737 -0.080477 0.963444 0.255536 154 111 58 255
-0.145350 0.064100 -0.122609 -0.075766 0.980213 -0.182870 153 109 55 255
-0.145626 0.062757 -0.129692 -0.075766 0.980213 -0.182870 153 109 55 255
-0.157415 0.058749 -0.146293 -0.075766 0.980213 -0.182870 153 109 55 255
-0.145350 0.064100 -0.122609 -0.141589 0.978650 -0.148987 153 109 55 255
-0.157415 0.058749 -0.146293 -0.141589 0.978650 -0.148987 153 109 55 255
-0.164108 0.061804 -0.119861 -0.141589 0.978650 -0.148987 153 109 55 255
-0.145626 0.062757 -0.129692 0.008297 0.956975 -0.290051 153 109 55 255
-0.135975 0.063216 -0.127904 0.008297 0.956975 -0.290051 153 109 55 255
-0.127412 0.057766 -0.145638 0.008297 0.956975 -0.290051 153 109 56 255
-0.145626 0.062757 -0.129692 0.037271 0.965030 -0.259475 153 109 55 255
-0.127412 0.057766 -0.145638 0.037271 0.965030 -0.259475 153 109 56 255
-0.157415 0.058749 -0.146293 0.037271 0.965030 -0.259475 153 109 55 255
-0.135975 0.063216 -0.127904 0.336541 0.933427 -0.124316 153 109 55 255
-0.115502 0.056674 -0.121596 0.336541 0.933427 -0.124316 154 110 58 255
-0.127412 0.057766 -0.145638 0.336541 0.933427 -0.124316 153 109 56 255
-0.135975 0.063216 -0.127904 0.234682 0.936923 0.259036 153 109 55 255
-0.145350 0.064100 -0.122609 0.234682 0.936923 0.259036 153 109 55 255
-0.145952 0.059309 -0.104737 0.234682 0.936923 0.259036 154 111 58 255
-0.135975 0.063216 -0.127904 0.222335 0.941185 0.254438 153 109 55 255
-0.145952 0.059309 -0.104737 0.222335 0.941185 0.254438 154 111 58 255
-0.115502 0.056674 -0.121596 0.222335 0.941185 0.254438 154 110 58 255
-0.135975 0.063216 -0.127904 0.183646 -0.032909 -0.982441 153 109 55 255
-0.145626 0.062757 -0.129692 0.183646 -0.032909 -0.982441 153 109 55 255
-0.140688 0.072248 -0.129087 0.183646 -0.032909 -0.982441 153 109 55 255
-0.145626 0.062757 -0.129692 -0.884414 0.463634 -0.053439 153 109 55 255
-0.145350 0.064100 -0.122609 -0.884414 0.463634 -0.053439 153 109 55 255
-0.140688 0.072248 -0.129087 -0.884414 0.463634 -0.053439 153 109 55 255
3 0 1 2
3 3 4 5
3 6 7 8
3 9 10 11
3 12 13 14
3 15 16 17
3 18 19 20
3 21 22 23
3 24 25 26
3 27 28 29
3 30 31 32
3 33 34 35
3 36 37 38
3 39 40 41
3 42 43 44
3 45 46 47
3 48 49 50
3 51 52 53
3 54 55 56
3 57 58 59
3 60 61 62
3 63 64 65
3 66 67 68
3 69 70 71
3 72 73 74
3 75 76 77
3 78 79 80
3 81 82 83
3 84 85 86
3 87 88 89
3 90 91 92
3 93 94 95
3 96 97 98
3 99 100 101
3 102 103 104
3 105 106 107
3 108 109 110
3 111 112 113
3 114 115 116
3 117 118 119
3 120 121 122
