ply
format ascii 1.0
comment Created by Blender 2.83.0 - www.blender.org, source file: 'source.blend'
element vertex 146
property float x
property float y
property float z
property float nx
property float ny
property float nz
property uchar red
property uchar green
property uchar blue
property uchar alpha
element face 51
property list uchar uint vertex_indices
end_header
0.023663 0.149284 0.247277 -0.548722 0.441617 0.709844 150 150 150 255
-0.069970 0.290137 0.087268 -0.548722 0.441617 0.709844 154 154 154 255
-0.128267 0.143678 0.133320 -0.548722 0.441617 0.709844 150 150 150 255
0.000000 -0.025413 0.300226 -0.385445 0.483420 0.785963 150 150 150 255
-0.128267 0.143678 0.133320 -0.385445 0.483420 0.785963 150 150 150 255
-0.201438 -0.025413 0.201438 -0.385445 0.483420 0.785963 150 150 150 255
-0.202612 0.205984 -0.018768 -0.806177 0.389844 -0.445084 150 150 150 255
-0.206579 -0.025138 -0.214019 -0.806177 0.389844 -0.445084 150 150 150 255
-0.324870 -0.025413 0.000000 -0.806177 0.389844 -0.445084 150 150 150 255
-0.201438 -0.025413 0.201438 -0.000000 -1.000000 0.000000 150 150 150 255
0.000000 -0.025413 -0.283271 -0.000000 -1.000000 0.000000 150 150 150 255
0.201438 -0.025413 0.201438 -0.000000 -1.000000 0.000000 150 150 150 255
0.298715 -0.025413 0.000000 0.897841 0.076776 0.433574 150 150 150 255
0.202058 0.207878 0.158845 0.897841 0.076776 0.433574 178 178 178 255
0.201438 -0.025413 0.201438 0.897841 0.076776 0.433574 150 150 150 255
0.008787 0.227916 -0.200299 0.265436 0.291764 -0.918922 150 150 150 255
0.245276 -0.031424 -0.214330 0.265436 0.291764 -0.918922 150 150 150 255
0.000000 -0.025413 -0.283271 0.265436 0.291764 -0.918922 150 150 150 255
-0.128267 0.143678 0.133320 -0.737753 0.501362 0.452058 150 150 150 255
-0.324870 -0.025413 0.000000 -0.737753 0.501362 0.452058 150 150 150 255
-0.201438 -0.025413 0.201438 -0.737753 0.501362 0.452058 150 150 150 255
0.201438 -0.025413 0.201438 0.430697 0.207847 0.878237 150 150 150 255
0.023663 0.149284 0.247277 0.430697 0.207847 0.878237 150 150 150 255
0.000000 -0.025413 0.300226 0.430697 0.207847 0.878237 150 150 150 255
0.245276 -0.031424 -0.214330 0.950499 0.194359 -0.242438 150 150 150 255
0.245651 0.223212 -0.008720 0.950499 0.194359 -0.242438 160 160 160 255
0.298715 -0.025413 0.000000 0.950499 0.194359 -0.242438 150 150 150 255
-0.135593 0.178289 -0.164110 -0.300226 0.324801 -0.896866 150 150 150 255
0.000000 -0.025413 -0.283271 -0.300226 0.324801 -0.896866 150 150 150 255
-0.206579 -0.025138 -0.214019 -0.300226 0.324801 -0.896866 150 150 150 255
-0.069970 0.290137 0.087268 0.828155 0.545423 -0.129126 154 154 154 255
-0.045422 0.226508 -0.024061 0.828155 0.545423 -0.129126 151 151 151 255
-0.090902 0.290315 -0.046231 0.828155 0.545423 -0.129126 150 150 150 255
0.023663 0.149284 0.247277 0.149695 0.658014 0.737976 150 150 150 255
0.202058 0.207878 0.158845 0.149695 0.658014 0.737976 178 178 178 255
0.059781 0.281832 0.121764 0.149695 0.658014 0.737976 150 150 150 255
-0.202612 0.205984 -0.018768 -0.585264 0.805510 0.092841 150 150 150 255
-0.069970 0.290137 0.087268 -0.585264 0.805510 0.092841 154 154 154 255
-0.090902 0.290315 -0.046231 -0.585264 0.805510 0.092841 150 150 150 255
0.008787 0.227916 -0.200299 -0.227891 0.842239 -0.488568 150 150 150 255
-0.090902 0.290315 -0.046231 -0.227891 0.842239 -0.488568 150 150 150 255
0.042418 0.298997 -0.093451 -0.227891 0.842239 -0.488568 150 150 150 255
-0.135593 0.178289 -0.164110 -0.611498 0.676236 -0.410821 150 150 150 255
-0.202612 0.205984 -0.018768 -0.611498 0.676236 -0.410821 150 150 150 255
-0.090902 0.290315 -0.046231 -0.611498 0.676236 -0.410821 150 150 150 255
0.175470 0.267800 -0.130358 0.703580 0.694291 -0.151441 150 150 150 255
0.149549 0.326489 0.018276 0.703580 0.694291 -0.151441 151 151 151 255
0.245651 0.223212 -0.008720 0.703580 0.694291 -0.151441 160 160 160 255
0.202058 0.207878 0.158845 0.260349 0.783664 0.563994 178 178 178 255
0.149549 0.326489 0.018276 0.260349 0.783664 0.563994 151 151 151 255
0.059781 0.281832 0.121764 0.260349 0.783664 0.563994 150 150 150 255
0.175470 0.267800 -0.130358 0.037957 0.826444 -0.561738 150 150 150 255
0.008787 0.227916 -0.200299 0.037957 0.826444 -0.561738 150 150 150 255
0.042418 0.298997 -0.093451 0.037957 0.826444 -0.561738 150 150 150 255
-0.045422 0.226508 -0.024061 -0.129256 0.985702 0.108099 151 151 151 255
-0.033974 0.218744 0.060424 -0.129256 0.985702 0.108099 150 150 150 255
0.048119 0.227285 0.080707 -0.129256 0.985702 0.108099 150 150 150 255
-0.069970 0.290137 0.087268 0.175660 0.422844 -0.889014 154 154 154 255
0.048119 0.227285 0.080707 0.175660 0.422844 -0.889014 150 150 150 255
-0.033974 0.218744 0.060424 0.175660 0.422844 -0.889014 150 150 150 255
0.042418 0.298997 -0.093451 0.143285 0.588234 0.795896 150 150 150 255
-0.045422 0.226508 -0.024061 0.143285 0.588234 0.795896 151 151 151 255
0.057101 0.243341 -0.054959 0.143285 0.588234 0.795896 150 150 150 255
0.059781 0.281832 0.121764 -0.684880 0.525983 -0.504262 150 150 150 255
0.107070 0.242101 0.016095 -0.684880 0.525983 -0.504262 150 150 150 255
0.048119 0.227285 0.080707 -0.684880 0.525983 -0.504262 150 150 150 255
0.149549 0.326489 0.018276 -0.757720 0.367479 0.539278 151 151 151 255
0.057101 0.243341 -0.054959 -0.757720 0.367479 0.539278 150 150 150 255
0.107070 0.242101 0.016095 -0.757720 0.367479 0.539278 150 150 150 255
-0.063271 0.238763 -0.033903 -0.129257 0.985701 0.108099 64 128 191 255
-0.048984 0.229075 0.071525 -0.129257 0.985701 0.108099 67 130 193 255
0.053459 0.239732 0.096836 -0.129257 0.985701 0.108099 64 128 191 255
0.023663 0.149284 0.247277 -0.141088 0.700695 0.699371 150 150 150 255
0.059781 0.281832 0.121764 -0.141088 0.700695 0.699371 150 150 150 255
-0.069970 0.290137 0.087268 -0.141088 0.700695 0.699371 154 154 154 255
0.000000 -0.025413 0.300226 -0.578214 0.307385 0.755766 150 150 150 255
0.023663 0.149284 0.247277 -0.578214 0.307385 0.755766 150 150 150 255
-0.128267 0.143678 0.133320 -0.578214 0.307385 0.755766 150 150 150 255
-0.202612 0.205984 -0.018768 -0.805483 0.390447 -0.445812 150 150 150 255
-0.135593 0.178289 -0.164110 -0.805483 0.390447 -0.445812 150 150 150 255
-0.206579 -0.025138 -0.214019 -0.805483 0.390447 -0.445812 150 150 150 255
-0.324870 -0.025413 0.000000 0.001100 -0.999999 -0.000674 150 150 150 255
-0.206579 -0.025138 -0.214019 0.001100 -0.999999 -0.000674 150 150 150 255
-0.201438 -0.025413 0.201438 0.001100 -0.999999 -0.000674 150 150 150 255
-0.206579 -0.025138 -0.214019 -0.001543 -0.999999 -0.000641 150 150 150 255
0.000000 -0.025413 -0.283271 -0.001543 -0.999999 -0.000641 150 150 150 255
-0.201438 -0.025413 0.201438 -0.001543 -0.999999 -0.000641 150 150 150 255
0.000000 -0.025413 -0.283271 -0.034789 -0.998721 0.036685 150 150 150 255
0.245276 -0.031424 -0.214330 -0.034789 -0.998721 0.036685 150 150 150 255
0.298715 -0.025413 0.000000 -0.034789 -0.998721 0.036685 150 150 150 255
0.298715 -0.025413 0.000000 0.000000 -1.000000 0.000000 150 150 150 255
0.000000 -0.025413 0.300226 0.000000 -1.000000 0.000000 150 150 150 255
0.298715 -0.025413 0.000000 0.941313 0.210165 0.264122 150 150 150 255
0.245651 0.223212 -0.008720 0.941313 0.210165 0.264122 160 160 160 255
0.202058 0.207878 0.158845 0.941313 0.210165 0.264122 178 178 178 255
0.008787 0.227916 -0.200299 0.299784 0.321956 -0.898039 150 150 150 255
0.175470 0.267800 -0.130358 0.299784 0.321956 -0.898039 150 150 150 255
0.245276 -0.031424 -0.214330 0.299784 0.321956 -0.898039 150 150 150 255
-0.128267 0.143678 0.133320 -0.729836 0.428791 0.532426 150 150 150 255
-0.202612 0.205984 -0.018768 -0.729836 0.428791 0.532426 150 150 150 255
-0.324870 -0.025413 0.000000 -0.729836 0.428791 0.532426 150 150 150 255
0.201438 -0.025413 0.201438 0.394344 0.164040 0.904204 150 150 150 255
0.202058 0.207878 0.158845 0.394344 0.164040 0.904204 178 178 178 255
0.023663 0.149284 0.247277 0.394344 0.164040 0.904204 150 150 150 255
0.245276 -0.031424 -0.214330 0.868096 0.311076 -0.386834 150 150 150 255
0.175470 0.267800 -0.130358 0.868096 0.311076 -0.386834 150 150 150 255
0.245651 0.223212 -0.008720 0.868096 0.311076 -0.386834 160 160 160 255
-0.135593 0.178289 -0.164110 -0.328681 0.304240 -0.894096 150 150 150 255
0.008787 0.227916 -0.200299 -0.328681 0.304240 -0.894096 150 150 150 255
0.000000 -0.025413 -0.283271 -0.328681 0.304240 -0.894096 150 150 150 255
-0.069970 0.290137 0.087268 0.878623 0.471472 -0.075733 154 154 154 255
-0.033974 0.218744 0.060424 0.878623 0.471472 -0.075733 150 150 150 255
-0.045422 0.226508 -0.024061 0.878623 0.471472 -0.075733 151 151 151 255
-0.202612 0.205984 -0.018768 -0.714096 0.452261 0.534347 150 150 150 255
-0.128267 0.143678 0.133320 -0.714096 0.452261 0.534347 150 150 150 255
-0.069970 0.290137 0.087268 -0.714096 0.452261 0.534347 154 154 154 255
0.008787 0.227916 -0.200299 -0.391432 0.736567 -0.551589 150 150 150 255
-0.135593 0.178289 -0.164110 -0.391432 0.736567 -0.551589 150 150 150 255
-0.090902 0.290315 -0.046231 -0.391432 0.736567 -0.551589 150 150 150 255
0.175470 0.267800 -0.130358 0.122135 0.930246 -0.346013 150 150 150 255
0.042418 0.298997 -0.093451 0.122135 0.930246 -0.346013 150 150 150 255
0.149549 0.326489 0.018276 0.122135 0.930246 -0.346013 151 151 151 255
0.202058 0.207878 0.158845 0.740570 0.623843 0.249752 178 178 178 255
0.245651 0.223212 -0.008720 0.740570 0.623843 0.249752 160 160 160 255
0.149549 0.326489 0.018276 0.740570 0.623843 0.249752 151 151 151 255
0.107070 0.242101 0.016095 -0.129257 0.985701 0.108099 150 150 150 255
0.057101 0.243341 -0.054959 -0.129257 0.985701 0.108099 150 150 150 255
0.048119 0.227285 0.080707 -0.129257 0.985701 0.108099 150 150 150 255
-0.045422 0.226508 -0.024061 -0.129257 0.985701 0.108099 151 151 151 255
-0.069970 0.290137 0.087268 0.247469 0.548345 -0.798797 154 154 154 255
0.059781 0.281832 0.121764 0.247469 0.548345 -0.798797 150 150 150 255
0.048119 0.227285 0.080707 0.247469 0.548345 -0.798797 150 150 150 255
0.042418 0.298997 -0.093451 0.265049 0.479569 0.836518 150 150 150 255
-0.090902 0.290315 -0.046231 0.265049 0.479569 0.836518 150 150 150 255
-0.045422 0.226508 -0.024061 0.265049 0.479569 0.836518 151 151 151 255
0.059781 0.281832 0.121764 -0.770629 0.400717 -0.495537 150 150 150 255
0.149549 0.326489 0.018276 -0.770629 0.400717 -0.495537 151 151 151 255
0.107070 0.242101 0.016095 -0.770629 0.400717 -0.495537 150 150 150 255
0.149549 0.326489 0.018276 -0.728958 0.248758 0.637761 151 151 151 255
0.042418 0.298997 -0.093451 -0.728958 0.248758 0.637761 150 150 150 255
0.057101 0.243341 -0.054959 -0.728958 0.248758 0.637761 150 150 150 255
0.127023 0.258221 0.016208 -0.129257 0.985701 0.108099 64 128 191 255
0.064667 0.259768 -0.072461 -0.129257 0.985701 0.108099 68 130 193 255
0.064667 0.259768 -0.072461 -0.129257 0.985702 0.108099 68 130 193 255
-0.063271 0.238763 -0.033903 -0.129257 0.985702 0.108099 64 128 191 255
0.053459 0.239732 0.096836 -0.129257 0.985702 0.108099 64 128 191 255
3 0 1 2
3 3 4 5
3 6 7 8
3 9 10 11
3 12 13 14
3 15 16 17
3 18 19 20
3 21 22 23
3 24 25 26
3 27 28 29
3 30 31 32
3 33 34 35
3 36 37 38
3 39 40 41
3 42 43 44
3 45 46 47
3 48 49 50
3 51 52 53
3 54 55 56
3 57 58 59
3 60 61 62
3 63 64 65
3 66 67 68
3 69 70 71
3 72 73 74
3 75 76 77
3 78 79 80
3 81 82 83
3 84 85 86
3 87 88 89
3 90 11 10
3 11 91 9
3 92 93 94
3 95 96 97
3 98 99 100
3 101 102 103
3 104 105 106
3 107 108 109
3 110 111 112
3 113 114 115
3 116 117 118
3 119 120 121
3 122 123 124
3 125 126 127
3 126 128 127
3 129 130 131
3 132 133 134
3 135 136 137
3 138 139 140
3 141 142 71
3 143 144 145
