ply
format ascii 1.0
comment Created by Blender 2.80 (sub 75) - www.blender.org, source file: 'stone01.blend'
element vertex 90
property float x
property float y
property float z
property float nx
property float ny
property float nz
property uchar red
property uchar green
property uchar blue
property uchar alpha
element face 30
property list uchar uint vertex_indices
end_header
0.227791 0.723327 -0.235632 0.800541 0.330445 -0.499939 123 122 121 255
0.409367 0.459135 -0.119503 0.800541 0.330445 -0.499939 150 149 147 255
0.282464 0.330726 -0.407585 0.800541 0.330445 -0.499939 125 124 123 255
-0.319573 0.401587 0.312017 -0.027403 0.063243 0.997622 150 149 147 255
0.368768 -0.027749 0.358142 -0.027403 0.063243 0.997622 122 121 120 255
0.163510 0.555253 0.315545 -0.027403 0.063243 0.997622 124 123 122 255
-0.176121 0.330726 -0.247862 -0.841876 -0.321506 -0.433449 142 141 140 255
-0.348180 0.689200 -0.179570 -0.841876 -0.321506 -0.433449 124 123 122 255
-0.255898 0.689200 -0.358807 -0.841876 -0.321506 -0.433449 125 124 123 255
-0.176121 0.330726 -0.247862 0.004326 -0.294776 -0.955557 142 141 140 255
-0.255898 0.689200 -0.358807 0.004326 -0.294776 -0.955557 125 124 123 255
0.043837 0.733186 -0.371019 0.004326 -0.294776 -0.955557 122 121 120 255
0.249665 0.587545 0.000889 0.345311 0.827338 0.443026 149 148 146 255
0.227791 0.723327 -0.235632 0.345311 0.827338 0.443026 123 122 121 255
-0.168943 0.689200 0.137330 0.345311 0.827338 0.443026 150 149 147 255
-0.319573 0.401587 0.312017 -0.444086 0.623433 0.643521 150 149 147 255
-0.168943 0.689200 0.137330 -0.444086 0.623433 0.643521 150 149 147 255
-0.306811 0.689200 0.042189 -0.444086 0.623433 0.643521 122 121 120 255
-0.013904 0.792455 -0.238395 -0.317298 0.934149 -0.163364 131 130 129 255
-0.255898 0.689200 -0.358807 -0.317298 0.934149 -0.163364 125 124 123 255
-0.348180 0.689200 -0.179570 -0.317298 0.934149 -0.163364 124 123 122 255
0.409367 0.459135 -0.119503 0.965586 0.136605 0.221319 150 149 147 255
0.337277 0.485890 0.178499 0.965586 0.136605 0.221319 122 121 120 255
0.368768 -0.027749 0.358142 0.965586 0.136605 0.221319 122 121 120 255
0.368768 -0.027749 -0.358807 0.996542 -0.083095 0.000000 122 121 120 255
0.409367 0.459135 -0.119503 0.996542 -0.083095 0.000000 150 149 147 255
0.368768 -0.027749 0.358142 0.996542 -0.083095 0.000000 122 121 120 255
-0.306811 0.689200 0.042189 -0.286124 0.956705 0.053377 122 121 120 255
-0.013904 0.792455 -0.238395 -0.286124 0.956705 0.053377 131 130 129 255
-0.348180 0.689200 -0.179570 -0.286124 0.956705 0.053377 124 123 122 255
0.227791 0.723327 -0.235632 0.253637 0.900886 0.352239 123 122 121 255
-0.013904 0.792455 -0.238395 0.253637 0.900886 0.352239 131 130 129 255
-0.168943 0.689200 0.137330 0.253637 0.900886 0.352239 150 149 147 255
0.282464 0.330726 -0.407585 -0.322044 -0.203348 -0.924628 125 124 123 255
0.368768 -0.027749 -0.358807 -0.322044 -0.203348 -0.924628 122 121 120 255
-0.176121 0.330726 -0.247862 -0.322044 -0.203348 -0.924628 142 141 140 255
-0.306811 0.689200 0.042189 -0.876870 -0.452040 0.163582 122 121 120 255
-0.348180 0.689200 -0.179570 -0.876870 -0.452040 0.163582 124 123 122 255
-0.176121 0.330726 -0.247862 -0.876870 -0.452040 0.163582 142 141 140 255
0.227791 0.723327 -0.235632 0.723335 0.625600 0.292252 123 122 121 255
0.249665 0.587545 0.000889 0.723335 0.625600 0.292252 149 148 146 255
0.409367 0.459135 -0.119503 0.723335 0.625600 0.292252 150 149 147 255
-0.348180 -0.027749 0.358142 0.000000 0.106818 0.994278 123 122 122 255
0.368768 -0.027749 0.358142 0.000000 0.106818 0.994278 122 121 120 255
-0.319573 0.401587 0.312017 0.000000 0.106818 0.994278 150 149 147 255
0.368768 -0.027749 0.358142 0.661065 0.283501 0.694709 122 121 120 255
0.337277 0.485890 0.178499 0.661065 0.283501 0.694709 122 121 120 255
0.163510 0.555253 0.315545 0.661065 0.283501 0.694709 124 123 122 255
-0.168943 0.689200 0.137330 0.285822 0.942177 0.174952 150 149 147 255
0.163510 0.555253 0.315545 0.285822 0.942177 0.174952 124 123 122 255
0.249665 0.587545 0.000889 0.285822 0.942177 0.174952 149 148 146 255
0.163510 0.555253 0.315545 0.508870 0.831023 0.224616 124 123 122 255
0.337277 0.485890 0.178499 0.508870 0.831023 0.224616 122 121 120 255
0.249665 0.587545 0.000889 0.508870 0.831023 0.224616 149 148 146 255
-0.319573 0.401587 0.312017 -0.190454 0.580557 0.791632 150 149 147 255
0.163510 0.555253 0.315545 -0.190454 0.580557 0.791632 124 123 122 255
-0.168943 0.689200 0.137330 -0.190454 0.580557 0.791632 150 149 147 255
-0.013904 0.792455 -0.238395 -0.147369 0.877527 -0.456320 131 130 129 255
0.043837 0.733186 -0.371019 -0.147369 0.877527 -0.456320 122 121 120 255
-0.255898 0.689200 -0.358807 -0.147369 0.877527 -0.456320 125 124 123 255
0.409367 0.459135 -0.119503 0.666207 0.739723 0.094748 150 149 147 255
0.249665 0.587545 0.000889 0.666207 0.739723 0.094748 149 148 146 255
0.337277 0.485890 0.178499 0.666207 0.739723 0.094748 122 121 120 255
0.368768 -0.027749 -0.358807 0.878468 0.149757 -0.453726 122 121 120 255
0.282464 0.330726 -0.407585 0.878468 0.149757 -0.453726 125 124 123 255
0.409367 0.459135 -0.119503 0.878468 0.149757 -0.453726 150 149 147 255
-0.306811 0.689200 0.042189 -0.142867 0.967848 0.207027 122 121 120 255
-0.168943 0.689200 0.137330 -0.142867 0.967848 0.207027 150 149 147 255
-0.013904 0.792455 -0.238395 -0.142867 0.967848 0.207027 131 130 129 255
0.227791 0.723327 -0.235632 0.265904 0.917930 -0.294449 123 122 121 255
0.043837 0.733186 -0.371019 0.265904 0.917930 -0.294449 122 121 120 255
-0.013904 0.792455 -0.238395 0.265904 0.917930 -0.294449 131 130 129 255
0.368768 -0.027749 -0.358807 0.000000 0.295657 -0.955294 122 121 120 255
-0.348180 -0.027749 -0.358807 0.000000 0.295657 -0.955294 122 121 120 255
-0.176121 0.330726 -0.247862 0.000000 0.295657 -0.955294 142 141 140 255
-0.176121 0.330726 -0.247862 -0.326972 -0.108575 -0.938776 142 141 140 255
0.043837 0.733186 -0.371019 -0.326972 -0.108575 -0.938776 122 121 120 255
0.282464 0.330726 -0.407585 -0.326972 -0.108575 -0.938776 125 124 123 255
0.043837 0.733186 -0.371019 0.557758 0.396933 -0.728938 122 121 120 255
0.227791 0.723327 -0.235632 0.557758 0.396933 -0.728938 123 122 121 255
0.282464 0.330726 -0.407585 0.557758 0.396933 -0.728938 125 124 123 255
-0.348180 -0.027749 -0.358807 -0.901531 0.432714 0.000000 122 121 120 255
-0.348180 -0.027749 0.358142 -0.901531 0.432714 0.000000 123 122 122 255
-0.176121 0.330726 -0.247862 -0.901531 0.432714 0.000000 142 141 140 255
-0.348180 -0.027749 0.358142 -0.966889 0.037302 -0.252458 123 122 122 255
-0.319573 0.401587 0.312017 -0.966889 0.037302 -0.252458 150 149 147 255
-0.176121 0.330726 -0.247862 -0.966889 0.037302 -0.252458 142 141 140 255
-0.319573 0.401587 0.312017 -0.959822 -0.168160 -0.224643 150 149 147 255
-0.306811 0.689200 0.042189 -0.959822 -0.168160 -0.224643 122 121 120 255
-0.176121 0.330726 -0.247862 -0.959822 -0.168160 -0.224643 142 141 140 255
3 0 1 2
3 3 4 5
3 6 7 8
3 9 10 11
3 12 13 14
3 15 16 17
3 18 19 20
3 21 22 23
3 24 25 26
3 27 28 29
3 30 31 32
3 33 34 35
3 36 37 38
3 39 40 41
3 42 43 44
3 45 46 47
3 48 49 50
3 51 52 53
3 54 55 56
3 57 58 59
3 60 61 62
3 63 64 65
3 66 67 68
3 69 70 71
3 72 73 74
3 75 76 77
3 78 79 80
3 81 82 83
3 84 85 86
3 87 88 89
