ply
format ascii 1.0
comment Created by Blender 2.79 (sub 0) - www.blender.org, source file: 'tree01.blend'
element vertex 178
property float x
property float y
property float z
property float nx
property float ny
property float nz
property uchar red
property uchar green
property uchar blue
element face 52
property list uchar uint vertex_indices
end_header
0.121920 0.308725 -0.061841 0.654000 -0.034360 -0.755714 153 109 65
0.014840 0.308725 -0.152198 0.654000 -0.034360 -0.755714 153 109 65
0.043475 0.802944 -0.152198 0.654000 -0.034360 -0.755714 153 109 65
0.146709 0.831387 -0.061841 0.654000 -0.034360 -0.755714 153 109 65
-0.160853 -0.042214 0.091734 -0.992086 0.091708 -0.085756 153 109 65
-0.125747 0.308725 0.060898 -0.992086 0.091708 -0.085756 153 109 65
-0.113055 0.308725 -0.085926 -0.992086 0.091708 -0.085756 153 109 65
-0.142080 -0.042214 -0.125439 -0.992086 0.091708 -0.085756 153 109 65
0.047095 -0.042214 -0.223465 0.630565 0.209707 -0.747270 153 109 65
0.014840 0.308725 -0.152198 0.630565 0.209707 -0.747270 153 109 65
0.121920 0.308725 -0.061841 0.630565 0.209707 -0.747270 153 109 65
0.205482 -0.042214 -0.089813 0.630565 0.209707 -0.747270 153 109 65
0.205482 -0.042214 -0.089813 0.965733 0.238169 -0.103123 153 109 65
0.121920 0.308725 -0.061841 0.965733 0.238169 -0.103123 153 109 65
0.135548 0.308725 0.065779 0.965733 0.238169 -0.103123 153 109 65
0.225639 -0.042214 0.098954 0.965733 0.238169 -0.103123 153 109 65
-0.016999 0.308725 0.152530 0.483876 0.204653 0.850871 153 109 65
-0.000000 -0.042214 0.227271 0.483876 0.204653 0.850871 153 109 65
0.225639 -0.042214 0.098954 0.483876 0.204653 0.850871 153 109 65
0.135548 0.308725 0.065779 0.483876 0.204653 0.850871 153 109 65
-0.125747 0.308725 0.060898 -0.638852 0.130527 0.758177 153 109 65
-0.160853 -0.042214 0.091734 -0.638852 0.130527 0.758177 153 109 65
-0.000000 -0.042214 0.227271 -0.638852 0.130527 0.758177 153 109 65
-0.016999 0.308725 0.152530 -0.638852 0.130527 0.758177 153 109 65
-0.142080 -0.042214 -0.125439 -0.455755 0.136724 -0.879542 153 109 65
-0.113055 0.308725 -0.085926 -0.455755 0.136724 -0.879542 153 109 65
0.014840 0.308725 -0.152198 -0.455755 0.136724 -0.879542 153 109 65
0.047095 -0.042214 -0.223465 -0.455755 0.136724 -0.879542 153 109 65
0.159847 0.835007 0.065779 0.943419 0.315177 -0.103073 153 109 65
0.146709 0.831387 -0.061841 0.943419 0.315177 -0.103073 153 109 65
0.010244 1.244424 -0.051610 0.943419 0.315177 -0.103073 153 109 65
0.021476 1.244015 0.053645 0.943419 0.315177 -0.103073 153 109 65
-0.113055 0.308725 -0.085926 -0.993863 0.072515 -0.083535 153 109 65
-0.125747 0.308725 0.060898 -0.993863 0.072515 -0.083535 153 109 65
-0.092061 0.765601 0.060898 -0.993863 0.072515 -0.083535 153 109 65
-0.079825 0.768972 -0.085926 -0.993863 0.072515 -0.083535 153 109 65
-0.125747 0.308725 0.060898 -0.653970 0.044030 0.755238 153 109 65
-0.016999 0.308725 0.152530 -0.653970 0.044030 0.755238 153 109 65
0.012780 0.794486 0.152530 -0.653970 0.044030 0.755238 153 109 65
-0.092061 0.765601 0.060898 -0.653970 0.044030 0.755238 153 109 65
0.135548 0.308725 0.065779 0.993539 -0.046495 -0.103527 153 109 65
0.121920 0.308725 -0.061841 0.993539 -0.046495 -0.103527 153 109 65
0.146709 0.831387 -0.061841 0.993539 -0.046495 -0.103527 153 109 65
0.159847 0.835007 0.065779 0.993539 -0.046495 -0.103527 153 109 65
-0.016999 0.308725 0.152530 0.503667 -0.026913 0.863479 153 109 65
0.135548 0.308725 0.065779 0.503667 -0.026913 0.863479 153 109 65
0.159847 0.835007 0.065779 0.503667 -0.026913 0.863479 153 109 65
0.012780 0.794486 0.152530 0.503667 -0.026913 0.863479 153 109 65
0.014840 0.308725 -0.152198 -0.469671 0.030443 -0.882316 153 109 65
-0.113055 0.308725 -0.085926 -0.469671 0.030443 -0.882316 153 109 65
-0.079825 0.768972 -0.085926 -0.469671 0.030443 -0.882316 153 109 65
0.043475 0.802944 -0.152198 -0.469671 0.030443 -0.882316 153 109 65
0.010244 1.244424 -0.051610 0.639274 0.171023 -0.749720 153 109 65
-0.078013 1.247635 -0.126132 0.639274 0.171023 -0.749720 153 109 65
-0.041296 1.648152 -0.003460 0.639274 0.171023 -0.749720 153 109 65
0.012780 0.794486 0.152530 0.475818 0.180170 0.860892 153 109 65
0.159847 0.835007 0.065779 0.475818 0.180170 0.860892 153 109 65
0.021476 1.244015 0.053645 0.475818 0.180170 0.860892 165 127 89
-0.104255 1.248590 0.125193 0.475818 0.180170 0.860892 153 109 65
-0.092061 0.765601 0.060898 -0.638508 -0.117373 0.760612 153 109 65
0.012780 0.794486 0.152530 -0.638508 -0.117373 0.760612 153 109 65
-0.104255 1.248590 0.125193 -0.638508 -0.117373 0.760612 153 109 65
-0.193885 1.251851 0.049619 -0.638508 -0.117373 0.760612 153 109 65
0.146709 0.831387 -0.061841 0.620061 0.218365 -0.753553 153 109 65
0.043475 0.802944 -0.152198 0.620061 0.218365 -0.753553 153 109 65
-0.078013 1.247635 -0.126132 0.620061 0.218365 -0.753553 153 109 65
0.010244 1.244424 -0.051610 0.620061 0.218365 -0.753553 153 109 65
-0.079825 0.768972 -0.085926 -0.974774 -0.206424 -0.084880 153 109 65
-0.092061 0.765601 0.060898 -0.974774 -0.206424 -0.084880 153 109 65
-0.193885 1.251851 0.049619 -0.974774 -0.206424 -0.084880 154 110 66
-0.183425 1.251471 -0.071474 -0.974774 -0.206424 -0.084880 153 109 65
0.043475 0.802944 -0.152198 -0.458690 -0.072652 -0.885621 153 109 65
-0.079825 0.768972 -0.085926 -0.458690 -0.072652 -0.885621 153 109 65
-0.183425 1.251471 -0.071474 -0.458690 -0.072652 -0.885621 153 109 65
-0.078013 1.247635 -0.126132 -0.458690 -0.072652 -0.885621 153 109 65
-0.183425 1.251471 -0.071474 -0.933713 0.348562 -0.081753 153 109 65
-0.193885 1.251851 0.049619 -0.933713 0.348562 -0.081753 154 110 66
-0.041296 1.648152 -0.003460 -0.933713 0.348562 -0.081753 153 109 65
-0.078013 1.247635 -0.126132 -0.430456 0.300182 -0.851233 153 109 65
-0.183425 1.251471 -0.071474 -0.430456 0.300182 -0.851233 153 109 65
-0.041296 1.648152 -0.003460 -0.430456 0.300182 -0.851233 153 109 65
0.021476 1.244015 0.053645 0.984870 0.138198 -0.104560 153 109 65
0.010244 1.244424 -0.051610 0.984870 0.138198 -0.104560 153 109 65
-0.041296 1.648152 -0.003460 0.984870 0.138198 -0.104560 153 109 65
-0.104255 1.248590 0.125193 0.490359 0.196151 0.849160 153 109 65
0.021476 1.244015 0.053645 0.490359 0.196151 0.849160 165 127 89
-0.041296 1.648152 -0.003460 0.490359 0.196151 0.849160 153 109 65
-0.193885 1.251851 0.049619 -0.601669 0.329139 0.727779 153 109 65
-0.104255 1.248590 0.125193 -0.601669 0.329139 0.727779 153 109 65
-0.041296 1.648152 -0.003460 -0.601669 0.329139 0.727779 153 109 65
-0.175377 1.077605 0.187193 -0.134547 -0.857339 -0.496858 94 197 81
-0.543466 1.461161 -0.374963 -0.134547 -0.857339 -0.496858 50 181 33
0.112062 1.410360 -0.464820 -0.134547 -0.857339 -0.496858 50 181 33
-0.894613 1.570513 -0.012557 -0.513723 -0.832946 -0.205644 50 181 33
-0.175377 1.077605 0.187193 -0.513723 -0.832946 -0.205644 94 197 81
-0.696318 1.302696 0.576852 -0.513723 -0.832946 -0.205644 66 187 49
-0.175377 1.077605 0.187193 0.003663 -0.891356 -0.453289 94 197 81
0.112062 1.410360 -0.464820 0.003663 -0.891356 -0.453289 50 181 33
0.456522 1.262222 -0.170735 0.003663 -0.891356 -0.453289 50 181 33
-0.175377 1.077605 0.187193 -0.056792 -0.858157 0.510236 121 206 110
0.443421 1.183859 0.434776 -0.056792 -0.858157 0.510236 50 181 33
0.187520 1.392562 0.757307 -0.056792 -0.858157 0.510236 50 181 33
-0.175377 1.077605 0.187193 -0.011145 -0.872236 0.488958 121 206 110
0.187520 1.392562 0.757307 -0.011145 -0.872236 0.488958 50 181 33
-0.696318 1.302696 0.576852 -0.011145 -0.872236 0.488958 76 191 62
-0.894613 1.570513 -0.012557 -0.955737 -0.094215 0.278730 50 181 33
-0.696318 1.302696 0.576852 -0.955737 -0.094215 0.278730 50 181 33
-0.882138 2.034910 0.187193 -0.955737 -0.094215 0.278730 50 181 33
-0.543466 1.461161 -0.374963 -0.713210 -0.412820 -0.566490 50 181 33
-0.894613 1.570513 -0.012557 -0.713210 -0.412820 -0.566490 96 198 82
-0.752166 1.670785 -0.264969 -0.713210 -0.412820 -0.566490 79 192 65
0.456522 1.262222 -0.170735 0.597627 -0.167097 -0.784168 50 181 33
0.112062 1.410360 -0.464820 0.597627 -0.167097 -0.784168 50 181 33
0.645672 1.768867 -0.134541 0.597627 -0.167097 -0.784168 86 194 72
0.443421 1.183859 0.434776 0.840255 -0.539724 -0.051668 50 181 33
0.456522 1.262222 -0.170735 0.840255 -0.539724 -0.051668 50 181 33
0.631042 1.485497 0.335070 0.840255 -0.539724 -0.051668 57 184 41
-0.696318 1.302696 0.576852 -0.181785 -0.160299 0.970185 50 181 33
0.187520 1.392562 0.757307 -0.181785 -0.160299 0.970185 50 181 33
-0.261044 1.968245 0.768376 -0.181785 -0.160299 0.970185 50 181 33
-0.752166 1.670785 -0.264969 -0.368491 0.234910 -0.899462 77 191 62
-0.676658 2.101196 -0.183494 -0.368491 0.234910 -0.899462 53 182 37
-0.307261 1.908552 -0.385141 -0.368491 0.234910 -0.899462 50 181 33
0.112062 1.410360 -0.464820 0.287014 0.382071 -0.878433 50 181 33
-0.307261 1.908552 -0.385141 0.287014 0.382071 -0.878433 50 181 33
0.645672 1.768867 -0.134541 0.287014 0.382071 -0.878433 86 194 72
0.631042 1.485497 0.335070 0.743361 0.108638 0.660009 51 181 34
0.636709 1.941706 0.253595 0.743361 0.108638 0.660009 50 181 33
0.326136 1.708772 0.641730 0.743361 0.108638 0.660009 50 181 33
0.187520 1.392562 0.757307 0.294485 0.211539 0.931950 50 181 33
0.326136 1.708772 0.641730 0.294485 0.211539 0.931950 50 181 33
-0.261044 1.968245 0.768376 0.294485 0.211539 0.931950 50 181 33
-0.696318 1.302696 0.576852 -0.653962 0.219343 0.724032 50 181 33
-0.261044 1.968245 0.768376 -0.653962 0.219343 0.724032 50 181 33
-0.882138 2.034910 0.187193 -0.653962 0.219343 0.724032 50 181 33
-0.676658 2.101196 -0.183494 0.102449 0.806275 -0.582602 53 182 37
-0.008979 2.284211 0.187193 0.102449 0.806275 -0.582602 50 181 33
-0.307261 1.908552 -0.385141 0.102449 0.806275 -0.582602 50 181 33
0.645672 1.768867 -0.134541 0.271372 0.733660 -0.622977 86 194 72
-0.307261 1.908552 -0.385141 0.271372 0.733660 -0.622977 50 181 33
-0.008979 2.284211 0.187193 0.271372 0.733660 -0.622977 50 181 33
0.636709 1.941706 0.253595 0.300025 0.692747 0.655810 50 181 33
-0.008979 2.284211 0.187193 0.300025 0.692747 0.655810 50 181 33
0.326136 1.708772 0.641730 0.300025 0.692747 0.655810 50 181 33
-0.261044 1.968245 0.768376 0.432040 0.700388 0.568153 50 181 33
0.326136 1.708772 0.641730 0.432040 0.700388 0.568153 50 181 33
-0.008979 2.284211 0.187193 0.432040 0.700388 0.568153 50 181 33
-0.882138 2.034910 0.187193 -0.254583 0.891658 0.374344 50 181 33
-0.261044 1.968245 0.768376 -0.254583 0.891658 0.374344 50 181 33
-0.008979 2.284211 0.187193 -0.254583 0.891658 0.374344 50 181 33
-0.894613 1.570513 -0.012557 -0.875460 0.221139 -0.429729 50 181 33
-0.882138 2.034910 0.187193 -0.875460 0.221139 -0.429729 50 181 33
-0.676658 2.101196 -0.183494 -0.875460 0.221139 -0.429729 50 181 33
-0.752166 1.670785 -0.264969 -0.875460 0.221139 -0.429729 50 181 33
0.112062 1.410360 -0.464820 -0.200514 0.083658 -0.976112 50 181 33
-0.543466 1.461161 -0.374963 -0.200514 0.083658 -0.976112 50 181 33
-0.752166 1.670785 -0.264969 -0.200514 0.083658 -0.976112 77 191 62
-0.307261 1.908552 -0.385141 -0.200514 0.083658 -0.976112 50 181 33
0.456522 1.262222 -0.170735 0.975204 -0.201607 -0.091272 50 181 33
0.645672 1.768867 -0.134541 0.975204 -0.201607 -0.091272 84 194 69
0.636709 1.941706 0.253595 0.975204 -0.201607 -0.091272 58 184 41
0.631042 1.485497 0.335070 0.975204 -0.201607 -0.091272 57 184 41
0.187520 1.392562 0.757307 0.697664 -0.122423 0.705888 50 181 33
0.443421 1.183859 0.434776 0.697664 -0.122423 0.705888 50 181 33
0.631042 1.485497 0.335070 0.697664 -0.122423 0.705888 57 184 41
0.326136 1.708772 0.641730 0.697664 -0.122423 0.705888 54 183 37
-0.175377 1.077605 0.187193 -0.503500 -0.830805 -0.237171 94 197 81
-0.894613 1.570513 -0.012557 -0.503500 -0.830805 -0.237171 96 198 82
-0.543466 1.461161 -0.374963 -0.503500 -0.830805 -0.237171 50 181 33
-0.175377 1.077605 0.187193 0.214742 -0.969174 -0.120780 94 197 81
0.456522 1.262222 -0.170735 0.214742 -0.969174 -0.120780 50 181 33
0.443421 1.183859 0.434776 0.214742 -0.969174 -0.120780 50 181 33
-0.676658 2.101196 -0.183494 -0.274491 0.961387 0.019758 50 181 33
-0.882138 2.034910 0.187193 -0.274491 0.961387 0.019758 50 181 33
-0.008979 2.284211 0.187193 -0.274491 0.961387 0.019758 50 181 33
0.636709 1.941706 0.253595 0.466728 0.811872 -0.350755 58 184 41
0.645672 1.768867 -0.134541 0.466728 0.811872 -0.350755 86 194 72
-0.008979 2.284211 0.187193 0.466728 0.811872 -0.350755 50 181 33
4 0 1 2 3
4 4 5 6 7
4 8 9 10 11
4 12 13 14 15
4 16 17 18 19
4 20 21 22 23
4 24 25 26 27
4 28 29 30 31
4 32 33 34 35
4 36 37 38 39
4 40 41 42 43
4 44 45 46 47
4 48 49 50 51
3 52 53 54
4 55 56 57 58
4 59 60 61 62
4 63 64 65 66
4 67 68 69 70
4 71 72 73 74
3 75 76 77
3 78 79 80
3 81 82 83
3 84 85 86
3 87 88 89
3 90 91 92
3 93 94 95
3 96 97 98
3 99 100 101
3 102 103 104
3 105 106 107
3 108 109 110
3 111 112 113
3 114 115 116
3 117 118 119
3 120 121 122
3 123 124 125
3 126 127 128
3 129 130 131
3 132 133 134
3 135 136 137
3 138 139 140
3 141 142 143
3 144 145 146
3 147 148 149
4 150 151 152 153
4 154 155 156 157
4 158 159 160 161
4 162 163 164 165
3 166 167 168
3 169 170 171
3 172 173 174
3 175 176 177
