ply
format ascii 1.0
comment Created by Blender 2.79 (sub 0) - www.blender.org, source file: 'tree01.blend'
element vertex 88
property float x
property float y
property float z
property float nx
property float ny
property float nz
property uchar red
property uchar green
property uchar blue
element face 28
property list uchar uint vertex_indices
end_header
0.175377 0.187193 1.077605 0.134547 -0.496858 -0.857339 94 197 81
0.543466 -0.374963 1.461161 0.134547 -0.496858 -0.857339 50 181 33
-0.112062 -0.464820 1.410360 0.134547 -0.496858 -0.857339 50 181 33
0.894613 -0.012557 1.570513 0.513723 -0.205643 -0.832946 50 181 33
0.175377 0.187193 1.077605 0.513723 -0.205643 -0.832946 94 197 81
0.696318 0.576852 1.302696 0.513723 -0.205643 -0.832946 66 187 49
0.175377 0.187193 1.077605 -0.003663 -0.453289 -0.891356 94 197 81
-0.112062 -0.464820 1.410360 -0.003663 -0.453289 -0.891356 50 181 33
-0.456522 -0.170735 1.262222 -0.003663 -0.453289 -0.891356 50 181 33
0.175377 0.187193 1.077605 0.056791 0.510236 -0.858157 121 206 110
-0.443421 0.434776 1.183859 0.056791 0.510236 -0.858157 50 181 33
-0.187520 0.757307 1.392562 0.056791 0.510236 -0.858157 50 181 33
0.175377 0.187193 1.077605 0.011145 0.488958 -0.872236 121 206 110
-0.187520 0.757307 1.392562 0.011145 0.488958 -0.872236 50 181 33
0.696318 0.576852 1.302696 0.011145 0.488958 -0.872236 76 191 62
0.894613 -0.012557 1.570513 0.955737 0.278730 -0.094215 50 181 33
0.696318 0.576852 1.302696 0.955737 0.278730 -0.094215 50 181 33
0.882138 0.187193 2.034910 0.955737 0.278730 -0.094215 50 181 33
0.543466 -0.374963 1.461161 0.713210 -0.566490 -0.412820 50 181 33
0.894613 -0.012557 1.570513 0.713210 -0.566490 -0.412820 96 198 82
0.752166 -0.264969 1.670785 0.713210 -0.566490 -0.412820 79 192 65
-0.456522 -0.170735 1.262222 -0.597627 -0.784169 -0.167097 50 181 33
-0.112062 -0.464820 1.410360 -0.597627 -0.784169 -0.167097 50 181 33
-0.645672 -0.134541 1.768867 -0.597627 -0.784169 -0.167097 86 194 72
-0.443421 0.434776 1.183859 -0.840255 -0.051668 -0.539724 50 181 33
-0.456522 -0.170735 1.262222 -0.840255 -0.051668 -0.539724 50 181 33
-0.631042 0.335070 1.485497 -0.840255 -0.051668 -0.539724 57 184 41
0.696318 0.576852 1.302696 0.181785 0.970185 -0.160299 50 181 33
-0.187520 0.757307 1.392562 0.181785 0.970185 -0.160299 50 181 33
0.261044 0.768376 1.968245 0.181785 0.970185 -0.160299 50 181 33
0.752166 -0.264969 1.670785 0.368491 -0.899462 0.234910 77 191 62
0.676658 -0.183494 2.101196 0.368491 -0.899462 0.234910 53 182 37
0.307261 -0.385141 1.908552 0.368491 -0.899462 0.234910 50 181 33
-0.112062 -0.464820 1.410360 -0.287014 -0.878433 0.382071 50 181 33
0.307261 -0.385141 1.908552 -0.287014 -0.878433 0.382071 50 181 33
-0.645672 -0.134541 1.768867 -0.287014 -0.878433 0.382071 86 194 72
-0.631042 0.335070 1.485497 -0.743361 0.660009 0.108638 51 181 34
-0.636709 0.253595 1.941706 -0.743361 0.660009 0.108638 50 181 33
-0.326136 0.641730 1.708772 -0.743361 0.660009 0.108638 50 181 33
-0.187520 0.757307 1.392562 -0.294485 0.931949 0.211539 50 181 33
-0.326136 0.641730 1.708772 -0.294485 0.931949 0.211539 50 181 33
0.261044 0.768376 1.968245 -0.294485 0.931949 0.211539 50 181 33
0.696318 0.576852 1.302696 0.653962 0.724032 0.219343 50 181 33
0.261044 0.768376 1.968245 0.653962 0.724032 0.219343 50 181 33
0.882138 0.187193 2.034910 0.653962 0.724032 0.219343 50 181 33
0.676658 -0.183494 2.101196 -0.102449 -0.582602 0.806275 53 182 37
0.008979 0.187193 2.284211 -0.102449 -0.582602 0.806275 50 181 33
0.307261 -0.385141 1.908552 -0.102449 -0.582602 0.806275 50 181 33
-0.645672 -0.134541 1.768867 -0.271372 -0.622977 0.733660 86 194 72
0.307261 -0.385141 1.908552 -0.271372 -0.622977 0.733660 50 181 33
0.008979 0.187193 2.284211 -0.271372 -0.622977 0.733660 50 181 33
-0.636709 0.253595 1.941706 -0.300024 0.655811 0.692747 50 181 33
0.008979 0.187193 2.284211 -0.300024 0.655811 0.692747 50 181 33
-0.326136 0.641730 1.708772 -0.300024 0.655811 0.692747 50 181 33
0.261044 0.768376 1.968245 -0.432040 0.568153 0.700388 50 181 33
-0.326136 0.641730 1.708772 -0.432040 0.568153 0.700388 50 181 33
0.008979 0.187193 2.284211 -0.432040 0.568153 0.700388 50 181 33
0.882138 0.187193 2.034910 0.254582 0.374344 0.891658 50 181 33
0.261044 0.768376 1.968245 0.254582 0.374344 0.891658 50 181 33
0.008979 0.187193 2.284211 0.254582 0.374344 0.891658 50 181 33
0.894613 -0.012557 1.570513 0.875460 -0.429729 0.221139 50 181 33
0.882138 0.187193 2.034910 0.875460 -0.429729 0.221139 50 181 33
0.676658 -0.183494 2.101196 0.875460 -0.429729 0.221139 50 181 33
0.752166 -0.264969 1.670785 0.875460 -0.429729 0.221139 50 181 33
-0.112062 -0.464820 1.410360 0.200514 -0.976112 0.083658 50 181 33
0.543466 -0.374963 1.461161 0.200514 -0.976112 0.083658 50 181 33
0.752166 -0.264969 1.670785 0.200514 -0.976112 0.083658 77 191 62
0.307261 -0.385141 1.908552 0.200514 -0.976112 0.083658 50 181 33
-0.456522 -0.170735 1.262222 -0.975204 -0.091272 -0.201608 50 181 33
-0.645672 -0.134541 1.768867 -0.975204 -0.091272 -0.201608 84 194 69
-0.636709 0.253595 1.941706 -0.975204 -0.091272 -0.201608 58 184 41
-0.631042 0.335070 1.485497 -0.975204 -0.091272 -0.201608 57 184 41
-0.187520 0.757307 1.392562 -0.697664 0.705888 -0.122423 50 181 33
-0.443421 0.434776 1.183859 -0.697664 0.705888 -0.122423 50 181 33
-0.631042 0.335070 1.485497 -0.697664 0.705888 -0.122423 57 184 41
-0.326136 0.641730 1.708772 -0.697664 0.705888 -0.122423 54 183 37
0.175377 0.187193 1.077605 0.503500 -0.237172 -0.830805 94 197 81
0.894613 -0.012557 1.570513 0.503500 -0.237172 -0.830805 96 198 82
0.543466 -0.374963 1.461161 0.503500 -0.237172 -0.830805 50 181 33
0.175377 0.187193 1.077605 -0.214742 -0.120780 -0.969174 94 197 81
-0.456522 -0.170735 1.262222 -0.214742 -0.120780 -0.969174 50 181 33
-0.443421 0.434776 1.183859 -0.214742 -0.120780 -0.969174 50 181 33
0.676658 -0.183494 2.101196 0.274491 0.019757 0.961387 50 181 33
0.882138 0.187193 2.034910 0.274491 0.019757 0.961387 50 181 33
0.008979 0.187193 2.284211 0.274491 0.019757 0.961387 50 181 33
-0.636709 0.253595 1.941706 -0.466728 -0.350754 0.811872 58 184 41
-0.645672 -0.134541 1.768867 -0.466728 -0.350754 0.811872 86 194 72
0.008979 0.187193 2.284211 -0.466728 -0.350754 0.811872 50 181 33
3 0 1 2
3 3 4 5
3 6 7 8
3 9 10 11
3 12 13 14
3 15 16 17
3 18 19 20
3 21 22 23
3 24 25 26
3 27 28 29
3 30 31 32
3 33 34 35
3 36 37 38
3 39 40 41
3 42 43 44
3 45 46 47
3 48 49 50
3 51 52 53
3 54 55 56
3 57 58 59
4 60 61 62 63
4 64 65 66 67
4 68 69 70 71
4 72 73 74 75
3 76 77 78
3 79 80 81
3 82 83 84
3 85 86 87
